Courier Prime Greek.glyphspackage
{
color = 6;
glyphname = Eth;
layers = (
{
components = (
{
name = D;
}
);
layerId = UUID0;
paths = (
{
closed = 1;
nodes = (
"113 680 LINE SMOOTH",
"68 680 OFFCURVE",
"50 662 OFFCURVE",
"50 612 CURVE SMOOTH",
"50 562 OFFCURVE",
"68 544 OFFCURVE",
"113 544 CURVE SMOOTH",
"595 544 LINE SMOOTH",
"640 544 OFFCURVE",
"658 562 OFFCURVE",
"658 612 CURVE SMOOTH",
"658 662 OFFCURVE",
"640 680 OFFCURVE",
"595 680 CURVE SMOOTH"
);
}
);
width = 1228;
},
{
components = (
{
name = D;
}
);
layerId = "8538028E-5D6C-4318-9676-30148CDA39CA";
paths = (
{
closed = 1;
nodes = (
"103 719 LINE SMOOTH",
"58 719 OFFCURVE",
"40 701 OFFCURVE",
"40 606 CURVE SMOOTH",
"40 511 OFFCURVE",
"58 494 OFFCURVE",
"103 494 CURVE SMOOTH",
"605 494 LINE SMOOTH",
"650 494 OFFCURVE",
"668 511 OFFCURVE",
"668 606 CURVE SMOOTH",
"668 701 OFFCURVE",
"650 719 OFFCURVE",
"605 719 CURVE SMOOTH"
);
}
);
width = 1228;
}
);
unicode = 00D0;
}
{
glyphname = brokenbar;
layers = (
{
layerId = UUID0;
paths = (
{
closed = 1;
nodes = (
"558 1394 OFFCURVE",
"539 1375 OFFCURVE",
"539 1329 CURVE SMOOTH",
"539 730 LINE SMOOTH",
"539 684 OFFCURVE",
"558 665 OFFCURVE",
"614 665 CURVE SMOOTH",
"670 665 OFFCURVE",
"689 684 OFFCURVE",
"689 730 CURVE SMOOTH",
"689 1329 LINE SMOOTH",
"689 1375 OFFCURVE",
"670 1394 OFFCURVE",
"614 1394 CURVE SMOOTH"
);
},
{
closed = 1;
nodes = (
"558 374 OFFCURVE",
"539 355 OFFCURVE",
"539 309 CURVE SMOOTH",
"539 -290 LINE SMOOTH",
"539 -336 OFFCURVE",
"558 -355 OFFCURVE",
"614 -355 CURVE SMOOTH",
"670 -355 OFFCURVE",
"689 -336 OFFCURVE",
"689 -290 CURVE SMOOTH",
"689 309 LINE SMOOTH",
"689 355 OFFCURVE",
"670 374 OFFCURVE",
"614 374 CURVE SMOOTH"
);
}
);
width = 1228;
},
{
layerId = "8538028E-5D6C-4318-9676-30148CDA39CA";
paths = (
{
closed = 1;
nodes = (
"536 1394 OFFCURVE",
"489 1376 OFFCURVE",
"489 1331 CURVE SMOOTH",
"489 708 LINE SMOOTH",
"489 663 OFFCURVE",
"522 645 OFFCURVE",
"607 645 CURVE SMOOTH",
"692 645 OFFCURVE",
"739 663 OFFCURVE",
"739 708 CURVE SMOOTH",
"739 1331 LINE SMOOTH",
"739 1376 OFFCURVE",
"706 1394 OFFCURVE",
"621 1394 CURVE SMOOTH"
);
},
{
closed = 1;
nodes = (
"536 394 OFFCURVE",
"489 376 OFFCURVE",
"489 331 CURVE SMOOTH",
"489 -292 LINE SMOOTH",
"489 -337 OFFCURVE",
"522 -355 OFFCURVE",
"607 -355 CURVE SMOOTH",
"692 -355 OFFCURVE",
"739 -337 OFFCURVE",
"739 -292 CURVE SMOOTH",
"739 331 LINE SMOOTH",
"739 376 OFFCURVE",
"706 394 OFFCURVE",
"621 394 CURVE SMOOTH"
);
}
);
width = 1228;
}
);
unicode = 00A6;
}
{
glyphname = cedilla;
layers = (
{
layerId = UUID0;
paths = (
{
closed = 1;
nodes = (
"531 28 LINE",
"531 -177 LINE SMOOTH",
"531 -212 OFFCURVE",
"549 -222 OFFCURVE",
"567 -221 CURVE SMOOTH",
"680 -214 OFFCURVE",
"720 -237 OFFCURVE",
"720 -285 CURVE SMOOTH",
"720 -327 OFFCURVE",
"677 -349 OFFCURVE",
"611 -349 CURVE SMOOTH",
"544 -349 OFFCURVE",
"470 -331 OFFCURVE",
"418 -311 CURVE SMOOTH",
"393 -302 OFFCURVE",
"373 -318 OFFCURVE",
"359 -354 CURVE SMOOTH",
"345 -389 OFFCURVE",
"349 -412 OFFCURVE",
"374 -424 CURVE SMOOTH",
"443 -456 OFFCURVE",
"532 -472 OFFCURVE",
"621 -472 CURVE SMOOTH",
"788 -472 OFFCURVE",
"866 -393 OFFCURVE",
"866 -281 CURVE SMOOTH",
"866 -187 OFFCURVE",
"805 -111 OFFCURVE",
"663 -113 CURVE",
"663 28 LINE"
);
}
);
width = 1228;
},
{
layerId = "8538028E-5D6C-4318-9676-30148CDA39CA";
paths = (
{
closed = 1;
nodes = (
"509 28 LINE",
"509 -176 LINE SMOOTH",
"509 -205 OFFCURVE",
"524 -219 OFFCURVE",
"551 -217 CURVE SMOOTH",
"622 -212 OFFCURVE",
"684 -216 OFFCURVE",
"684 -262 CURVE SMOOTH",
"684 -297 OFFCURVE",
"653 -313 OFFCURVE",
"588 -313 CURVE SMOOTH",
"527 -313 OFFCURVE",
"475 -301 OFFCURVE",
"427 -284 CURVE SMOOTH",
"401 -275 OFFCURVE",
"380 -295 OFFCURVE",
"361 -346 CURVE SMOOTH",
"343 -393 OFFCURVE",
"350 -420 OFFCURVE",
"375 -430 CURVE SMOOTH",
"445 -457 OFFCURVE",
"534 -472 OFFCURVE",
"631 -472 CURVE SMOOTH",
"814 -472 OFFCURVE",
"910 -400 OFFCURVE",
"910 -273 CURVE SMOOTH",
"910 -165 OFFCURVE",
"843 -83 OFFCURVE",
"694 -83 CURVE",
"694 28 LINE"
);
}
);
width = 1228;
}
);
unicode = 00B8;
}
{
glyphname = cent;
layers = (
{
components = (
{
name = c;
transform = "{1, 0, 0, 1, 0, 140}";
}
);
layerId = UUID0;
paths = (
{
closed = 1;
nodes = (
"565 1312 OFFCURVE",
"544 1293 OFFCURVE",
"544 1247 CURVE SMOOTH",
"544 -60 LINE SMOOTH",
"544 -106 OFFCURVE",
"565 -125 OFFCURVE",
"614 -125 CURVE SMOOTH",
"663 -125 OFFCURVE",
"684 -106 OFFCURVE",
"684 -60 CURVE SMOOTH",
"684 1247 LINE SMOOTH",
"684 1293 OFFCURVE",
"663 1312 OFFCURVE",
"614 1312 CURVE SMOOTH"
);
}
);
width = 1228;
},
{
components = (
{
name = c;
transform = "{1, 0, 0, 1, 0, 140}";
}
);
layerId = "8538028E-5D6C-4318-9676-30148CDA39CA";
paths = (
{
closed = 1;
nodes = (
"543 1312 OFFCURVE",
"525 1294 OFFCURVE",
"525 1249 CURVE SMOOTH",
"525 -62 LINE SMOOTH",
"525 -107 OFFCURVE",
"543 -125 OFFCURVE",
"618 -125 CURVE SMOOTH",
"693 -125 OFFCURVE",
"711 -107 OFFCURVE",
"711 -62 CURVE SMOOTH",
"711 1249 LINE SMOOTH",
"711 1294 OFFCURVE",
"693 1312 OFFCURVE",
"618 1312 CURVE SMOOTH"
);
}
);
width = 1228;
}
);
unicode = 00A2;
}
{
glyphname = divide;
layers = (
{
components = (
{
name = minus;
}
);
layerId = UUID0;
paths = (
{
closed = 1;
nodes = (
"540 340 OFFCURVE",
"509 322 OFFCURVE",
"509 277 CURVE SMOOTH",
"509 173 LINE SMOOTH",
"509 128 OFFCURVE",
"540 110 OFFCURVE",
"614 110 CURVE SMOOTH",
"688 110 OFFCURVE",
"719 128 OFFCURVE",
"719 173 CURVE SMOOTH",
"719 277 LINE SMOOTH",
"719 322 OFFCURVE",
"688 340 OFFCURVE",
"614 340 CURVE SMOOTH"
);
},
{
closed = 1;
nodes = (
"540 1055 OFFCURVE",
"509 1037 OFFCURVE",
"509 992 CURVE SMOOTH",
"509 888 LINE SMOOTH",
"509 843 OFFCURVE",
"540 825 OFFCURVE",
"614 825 CURVE SMOOTH",
"688 825 OFFCURVE",
"719 843 OFFCURVE",
"719 888 CURVE SMOOTH",
"719 992 LINE SMOOTH",
"719 1037 OFFCURVE",
"688 1055 OFFCURVE",
"614 1055 CURVE SMOOTH"
);
}
);
width = 1228;
},
{
components = (
{
name = minus;
}
);
layerId = "8538028E-5D6C-4318-9676-30148CDA39CA";
paths = (
{
closed = 1;
nodes = (
"526 340 OFFCURVE",
"489 322 OFFCURVE",
"489 277 CURVE SMOOTH",
"489 133 LINE SMOOTH",
"489 88 OFFCURVE",
"526 70 OFFCURVE",
"614 70 CURVE SMOOTH",
"702 70 OFFCURVE",
"739 88 OFFCURVE",
"739 133 CURVE SMOOTH",
"739 277 LINE SMOOTH",
"739 322 OFFCURVE",
"702 340 OFFCURVE",
"614 340 CURVE SMOOTH"
);
},
{
closed = 1;
nodes = (
"526 1095 OFFCURVE",
"489 1077 OFFCURVE",
"489 1032 CURVE SMOOTH",
"489 888 LINE SMOOTH",
"489 843 OFFCURVE",
"526 825 OFFCURVE",
"614 825 CURVE SMOOTH",
"702 825 OFFCURVE",
"739 843 OFFCURVE",
"739 888 CURVE SMOOTH",
"739 1032 LINE SMOOTH",
"739 1077 OFFCURVE",
"702 1095 OFFCURVE",
"614 1095 CURVE SMOOTH"
);
}
);
width = 1228;
}
);
unicode = 00F7;
}
{
glyphname = eth;
layers = (
{
layerId = UUID0;
paths = (
{
closed = 1;
nodes = (
"342 886 OFFCURVE",
"140 704 OFFCURVE",
"140 432 CURVE SMOOTH",
"140 160 OFFCURVE",
"342 -22 OFFCURVE",
"614 -22 CURVE SMOOTH",
"886 -22 OFFCURVE",
"1088 160 OFFCURVE",
"1088 432 CURVE",
"902 774 LINE",
"822 836 OFFCURVE",
"726 886 OFFCURVE",
"614 886 CURVE SMOOTH"
);
},
{
closed = 1;
nodes = (
"804 738 OFFCURVE",
"930 617 OFFCURVE",
"930 432 CURVE SMOOTH",
"930 247 OFFCURVE",
"804 126 OFFCURVE",
"614 126 CURVE SMOOTH",
"424 126 OFFCURVE",
"298 247 OFFCURVE",
"298 432 CURVE SMOOTH",
"298 617 OFFCURVE",
"424 738 OFFCURVE",
"614 738 CURVE SMOOTH"
);
},
{
closed = 1;
nodes = (
"413 1343 OFFCURVE",
"383 1331 OFFCURVE",
"360 1287 CURVE SMOOTH",
"337 1243 OFFCURVE",
"342 1215 OFFCURVE",
"383 1195 CURVE SMOOTH",
"703 1038 OFFCURVE",
"953 813 OFFCURVE",
"953 443 CURVE",
"1088 432 LINE",
"1088 884 OFFCURVE",
"806 1149 OFFCURVE",
"453 1323 CURVE SMOOTH"
);
},
{
closed = 1;
nodes = (
"356 1074 LINE SMOOTH",
"314 1058 OFFCURVE",
"303 1034 OFFCURVE",
"321 988 CURVE SMOOTH",
"339 941 OFFCURVE",
"362 930 OFFCURVE",
"404 946 CURVE SMOOTH",
"959 1154 LINE SMOOTH",
"1001 1170 OFFCURVE",
"1012 1194 OFFCURVE",
"994 1240 CURVE SMOOTH",
"976 1287 OFFCURVE",
"953 1298 OFFCURVE",
"911 1282 CURVE SMOOTH"
);
}
);
width = 1228;
},
{
layerId = "8538028E-5D6C-4318-9676-30148CDA39CA";
paths = (
{
closed = 1;
nodes = (
"305 866 OFFCURVE",
"122 682 OFFCURVE",
"122 422 CURVE SMOOTH",
"122 162 OFFCURVE",
"315 -22 OFFCURVE",
"614 -22 CURVE SMOOTH",
"913 -22 OFFCURVE",
"1106 162 OFFCURVE",
"1106 462 CURVE",
"839 767 LINE",
"768 832 OFFCURVE",
"686 866 OFFCURVE",
"584 866 CURVE SMOOTH"
);
},
{
closed = 1;
nodes = (
"749 639 OFFCURVE",
"838 558 OFFCURVE",
"838 422 CURVE SMOOTH",
"838 286 OFFCURVE",
"749 205 OFFCURVE",
"614 205 CURVE SMOOTH",
"479 205 OFFCURVE",
"390 286 OFFCURVE",
"390 422 CURVE SMOOTH",
"390 558 OFFCURVE",
"479 639 OFFCURVE",
"614 639 CURVE SMOOTH"
);
},
{
closed = 1;
nodes = (
"468 1361 OFFCURVE",
"434 1352 OFFCURVE",
"385 1277 CURVE SMOOTH",
"334 1198 OFFCURVE",
"336 1158 OFFCURVE",
"378 1137 CURVE SMOOTH",
"609 1023 OFFCURVE",
"862 834 OFFCURVE",
"886 480 CURVE",
"1106 462 LINE",
"1106 834 OFFCURVE",
"904 1142 OFFCURVE",
"510 1340 CURVE SMOOTH"
);
},
{
closed = 1;
nodes = (
"380 1067 LINE SMOOTH",
"340 1046 OFFCURVE",
"333 1021 OFFCURVE",
"368 955 CURVE SMOOTH",
"403 889 OFFCURVE",
"427 882 OFFCURVE",
"467 903 CURVE SMOOTH",
"928 1148 LINE SMOOTH",
"967 1169 OFFCURVE",
"975 1193 OFFCURVE",
"940 1259 CURVE SMOOTH",
"905 1325 OFFCURVE",
"881 1333 OFFCURVE",
"841 1312 CURVE SMOOTH"
);
}
);
width = 1228;
}
);
unicode = 00F0;
}
{
glyphname = logicalnot;
layers = (
{
layerId = UUID0;
paths = (
{
closed = 1;
nodes = (
"203 845 LINE SMOOTH",
"158 845 OFFCURVE",
"140 827 OFFCURVE",
"140 777 CURVE SMOOTH",
"140 727 OFFCURVE",
"158 709 OFFCURVE",
"203 709 CURVE SMOOTH",
"928 709 LINE",
"928 383 LINE SMOOTH",
"928 337 OFFCURVE",
"947 318 OFFCURVE",
"1003 318 CURVE SMOOTH",
"1059 318 OFFCURVE",
"1078 337 OFFCURVE",
"1078 383 CURVE SMOOTH",
"1078 777 LINE SMOOTH",
"1078 827 OFFCURVE",
"1060 845 OFFCURVE",
"1015 845 CURVE SMOOTH"
);
}
);
width = 1228;
},
{
layerId = "8538028E-5D6C-4318-9676-30148CDA39CA";
paths = (
{
closed = 1;
nodes = (
"183 845 LINE SMOOTH",
"138 845 OFFCURVE",
"120 828 OFFCURVE",
"120 738 CURVE SMOOTH",
"120 648 OFFCURVE",
"138 630 OFFCURVE",
"183 630 CURVE SMOOTH",
"848 630 LINE",
"848 308 LINE SMOOTH",
"848 263 OFFCURVE",
"871 245 OFFCURVE",
"966 245 CURVE SMOOTH",
"1061 245 OFFCURVE",
"1098 263 OFFCURVE",
"1098 308 CURVE SMOOTH",
"1098 780 LINE SMOOTH",
"1098 826 OFFCURVE",
"1079 845 OFFCURVE",
"1033 845 CURVE SMOOTH"
);
}
);
width = 1228;
}
);
unicode = 00AC;
}
{
glyphname = onehalf;
layers = (
{
background = {
components = (
{
alignment = -1;
name = onesuperior;
transform = "{0.835, 0, 0, 0.835, -262, 280}";
},
{
alignment = -1;
name = twosuperior;
transform = "{0.835, 0, 0, 0.835, 429, -619}";
},
{
alignment = -1;
name = fraction;
transform = "{1, 0, 0, 1, 0, 40}";
}
);
};
layerId = UUID0;
paths = (
{
closed = 1;
nodes = (
"18 1262 LINE SMOOTH",
"-11 1248 OFFCURVE",
"-10 1224 OFFCURVE",
"8 1195 CURVE SMOOTH",
"25 1165 OFFCURVE",
"44 1160 OFFCURVE",
"72 1174 CURVE SMOOTH",
"263 1274 LINE",
"213 1320 LINE",
"213 788 LINE",
"43 788 LINE SMOOTH",
"16 788 OFFCURVE",
"1 773 OFFCURVE",
"1 736 CURVE SMOOTH",
"1 698 OFFCURVE",
"16 683 OFFCURVE",
"43 683 CURVE SMOOTH",
"488 683 LINE SMOOTH",
"515 683 OFFCURVE",
"529 698 OFFCURVE",
"529 736 CURVE SMOOTH",
"529 773 OFFCURVE",
"515 788 OFFCURVE",
"488 788 CURVE SMOOTH",
"326 788 LINE",
"326 1359 LINE SMOOTH",
"326 1391 OFFCURVE",
"296 1402 OFFCURVE",
"269 1389 CURVE SMOOTH"
);
},
{
closed = 1;
nodes = (
"863 495 OFFCURVE",
"773 471 OFFCURVE",
"706 426 CURVE SMOOTH",
"695 419 OFFCURVE",
"689 407 OFFCURVE",
"689 391 CURVE SMOOTH",
"689 269 LINE SMOOTH",
"689 241 OFFCURVE",
"704 226 OFFCURVE",
"745 226 CURVE SMOOTH",
"786 226 OFFCURVE",
"801 241 OFFCURVE",
"801 269 CURVE SMOOTH",
"801 355 LINE",
"839 375 OFFCURVE",
"888 387 OFFCURVE",
"936 387 CURVE SMOOTH",
"1020 387 OFFCURVE",
"1064 345 OFFCURVE",
"1064 281 CURVE SMOOTH",
"1064 224 OFFCURVE",
"1033 183 OFFCURVE",
"973 132 CURVE SMOOTH",
"695 -101 LINE SMOOTH",
"679 -115 OFFCURVE",
"669 -131 OFFCURVE",
"669 -156 CURVE SMOOTH",
"669 -194 OFFCURVE",
"682 -216 OFFCURVE",
"709 -216 CURVE SMOOTH",
"1186 -216 LINE SMOOTH",
"1212 -216 OFFCURVE",
"1227 -201 OFFCURVE",
"1227 -171 CURVE SMOOTH",
"1227 -46 LINE SMOOTH",
"1227 -19 OFFCURVE",
"1212 -4 OFFCURVE",
"1171 -4 CURVE SMOOTH",
"1130 -4 OFFCURVE",
"1115 -19 OFFCURVE",
"1115 -46 CURVE SMOOTH",
"1115 -111 LINE",
"846 -111 LINE",
"1045 54 LINE SMOOTH",
"1134 127 OFFCURVE",
"1181 192 OFFCURVE",
"1181 281 CURVE SMOOTH",
"1181 411 OFFCURVE",
"1092 495 OFFCURVE",
"943 495 CURVE SMOOTH"
);
},
{
closed = 1;
nodes = (
"125 329 LINE SMOOTH",
"106 317 OFFCURVE",
"106 290 OFFCURVE",
"125 264 CURVE SMOOTH",
"144 238 OFFCURVE",
"168 230 OFFCURVE",
"185 240 CURVE SMOOTH",
"1103 801 LINE SMOOTH",
"1122 813 OFFCURVE",
"1122 840 OFFCURVE",
"1103 866 CURVE SMOOTH",
"1084 892 OFFCURVE",
"1060 900 OFFCURVE",
"1043 890 CURVE SMOOTH"
);
}
);
width = 1228;
},
{
background = {
components = (
{
alignment = -1;
name = onesuperior;
transform = "{0.835, 0, 0, 0.835, -265, 281}";
},
{
alignment = -1;
name = twosuperior;
transform = "{0.835, 0, 0, 0.835, 426, -620}";
},
{
alignment = -1;
name = fraction;
transform = "{1, 0, 0, 1, 0, 40}";
}
);
};
layerId = "8538028E-5D6C-4318-9676-30148CDA39CA";
paths = (
{
closed = 1;
nodes = (
"7 1265 LINE SMOOTH",
"-26 1249 OFFCURVE",
"-27 1220 OFFCURVE",
"-7 1176 CURVE SMOOTH",
"17 1124 OFFCURVE",
"43 1119 OFFCURVE",
"72 1134 CURVE SMOOTH",
"285 1245 LINE",
"188 1300 LINE",
"188 826 LINE",
"31 826 LINE SMOOTH",
"0 826 OFFCURVE",
"-12 805 OFFCURVE",
"-12 755 CURVE SMOOTH",
"-12 705 OFFCURVE",
"-1 684 OFFCURVE",
"31 684 CURVE SMOOTH",
"502 684 LINE SMOOTH",
"532 684 OFFCURVE",
"545 705 OFFCURVE",
"545 755 CURVE SMOOTH",
"545 805 OFFCURVE",
"532 826 OFFCURVE",
"502 826 CURVE SMOOTH",
"350 826 LINE",
"350 1346 LINE SMOOTH",
"350 1392 OFFCURVE",
"299 1405 OFFCURVE",
"264 1388 CURVE SMOOTH"
);
},
{
closed = 1;
nodes = (
"878 494 OFFCURVE",
"783 475 OFFCURVE",
"709 436 CURVE SMOOTH",
"692 427 OFFCURVE",
"683 415 OFFCURVE",
"683 399 CURVE SMOOTH",
"683 254 LINE SMOOTH",
"683 228 OFFCURVE",
"707 214 OFFCURVE",
"766 214 CURVE SMOOTH",
"824 214 OFFCURVE",
"838 228 OFFCURVE",
"838 254 CURVE SMOOTH",
"838 328 LINE",
"870 342 OFFCURVE",
"911 349 OFFCURVE",
"948 349 CURVE SMOOTH",
"1010 349 OFFCURVE",
"1046 316 OFFCURVE",
"1046 263 CURVE SMOOTH",
"1046 220 OFFCURVE",
"1015 186 OFFCURVE",
"955 142 CURVE SMOOTH",
"682 -70 LINE SMOOTH",
"668 -81 OFFCURVE",
"659 -100 OFFCURVE",
"659 -133 CURVE SMOOTH",
"659 -192 OFFCURVE",
"676 -217 OFFCURVE",
"703 -217 CURVE SMOOTH",
"1208 -217 LINE SMOOTH",
"1236 -217 OFFCURVE",
"1247 -206 OFFCURVE",
"1247 -178 CURVE SMOOTH",
"1247 -36 LINE SMOOTH",
"1247 -10 OFFCURVE",
"1223 4 OFFCURVE",
"1164 4 CURVE SMOOTH",
"1106 4 OFFCURVE",
"1092 -10 OFFCURVE",
"1092 -36 CURVE SMOOTH",
"1092 -75 LINE",
"894 -75 LINE",
"1059 45 LINE SMOOTH",
"1152 112 OFFCURVE",
"1214 179 OFFCURVE",
"1214 271 CURVE SMOOTH",
"1214 403 OFFCURVE",
"1126 494 OFFCURVE",
"961 494 CURVE SMOOTH"
);
},
{
closed = 1;
nodes = (
"105 369 LINE SMOOTH",
"77 353 OFFCURVE",
"79 326 OFFCURVE",
"109 280 CURVE SMOOTH",
"139 234 OFFCURVE",
"162 228 OFFCURVE",
"185 240 CURVE SMOOTH",
"1122 761 LINE SMOOTH",
"1150 777 OFFCURVE",
"1148 804 OFFCURVE",
"1118 850 CURVE SMOOTH",
"1088 896 OFFCURVE",
"1065 902 OFFCURVE",
"1042 890 CURVE SMOOTH"
);
}
);
width = 1228;
}
);
unicode = 00BD;
}
{
glyphname = onequarter;
layers = (
{
background = {
components = (
{
alignment = -1;
name = foursuperior;
transform = "{0.835, 0, 0, 0.835, 428, -619}";
},
{
alignment = -1;
name = onesuperior;
transform = "{0.835, 0, 0, 0.835, -262, 280}";
},
{
alignment = -1;
name = fraction;
transform = "{1, 0, 0, 1, 0, -10}";
}
);
};
layerId = UUID0;
paths = (
{
closed = 1;
nodes = (
"998 495 OFFCURVE",
"980 482 OFFCURVE",
"961 458 CURVE SMOOTH",
"644 81 LINE SMOOTH",
"634 67 OFFCURVE",
"630 56 OFFCURVE",
"630 36 CURVE SMOOTH",
"630 -9 OFFCURVE",
"649 -29 OFFCURVE",
"675 -29 CURVE SMOOTH",
"989 -29 LINE",
"989 -182 LINE SMOOTH",
"989 -208 OFFCURVE",
"1005 -222 OFFCURVE",
"1046 -222 CURVE SMOOTH",
"1088 -222 OFFCURVE",
"1102 -208 OFFCURVE",
"1102 -182 CURVE SMOOTH",
"1102 -29 LINE",
"1193 -29 LINE SMOOTH",
"1219 -29 OFFCURVE",
"1233 -14 OFFCURVE",
"1233 24 CURVE SMOOTH",
"1233 62 OFFCURVE",
"1219 76 OFFCURVE",
"1193 76 CURVE SMOOTH",
"1102 76 LINE",
"1102 448 LINE SMOOTH",
"1102 476 OFFCURVE",
"1065 495 OFFCURVE",
"1028 495 CURVE SMOOTH"
);
},
{
closed = 1;
nodes = (
"989 76 LINE",
"773 76 LINE",
"994 342 LINE"
);
},
{
closed = 1;
nodes = (
"18 1262 LINE SMOOTH",
"-11 1248 OFFCURVE",
"-10 1224 OFFCURVE",
"8 1195 CURVE SMOOTH",
"25 1165 OFFCURVE",
"44 1160 OFFCURVE",
"72 1174 CURVE SMOOTH",
"263 1274 LINE",
"213 1320 LINE",
"213 788 LINE",
"43 788 LINE SMOOTH",
"16 788 OFFCURVE",
"1 773 OFFCURVE",
"1 736 CURVE SMOOTH",
"1 698 OFFCURVE",
"16 683 OFFCURVE",
"43 683 CURVE SMOOTH",
"488 683 LINE SMOOTH",
"515 683 OFFCURVE",
"529 698 OFFCURVE",
"529 736 CURVE SMOOTH",
"529 773 OFFCURVE",
"515 788 OFFCURVE",
"488 788 CURVE SMOOTH",
"326 788 LINE",
"326 1359 LINE SMOOTH",
"326 1391 OFFCURVE",
"296 1402 OFFCURVE",
"269 1389 CURVE SMOOTH"
);
},
{
closed = 1;
nodes = (
"125 279 LINE SMOOTH",
"106 267 OFFCURVE",
"106 240 OFFCURVE",
"125 214 CURVE SMOOTH",
"144 188 OFFCURVE",
"168 180 OFFCURVE",
"185 190 CURVE SMOOTH",
"1103 751 LINE SMOOTH",
"1122 763 OFFCURVE",
"1122 790 OFFCURVE",
"1103 816 CURVE SMOOTH",
"1084 842 OFFCURVE",
"1060 850 OFFCURVE",
"1043 840 CURVE SMOOTH"
);
}
);
width = 1228;
},
{
background = {
components = (
{
alignment = -1;
name = foursuperior;
transform = "{0.835, 0, 0, 0.835, 435, -615}";
},
{
alignment = -1;
name = onesuperior;
transform = "{0.835, 0, 0, 0.835, -265, 281}";
},
{
alignment = -1;
name = fraction;
transform = "{1, 0, 0, 1, 0, -10}";
}
);
};
layerId = "8538028E-5D6C-4318-9676-30148CDA39CA";
paths = (
{
closed = 1;
nodes = (
"995 499 OFFCURVE",
"969 486 OFFCURVE",
"951 463 CURVE SMOOTH",
"641 85 LINE SMOOTH",
"631 71 OFFCURVE",
"627 60 OFFCURVE",
"627 40 CURVE SMOOTH",
"627 -6 OFFCURVE",
"655 -60 OFFCURVE",
"680 -60 CURVE SMOOTH",
"970 -60 LINE",
"970 -178 LINE SMOOTH",
"970 -204 OFFCURVE",
"995 -218 OFFCURVE",
"1060 -218 CURVE SMOOTH",
"1119 -218 OFFCURVE",
"1133 -204 OFFCURVE",
"1133 -178 CURVE SMOOTH",
"1133 -60 LINE",
"1208 -60 LINE SMOOTH",
"1238 -60 OFFCURVE",
"1251 -39 OFFCURVE",
"1251 10 CURVE SMOOTH",
"1251 59 OFFCURVE",
"1238 81 OFFCURVE",
"1208 81 CURVE SMOOTH",
"1133 81 LINE",
"1133 452 LINE SMOOTH",
"1133 481 OFFCURVE",
"1104 499 OFFCURVE",
"1043 499 CURVE SMOOTH"
);
},
{
closed = 1;
nodes = (
"970 81 LINE",
"820 81 LINE",
"975 280 LINE"
);
},
{
closed = 1;
nodes = (
"7 1265 LINE SMOOTH",
"-26 1249 OFFCURVE",
"-27 1220 OFFCURVE",
"-7 1176 CURVE SMOOTH",
"17 1124 OFFCURVE",
"43 1119 OFFCURVE",
"72 1134 CURVE SMOOTH",
"285 1245 LINE",
"188 1300 LINE",
"188 826 LINE",
"31 826 LINE SMOOTH",
"0 826 OFFCURVE",
"-12 805 OFFCURVE",
"-12 755 CURVE SMOOTH",
"-12 705 OFFCURVE",
"-1 684 OFFCURVE",
"31 684 CURVE SMOOTH",
"502 684 LINE SMOOTH",
"532 684 OFFCURVE",
"545 705 OFFCURVE",
"545 755 CURVE SMOOTH",
"545 805 OFFCURVE",
"532 826 OFFCURVE",
"502 826 CURVE SMOOTH",
"350 826 LINE",
"350 1346 LINE SMOOTH",
"350 1392 OFFCURVE",
"299 1405 OFFCURVE",
"264 1388 CURVE SMOOTH"
);
},
{
closed = 1;
nodes = (
"105 319 LINE SMOOTH",
"77 303 OFFCURVE",
"79 276 OFFCURVE",
"109 230 CURVE SMOOTH",
"139 184 OFFCURVE",
"162 178 OFFCURVE",
"185 190 CURVE SMOOTH",
"1122 711 LINE SMOOTH",
"1150 727 OFFCURVE",
"1148 754 OFFCURVE",
"1118 800 CURVE SMOOTH",
"1088 846 OFFCURVE",
"1065 852 OFFCURVE",
"1042 840 CURVE SMOOTH"
);
}
);
width = 1228;
}
);
unicode = 00BC;
}
{
glyphname = onesuperior;
layers = (
{
layerId = UUID0;
paths = (
{
closed = 1;
nodes = (
"335 1176 LINE SMOOTH",
"301 1159 OFFCURVE",
"302 1131 OFFCURVE",
"323 1096 CURVE SMOOTH",
"344 1060 OFFCURVE",
"367 1054 OFFCURVE",
"400 1071 CURVE SMOOTH",
"629 1190 LINE",
"569 1246 LINE",
"569 608 LINE",
"365 608 LINE SMOOTH",
"333 608 OFFCURVE",
"315 591 OFFCURVE",
"315 546 CURVE SMOOTH",
"315 501 OFFCURVE",
"333 483 OFFCURVE",
"365 483 CURVE SMOOTH",
"898 483 LINE SMOOTH",
"930 483 OFFCURVE",
"947 501 OFFCURVE",
"947 546 CURVE SMOOTH",
"947 591 OFFCURVE",
"930 608 OFFCURVE",
"898 608 CURVE SMOOTH",
"704 608 LINE",
"704 1292 LINE SMOOTH",
"704 1330 OFFCURVE",
"668 1344 OFFCURVE",
"636 1328 CURVE SMOOTH"
);
}
);
width = 1228;
},
{
layerId = "8538028E-5D6C-4318-9676-30148CDA39CA";
paths = (
{
closed = 1;
nodes = (
"326 1178 LINE SMOOTH",
"286 1159 OFFCURVE",
"285 1124 OFFCURVE",
"309 1072 CURVE SMOOTH",
"338 1010 OFFCURVE",
"369 1004 OFFCURVE",
"403 1022 CURVE SMOOTH",
"659 1154 LINE",
"542 1220 LINE",
"542 653 LINE",
"354 653 LINE SMOOTH",
"317 653 OFFCURVE",
"303 627 OFFCURVE",
"303 568 CURVE SMOOTH",
"303 508 OFFCURVE",
"316 483 OFFCURVE",
"354 483 CURVE SMOOTH",
"918 483 LINE SMOOTH",
"955 483 OFFCURVE",
"970 508 OFFCURVE",
"970 568 CURVE SMOOTH",
"970 627 OFFCURVE",
"955 653 OFFCURVE",
"918 653 CURVE SMOOTH",
"737 653 LINE",
"737 1275 LINE SMOOTH",
"737 1330 OFFCURVE",
"675 1346 OFFCURVE",
"634 1326 CURVE SMOOTH"
);
}
);
width = 1228;
}
);
unicode = 00B9;
}
{
glyphname = ordfeminine;
layers = (
{
layerId = UUID0;
paths = (
{
closed = 1;
nodes = (
"521 1209 OFFCURVE",
"412 1186 OFFCURVE",
"324 1148 CURVE SMOOTH",
"296 1136 OFFCURVE",
"284 1112 OFFCURVE",
"300 1065 CURVE SMOOTH",
"314 1025 OFFCURVE",
"340 1012 OFFCURVE",
"368 1024 CURVE SMOOTH",
"450 1059 OFFCURVE",
"544 1080 OFFCURVE",
"622 1080 CURVE SMOOTH",
"735 1080 OFFCURVE",
"782 1029 OFFCURVE",
"782 950 CURVE SMOOTH",
"782 899 LINE",
"709 919 OFFCURVE",
"631 927 OFFCURVE",
"548 927 CURVE SMOOTH",
"380 927 OFFCURVE",
"242 859 OFFCURVE",
"242 687 CURVE SMOOTH",
"242 541 OFFCURVE",
"358 465 OFFCURVE",
"512 465 CURVE SMOOTH",
"622 465 OFFCURVE",
"715 507 OFFCURVE",
"794 574 CURVE",
"811 512 OFFCURVE",
"872 483 OFFCURVE",
"935 483 CURVE SMOOTH",
"984 483 LINE SMOOTH",
"1019 483 OFFCURVE",
"1033 499 OFFCURVE",
"1033 541 CURVE SMOOTH",
"1033 584 OFFCURVE",
"1019 602 OFFCURVE",
"984 602 CURVE SMOOTH",
"967 602 LINE SMOOTH",
"934 602 OFFCURVE",
"917 616 OFFCURVE",
"917 657 CURVE SMOOTH",
"917 954 LINE SMOOTH",
"917 1115 OFFCURVE",
"816 1209 OFFCURVE",
"622 1209 CURVE SMOOTH"
);
},
{
closed = 1;
nodes = (
"638 801 OFFCURVE",
"712 792 OFFCURVE",
"782 776 CURVE",
"782 707 LINE",
"706 632 OFFCURVE",
"620 590 OFFCURVE",
"516 590 CURVE SMOOTH",
"435 590 OFFCURVE",
"383 625 OFFCURVE",
"383 690 CURVE SMOOTH",
"383 772 OFFCURVE",
"456 801 OFFCURVE",
"559 801 CURVE SMOOTH"
);
}
);
width = 1228;
},
{
layerId = "8538028E-5D6C-4318-9676-30148CDA39CA";
paths = (
{
closed = 1;
nodes = (
"524 1209 OFFCURVE",
"414 1191 OFFCURVE",
"318 1156 CURVE SMOOTH",
"277 1142 OFFCURVE",
"278 1104 OFFCURVE",
"293 1060 CURVE SMOOTH",
"313 1001 OFFCURVE",
"337 981 OFFCURVE",
"378 994 CURVE SMOOTH",
"448 1017 OFFCURVE",
"525 1035 OFFCURVE",
"586 1035 CURVE SMOOTH",
"698 1035 OFFCURVE",
"735 998 OFFCURVE",
"735 934 CURVE SMOOTH",
"735 912 LINE",
"658 927 OFFCURVE",
"586 935 OFFCURVE",
"518 935 CURVE SMOOTH",
"336 935 OFFCURVE",
"229 852 OFFCURVE",
"229 709 CURVE SMOOTH",
"229 559 OFFCURVE",
"332 465 OFFCURVE",
"508 465 CURVE SMOOTH",
"606 465 OFFCURVE",
"698 503 OFFCURVE",
"776 563 CURVE",
"803 505 OFFCURVE",
"855 482 OFFCURVE",
"916 482 CURVE SMOOTH",
"1002 482 LINE SMOOTH",
"1037 482 OFFCURVE",
"1051 495 OFFCURVE",
"1051 560 CURVE SMOOTH",
"1051 626 OFFCURVE",
"1037 640 OFFCURVE",
"1002 640 CURVE SMOOTH",
"978 640 LINE SMOOTH",
"945 640 OFFCURVE",
"928 664 OFFCURVE",
"928 705 CURVE SMOOTH",
"928 927 LINE SMOOTH",
"928 1100 OFFCURVE",
"842 1209 OFFCURVE",
"608 1209 CURVE SMOOTH"
);
},
{
closed = 1;
nodes = (
"599 776 OFFCURVE",
"664 770 OFFCURVE",
"735 756 CURVE",
"735 706 LINE",
"678 660 OFFCURVE",
"606 627 OFFCURVE",
"533 627 CURVE SMOOTH",
"465 627 OFFCURVE",
"427 653 OFFCURVE",
"427 701 CURVE SMOOTH",
"427 749 OFFCURVE",
"465 776 OFFCURVE",
"537 776 CURVE SMOOTH"
);
}
);
width = 1228;
}
);
unicode = 00AA;
}
{
color = 6;
glyphname = oslash;
layers = (
{
background = {
paths = (
{
closed = 1;
nodes = (
"332 946 OFFCURVE",
"120 744 OFFCURVE",
"120 462 CURVE SMOOTH",
"120 350 OFFCURVE",
"153 250 OFFCURVE",
"211 171 CURVE",
"138 101 LINE SMOOTH",
"105 69 OFFCURVE",
"106 41 OFFCURVE",
"140 6 CURVE SMOOTH",
"174 -29 OFFCURVE",
"202 -31 OFFCURVE",
"235 1 CURVE SMOOTH",
"310 73 LINE",
"392 12 OFFCURVE",
"497 -22 OFFCURVE",
"614 -22 CURVE SMOOTH",
"896 -22 OFFCURVE",
"1108 180 OFFCURVE",
"1108 462 CURVE SMOOTH",
"1108 574 OFFCURVE",
"1074 673 OFFCURVE",
"1016 752 CURVE",
"1089 822 LINE SMOOTH",
"1123 854 OFFCURVE",
"1122 883 OFFCURVE",
"1088 918 CURVE SMOOTH",
"1054 953 OFFCURVE",
"1025 955 OFFCURVE",
"992 923 CURVE SMOOTH",
"917 851 LINE",
"835 911 OFFCURVE",
"730 946 OFFCURVE",
"614 946 CURVE SMOOTH"
);
},
{
closed = 1;
nodes = (
"933 591 OFFCURVE",
"950 530 OFFCURVE",
"950 462 CURVE SMOOTH",
"950 267 OFFCURVE",
"814 126 OFFCURVE",
"614 126 CURVE SMOOTH",
"539 126 OFFCURVE",
"474 145 OFFCURVE",
"421 180 CURVE",
"903 643 LINE"
);
},
{
closed = 1;
nodes = (
"688 798 OFFCURVE",
"753 778 OFFCURVE",
"806 744 CURVE",
"325 281 LINE",
"295 332 OFFCURVE",
"278 393 OFFCURVE",
"278 462 CURVE SMOOTH",
"278 657 OFFCURVE",
"414 798 OFFCURVE",
"614 798 CURVE SMOOTH"
);
}
);
};
components = (
{
name = o;
}
);
layerId = UUID0;
paths = (
{
closed = 1;
nodes = (
"108 71 LINE SMOOTH",
"75 39 OFFCURVE",
"76 11 OFFCURVE",
"110 -24 CURVE SMOOTH",
"144 -59 OFFCURVE",
"172 -61 OFFCURVE",
"205 -29 CURVE SMOOTH",
"1119 852 LINE SMOOTH",
"1153 884 OFFCURVE",
"1152 913 OFFCURVE",
"1118 948 CURVE SMOOTH",
"1084 983 OFFCURVE",
"1055 985 OFFCURVE",
"1022 953 CURVE SMOOTH"
);
}
);
width = 1228;
},
{
background = {
components = (
{
name = o;
}
);
paths = (
{
closed = 1;
nodes = (
"104 70 LINE SMOOTH",
"73 38 OFFCURVE",
"73 12 OFFCURVE",
"127 -40 CURVE SMOOTH",
"181 -92 OFFCURVE",
"206 -92 OFFCURVE",
"238 -59 CURVE SMOOTH",
"1124 854 LINE SMOOTH",
"1155 886 OFFCURVE",
"1155 912 OFFCURVE",
"1101 964 CURVE SMOOTH",
"1047 1016 OFFCURVE",
"1022 1016 OFFCURVE",
"990 983 CURVE SMOOTH"
);
}
);
};
components = (
{
name = o;
}
);
layerId = "8538028E-5D6C-4318-9676-30148CDA39CA";
paths = (
{
closed = 1;
nodes = (
"104 70 LINE SMOOTH",
"73 38 OFFCURVE",
"73 12 OFFCURVE",
"127 -40 CURVE SMOOTH",
"181 -92 OFFCURVE",
"206 -92 OFFCURVE",
"238 -59 CURVE SMOOTH",
"1124 854 LINE SMOOTH",
"1155 886 OFFCURVE",
"1155 912 OFFCURVE",
"1101 964 CURVE SMOOTH",
"1047 1016 OFFCURVE",
"1022 1016 OFFCURVE",
"990 983 CURVE SMOOTH"
);
}
);
width = 1228;
}
);
unicode = 00F8;
}
{
glyphname = threesuperior;
layers = (
{
layerId = UUID0;
paths = (
{
closed = 1;
nodes = (
"514 1334 OFFCURVE",
"411 1312 OFFCURVE",
"332 1265 CURVE SMOOTH",
"319 1257 OFFCURVE",
"311 1242 OFFCURVE",
"311 1223 CURVE SMOOTH",
"311 1113 LINE SMOOTH",
"311 1080 OFFCURVE",
"329 1062 OFFCURVE",
"378 1062 CURVE SMOOTH",
"428 1062 OFFCURVE",
"446 1080 OFFCURVE",
"446 1113 CURVE SMOOTH",
"446 1176 LINE",
"488 1194 OFFCURVE",
"537 1205 OFFCURVE",
"593 1205 CURVE SMOOTH",
"695 1205 OFFCURVE",
"759 1165 OFFCURVE",
"759 1086 CURVE SMOOTH",
"759 999 OFFCURVE",
"697 965 OFFCURVE",
"589 965 CURVE SMOOTH",
"550 965 LINE SMOOTH",
"518 965 OFFCURVE",
"506 937 OFFCURVE",
"506 902 CURVE SMOOTH",
"506 866 OFFCURVE",
"518 840 OFFCURVE",
"550 840 CURVE SMOOTH",
"602 840 LINE SMOOTH",
"711 840 OFFCURVE",
"786 813 OFFCURVE",
"786 720 CURVE SMOOTH",
"786 639 OFFCURVE",
"717 594 OFFCURVE",
"598 594 CURVE SMOOTH",
"523 594 OFFCURVE",
"443 617 OFFCURVE",
"378 650 CURVE SMOOTH",
"344 665 OFFCURVE",
"322 639 OFFCURVE",
"310 607 CURVE SMOOTH",
"299 577 OFFCURVE",
"296 545 OFFCURVE",
"324 530 CURVE SMOOTH",
"406 485 OFFCURVE",
"511 465 OFFCURVE",
"605 465 CURVE SMOOTH",
"820 465 OFFCURVE",
"926 565 OFFCURVE",
"926 719 CURVE SMOOTH",
"926 820 OFFCURVE",
"872 886 OFFCURVE",
"787 915 CURVE",
"858 953 OFFCURVE",
"899 1012 OFFCURVE",
"899 1096 CURVE SMOOTH",
"899 1236 OFFCURVE",
"788 1334 OFFCURVE",
"604 1334 CURVE SMOOTH"
);
}
);
width = 1228;
},
{
layerId = "8538028E-5D6C-4318-9676-30148CDA39CA";
paths = (
{
closed = 1;
nodes = (
"513 1334 OFFCURVE",
"402 1312 OFFCURVE",
"317 1275 CURVE SMOOTH",
"296 1266 OFFCURVE",
"286 1250 OFFCURVE",
"286 1230 CURVE SMOOTH",
"286 1077 LINE SMOOTH",
"286 1045 OFFCURVE",
"315 1029 OFFCURVE",
"385 1029 CURVE SMOOTH",
"455 1029 OFFCURVE",
"471 1045 OFFCURVE",
"471 1077 CURVE SMOOTH",
"471 1135 LINE",
"517 1152 OFFCURVE",
"565 1161 OFFCURVE",
"607 1161 CURVE SMOOTH",
"695 1161 OFFCURVE",
"740 1128 OFFCURVE",
"740 1074 CURVE SMOOTH",
"740 1015 OFFCURVE",
"699 983 OFFCURVE",
"616 983 CURVE SMOOTH",
"542 983 LINE SMOOTH",
"511 983 OFFCURVE",
"494 961 OFFCURVE",
"494 897 CURVE SMOOTH",
"494 833 OFFCURVE",
"511 811 OFFCURVE",
"542 811 CURVE SMOOTH",
"635 811 LINE SMOOTH",
"705 811 OFFCURVE",
"742 781 OFFCURVE",
"742 724 CURVE SMOOTH",
"742 671 OFFCURVE",
"700 638 OFFCURVE",
"594 638 CURVE SMOOTH",
"518 638 OFFCURVE",
"430 662 OFFCURVE",
"362 690 CURVE SMOOTH",
"337 700 OFFCURVE",
"310 677 OFFCURVE",
"290 623 CURVE SMOOTH",
"270 568 OFFCURVE",
"280 533 OFFCURVE",
"314 519 CURVE SMOOTH",
"389 487 OFFCURVE",
"504 465 OFFCURVE",
"603 465 CURVE SMOOTH",
"823 465 OFFCURVE",
"954 549 OFFCURVE",
"954 718 CURVE SMOOTH",
"954 811 OFFCURVE",
"904 876 OFFCURVE",
"820 907 CURVE",
"895 943 OFFCURVE",
"942 998 OFFCURVE",
"942 1084 CURVE SMOOTH",
"942 1240 OFFCURVE",
"829 1334 OFFCURVE",
"622 1334 CURVE SMOOTH"
);
}
);
width = 1228;
}
);
unicode = 00B3;
}
{
glyphname = yen;
layers = (
{
layerId = UUID0;
paths = (
{
closed = 1;
nodes = (
"801 1187 LINE SMOOTH",
"756 1187 OFFCURVE",
"738 1169 OFFCURVE",
"738 1119 CURVE SMOOTH",
"738 1069 OFFCURVE",
"756 1051 OFFCURVE",
"801 1051 CURVE SMOOTH",
"866 1051 LINE",
"614 642 LINE",
"364 1051 LINE",
"457 1051 LINE SMOOTH",
"502 1051 OFFCURVE",
"520 1069 OFFCURVE",
"520 1119 CURVE SMOOTH",
"520 1169 OFFCURVE",
"502 1187 OFFCURVE",
"457 1187 CURVE SMOOTH",
"123 1187 LINE SMOOTH",
"78 1187 OFFCURVE",
"60 1169 OFFCURVE",
"60 1119 CURVE SMOOTH",
"60 1069 OFFCURVE",
"78 1051 OFFCURVE",
"123 1051 CURVE SMOOTH",
"193 1051 LINE",
"336 820 LINE",
"213 820 LINE SMOOTH",
"168 820 OFFCURVE",
"150 802 OFFCURVE",
"150 752 CURVE SMOOTH",
"150 702 OFFCURVE",
"168 684 OFFCURVE",
"213 684 CURVE SMOOTH",
"420 684 LINE",
"528 510 LINE",
"233 510 LINE SMOOTH",
"188 510 OFFCURVE",
"170 492 OFFCURVE",
"170 442 CURVE SMOOTH",
"170 392 OFFCURVE",
"188 374 OFFCURVE",
"233 374 CURVE SMOOTH",
"539 374 LINE",
"539 136 LINE",
"313 136 LINE SMOOTH",
"268 136 OFFCURVE",
"250 118 OFFCURVE",
"250 68 CURVE SMOOTH",
"250 18 OFFCURVE",
"268 0 OFFCURVE",
"313 0 CURVE SMOOTH",
"915 0 LINE SMOOTH",
"960 0 OFFCURVE",
"978 18 OFFCURVE",
"978 68 CURVE SMOOTH",
"978 118 OFFCURVE",
"960 136 OFFCURVE",
"915 136 CURVE SMOOTH",
"689 136 LINE",
"689 374 LINE",
"995 374 LINE SMOOTH",
"1040 374 OFFCURVE",
"1058 392 OFFCURVE",
"1058 442 CURVE SMOOTH",
"1058 492 OFFCURVE",
"1040 510 OFFCURVE",
"995 510 CURVE SMOOTH",
"700 510 LINE",
"808 684 LINE",
"1015 684 LINE SMOOTH",
"1060 684 OFFCURVE",
"1078 702 OFFCURVE",
"1078 752 CURVE SMOOTH",
"1078 802 OFFCURVE",
"1060 820 OFFCURVE",
"1015 820 CURVE SMOOTH",
"893 820 LINE",
"1037 1051 LINE",
"1105 1051 LINE SMOOTH",
"1150 1051 OFFCURVE",
"1168 1069 OFFCURVE",
"1168 1119 CURVE SMOOTH",
"1168 1169 OFFCURVE",
"1150 1187 OFFCURVE",
"1105 1187 CURVE SMOOTH"
);
}
);
width = 1228;
},
{
layerId = "8538028E-5D6C-4318-9676-30148CDA39CA";
paths = (
{
closed = 1;
nodes = (
"751 1187 LINE SMOOTH",
"706 1187 OFFCURVE",
"688 1169 OFFCURVE",
"688 1084 CURVE SMOOTH",
"688 999 OFFCURVE",
"706 982 OFFCURVE",
"751 982 CURVE SMOOTH",
"804 982 LINE",
"616 690 LINE",
"430 982 LINE",
"497 982 LINE SMOOTH",
"542 982 OFFCURVE",
"560 999 OFFCURVE",
"560 1084 CURVE SMOOTH",
"560 1169 OFFCURVE",
"542 1187 OFFCURVE",
"497 1187 CURVE SMOOTH",
"103 1187 LINE SMOOTH",
"58 1187 OFFCURVE",
"40 1169 OFFCURVE",
"40 1084 CURVE SMOOTH",
"40 999 OFFCURVE",
"58 982 OFFCURVE",
"103 982 CURVE SMOOTH",
"149 982 LINE",
"241 840 LINE",
"183 840 LINE SMOOTH",
"138 840 OFFCURVE",
"120 822 OFFCURVE",
"120 747 CURVE SMOOTH",
"120 672 OFFCURVE",
"138 655 OFFCURVE",
"183 655 CURVE SMOOTH",
"362 655 LINE",
"455 512 LINE",
"203 512 LINE SMOOTH",
"158 512 OFFCURVE",
"140 494 OFFCURVE",
"140 419 CURVE SMOOTH",
"140 344 OFFCURVE",
"158 327 OFFCURVE",
"203 327 CURVE SMOOTH",
"489 327 LINE",
"489 205 LINE",
"293 205 LINE SMOOTH",
"248 205 OFFCURVE",
"230 187 OFFCURVE",
"230 102 CURVE SMOOTH",
"230 17 OFFCURVE",
"248 0 OFFCURVE",
"293 0 CURVE SMOOTH",
"935 0 LINE SMOOTH",
"980 0 OFFCURVE",
"998 17 OFFCURVE",
"998 102 CURVE SMOOTH",
"998 187 OFFCURVE",
"980 205 OFFCURVE",
"935 205 CURVE SMOOTH",
"739 205 LINE",
"739 327 LINE",
"1025 327 LINE SMOOTH",
"1070 327 OFFCURVE",
"1088 344 OFFCURVE",
"1088 419 CURVE SMOOTH",
"1088 494 OFFCURVE",
"1070 512 OFFCURVE",
"1025 512 CURVE SMOOTH",
"773 512 LINE",
"867 655 LINE",
"1045 655 LINE SMOOTH",
"1090 655 OFFCURVE",
"1108 672 OFFCURVE",
"1108 747 CURVE SMOOTH",
"1108 822 OFFCURVE",
"1090 840 OFFCURVE",
"1045 840 CURVE SMOOTH",
"988 840 LINE",
"1081 982 LINE",
"1125 982 LINE SMOOTH",
"1170 982 OFFCURVE",
"1188 999 OFFCURVE",
"1188 1084 CURVE SMOOTH",
"1188 1169 OFFCURVE",
"1170 1187 OFFCURVE",
"1125 1187 CURVE SMOOTH"
);
}
);
width = 1228;
}
);
unicode = 00A5;
}
{
glyphname = asterisk;
layers = (
{
layerId = UUID0;
paths = (
{
closed = 1;
nodes = (
"552 1209 OFFCURVE",
"521 1174 OFFCURVE",
"528 1119 CURVE SMOOTH",
"564 839 LINE",
"308 960 LINE SMOOTH",
"258 983 OFFCURVE",
"216 965 OFFCURVE",
"197 906 CURVE SMOOTH",
"178 847 OFFCURVE",
"203 807 OFFCURVE",
"257 797 CURVE SMOOTH",
"533 744 LINE",
"339 536 LINE SMOOTH",
"301 496 OFFCURVE",
"306 451 OFFCURVE",
"356 415 CURVE SMOOTH",
"407 378 OFFCURVE",
"453 392 OFFCURVE",
"479 440 CURVE SMOOTH",
"614 685 LINE",
"749 440 LINE SMOOTH",
"775 392 OFFCURVE",
"821 378 OFFCURVE",
"872 415 CURVE SMOOTH",
"922 451 OFFCURVE",
"927 496 OFFCURVE",
"889 536 CURVE SMOOTH",
"693 744 LINE",
"971 797 LINE SMOOTH",
"1025 807 OFFCURVE",
"1050 847 OFFCURVE",
"1031 906 CURVE SMOOTH",
"1012 965 OFFCURVE",
"970 983 OFFCURVE",
"920 960 CURVE SMOOTH",
"664 839 LINE",
"700 1119 LINE SMOOTH",
"707 1174 OFFCURVE",
"676 1209 OFFCURVE",
"614 1209 CURVE SMOOTH"
);
}
);
width = 1228;
},
{
layerId = "8538028E-5D6C-4318-9676-30148CDA39CA";
paths = (
{
closed = 1;
nodes = (
"522 1209 OFFCURVE",
"481 1143 OFFCURVE",
"498 1069 CURVE SMOOTH",
"545 865 LINE",
"366 973 LINE SMOOTH",
"301 1012 OFFCURVE",
"226 994 OFFCURVE",
"197 906 CURVE SMOOTH",
"169 819 OFFCURVE",
"218 760 OFFCURVE",
"294 753 CURVE SMOOTH",
"502 734 LINE",
"344 597 LINE SMOOTH",
"287 547 OFFCURVE",
"281 470 OFFCURVE",
"355 415 CURVE SMOOTH",
"429 361 OFFCURVE",
"501 390 OFFCURVE",
"531 460 CURVE SMOOTH",
"614 653 LINE",
"697 460 LINE SMOOTH",
"727 390 OFFCURVE",
"799 361 OFFCURVE",
"873 415 CURVE SMOOTH",
"947 470 OFFCURVE",
"941 547 OFFCURVE",
"884 597 CURVE SMOOTH",
"726 734 LINE",
"934 753 LINE SMOOTH",
"1010 760 OFFCURVE",
"1059 819 OFFCURVE",
"1031 906 CURVE SMOOTH",
"1002 994 OFFCURVE",
"927 1012 OFFCURVE",
"862 973 CURVE SMOOTH",
"683 865 LINE",
"730 1069 LINE SMOOTH",
"747 1143 OFFCURVE",
"706 1209 OFFCURVE",
"614 1209 CURVE SMOOTH"
);
}
);
width = 1228;
}
);
unicode = 002A;
}
{
glyphname = comma;
layers = (
{
layerId = UUID0;
paths = (
{
closed = 1;
nodes = (
"520 294 LINE SMOOTH",
"492 294 OFFCURVE",
"473 280 OFFCURVE",
"468 254 CURVE SMOOTH",
"374 -228 LINE SMOOTH",
"366 -270 OFFCURVE",
"388 -294 OFFCURVE",
"444 -294 CURVE SMOOTH",
"490 -294 OFFCURVE",
"518 -281 OFFCURVE",
"530 -253 CURVE SMOOTH",
"742 231 LINE SMOOTH",
"757 266 OFFCURVE",
"747 294 OFFCURVE",
"714 294 CURVE SMOOTH"
);
}
);
width = 1228;
},
{
layerId = "8538028E-5D6C-4318-9676-30148CDA39CA";
paths = (
{
closed = 1;
nodes = (
"506 354 LINE SMOOTH",
"478 354 OFFCURVE",
"459 340 OFFCURVE",
"454 314 CURVE SMOOTH",
"354 -228 LINE SMOOTH",
"346 -271 OFFCURVE",
"378 -294 OFFCURVE",
"434 -294 CURVE SMOOTH",
"490 -294 OFFCURVE",
"526 -279 OFFCURVE",
"540 -246 CURVE SMOOTH",
"777 291 LINE SMOOTH",
"793 327 OFFCURVE",
"782 354 OFFCURVE",
"749 354 CURVE SMOOTH"
);
}
);
width = 1228;
}
);
unicode = 002C;
}
{
glyphname = dotaccent;
layers = (
{
layerId = UUID0;
paths = (
{
closed = 1;
nodes = (
"538 1363 OFFCURVE",
"519 1344 OFFCURVE",
"519 1298 CURVE SMOOTH",
"519 1168 LINE SMOOTH",
"519 1122 OFFCURVE",
"538 1103 OFFCURVE",
"614 1103 CURVE SMOOTH",
"690 1103 OFFCURVE",
"709 1122 OFFCURVE",
"709 1168 CURVE SMOOTH",
"709 1298 LINE SMOOTH",
"709 1344 OFFCURVE",
"690 1363 OFFCURVE",
"614 1363 CURVE SMOOTH"
);
}
);
width = 1228;
},
{
layerId = "8538028E-5D6C-4318-9676-30148CDA39CA";
paths = (
{
closed = 1;
nodes = (
"516 1363 OFFCURVE",
"489 1345 OFFCURVE",
"489 1300 CURVE SMOOTH",
"489 1136 LINE SMOOTH",
"489 1091 OFFCURVE",
"521 1073 OFFCURVE",
"616 1073 CURVE SMOOTH",
"711 1073 OFFCURVE",
"739 1091 OFFCURVE",
"739 1136 CURVE SMOOTH",
"739 1300 LINE SMOOTH",
"739 1345 OFFCURVE",
"706 1363 OFFCURVE",
"611 1363 CURVE SMOOTH"
);
}
);
width = 1228;
}
);
unicode = 02D9;
}
{
glyphname = hyphen;
layers = (
{
layerId = UUID0;
paths = (
{
closed = 1;
nodes = (
"233 650 LINE SMOOTH",
"188 650 OFFCURVE",
"170 632 OFFCURVE",
"170 582 CURVE SMOOTH",
"170 532 OFFCURVE",
"188 514 OFFCURVE",
"233 514 CURVE SMOOTH",
"995 514 LINE SMOOTH",
"1040 514 OFFCURVE",
"1058 532 OFFCURVE",
"1058 582 CURVE SMOOTH",
"1058 632 OFFCURVE",
"1040 650 OFFCURVE",
"995 650 CURVE SMOOTH"
);
}
);
width = 1228;
},
{
layerId = "8538028E-5D6C-4318-9676-30148CDA39CA";
paths = (
{
closed = 1;
nodes = (
"233 695 LINE SMOOTH",
"188 695 OFFCURVE",
"170 677 OFFCURVE",
"170 582 CURVE SMOOTH",
"170 487 OFFCURVE",
"188 470 OFFCURVE",
"233 470 CURVE SMOOTH",
"995 470 LINE SMOOTH",
"1040 470 OFFCURVE",
"1058 487 OFFCURVE",
"1058 582 CURVE SMOOTH",
"1058 677 OFFCURVE",
"1040 695 OFFCURVE",
"995 695 CURVE SMOOTH"
);
}
);
width = 1228;
}
);
unicode = 002D;
}
{
glyphname = plus;
layers = (
{
layerId = UUID0;
paths = (
{
closed = 1;
nodes = (
"564 1026 OFFCURVE",
"546 1008 OFFCURVE",
"546 963 CURVE SMOOTH",
"546 650 LINE",
"233 650 LINE SMOOTH",
"188 650 OFFCURVE",
"170 632 OFFCURVE",
"170 582 CURVE SMOOTH",
"170 532 OFFCURVE",
"188 514 OFFCURVE",
"233 514 CURVE SMOOTH",
"546 514 LINE",
"546 201 LINE SMOOTH",
"546 156 OFFCURVE",
"564 138 OFFCURVE",
"614 138 CURVE SMOOTH",
"664 138 OFFCURVE",
"682 156 OFFCURVE",
"682 201 CURVE SMOOTH",
"682 514 LINE",
"995 514 LINE SMOOTH",
"1040 514 OFFCURVE",
"1058 532 OFFCURVE",
"1058 582 CURVE SMOOTH",
"1058 632 OFFCURVE",
"1040 650 OFFCURVE",
"995 650 CURVE SMOOTH",
"682 650 LINE",
"682 963 LINE SMOOTH",
"682 1008 OFFCURVE",
"664 1026 OFFCURVE",
"614 1026 CURVE SMOOTH"
);
}
);
width = 1228;
},
{
layerId = "8538028E-5D6C-4318-9676-30148CDA39CA";
paths = (
{
closed = 1;
nodes = (
"519 1026 OFFCURVE",
"501 1008 OFFCURVE",
"501 963 CURVE SMOOTH",
"501 695 LINE",
"233 695 LINE SMOOTH",
"188 695 OFFCURVE",
"170 677 OFFCURVE",
"170 582 CURVE SMOOTH",
"170 487 OFFCURVE",
"188 470 OFFCURVE",
"233 470 CURVE SMOOTH",
"501 470 LINE",
"501 201 LINE SMOOTH",
"501 156 OFFCURVE",
"519 138 OFFCURVE",
"614 138 CURVE SMOOTH",
"709 138 OFFCURVE",
"726 156 OFFCURVE",
"726 201 CURVE SMOOTH",
"726 470 LINE",
"995 470 LINE SMOOTH",
"1040 470 OFFCURVE",
"1058 487 OFFCURVE",
"1058 582 CURVE SMOOTH",
"1058 677 OFFCURVE",
"1040 695 OFFCURVE",
"995 695 CURVE SMOOTH",
"726 695 LINE",
"726 963 LINE SMOOTH",
"726 1008 OFFCURVE",
"709 1026 OFFCURVE",
"614 1026 CURVE SMOOTH"
);
}
);
width = 1228;
}
);
unicode = 002B;
}
{
glyphname = ring;
layers = (
{
layerId = UUID0;
paths = (
{
closed = 1;
nodes = (
"474 1557 OFFCURVE",
"368 1451 OFFCURVE",
"368 1311 CURVE SMOOTH",
"368 1171 OFFCURVE",
"474 1065 OFFCURVE",
"614 1065 CURVE SMOOTH",
"754 1065 OFFCURVE",
"860 1171 OFFCURVE",
"860 1311 CURVE SMOOTH",
"860 1451 OFFCURVE",
"754 1557 OFFCURVE",
"614 1557 CURVE SMOOTH"
);
},
{
closed = 1;
nodes = (
"683 1425 OFFCURVE",
"728 1380 OFFCURVE",
"728 1311 CURVE SMOOTH",
"728 1242 OFFCURVE",
"683 1197 OFFCURVE",
"614 1197 CURVE SMOOTH",
"545 1197 OFFCURVE",
"500 1242 OFFCURVE",
"500 1311 CURVE SMOOTH",
"500 1380 OFFCURVE",
"545 1425 OFFCURVE",
"614 1425 CURVE SMOOTH"
);
}
);
width = 1228;
},
{
layerId = "8538028E-5D6C-4318-9676-30148CDA39CA";
paths = (
{
closed = 1;
nodes = (
"463 1557 OFFCURVE",
"352 1446 OFFCURVE",
"352 1295 CURVE SMOOTH",
"352 1144 OFFCURVE",
"463 1033 OFFCURVE",
"614 1033 CURVE SMOOTH",
"765 1033 OFFCURVE",
"876 1144 OFFCURVE",
"876 1295 CURVE SMOOTH",
"876 1446 OFFCURVE",
"765 1557 OFFCURVE",
"614 1557 CURVE SMOOTH"
);
},
{
closed = 1;
nodes = (
"670 1387 OFFCURVE",
"706 1351 OFFCURVE",
"706 1295 CURVE SMOOTH",
"706 1239 OFFCURVE",
"670 1203 OFFCURVE",
"614 1203 CURVE SMOOTH",
"558 1203 OFFCURVE",
"522 1239 OFFCURVE",
"522 1295 CURVE SMOOTH",
"522 1351 OFFCURVE",
"558 1387 OFFCURVE",
"614 1387 CURVE SMOOTH"
);
}
);
width = 1228;
}
);
unicode = 02DA;
}
{
glyphname = tilde;
layers = (
{
layerId = UUID0;
paths = (
{
closed = 1;
nodes = (
"427 1315 OFFCURVE",
"351 1278 OFFCURVE",
"284 1192 CURVE SMOOTH",
"266 1169 OFFCURVE",
"262 1142 OFFCURVE",
"291 1111 CURVE SMOOTH",
"320 1080 OFFCURVE",
"349 1080 OFFCURVE",
"367 1098 CURVE SMOOTH",
"409 1141 OFFCURVE",
"449 1166 OFFCURVE",
"493 1166 CURVE SMOOTH",
"575 1166 OFFCURVE",
"635 1096 OFFCURVE",
"734 1096 CURVE SMOOTH",
"801 1096 OFFCURVE",
"877 1133 OFFCURVE",
"944 1219 CURVE SMOOTH",
"962 1242 OFFCURVE",
"966 1269 OFFCURVE",
"937 1300 CURVE SMOOTH",
"908 1331 OFFCURVE",
"879 1331 OFFCURVE",
"861 1313 CURVE SMOOTH",
"819 1270 OFFCURVE",
"779 1245 OFFCURVE",
"735 1245 CURVE SMOOTH",
"653 1245 OFFCURVE",
"593 1315 OFFCURVE",
"494 1315 CURVE SMOOTH"
);
}
);
width = 1228;
},
{
layerId = "8538028E-5D6C-4318-9676-30148CDA39CA";
paths = (
{
closed = 1;
nodes = (
"392 1371 OFFCURVE",
"304 1310 OFFCURVE",
"237 1210 CURVE SMOOTH",
"219 1183 OFFCURVE",
"223 1144 OFFCURVE",
"263 1100 CURVE SMOOTH",
"301 1058 OFFCURVE",
"335 1049 OFFCURVE",
"359 1074 CURVE SMOOTH",
"398 1115 OFFCURVE",
"442 1146 OFFCURVE",
"488 1146 CURVE SMOOTH",
"566 1146 OFFCURVE",
"633 1065 OFFCURVE",
"743 1065 CURVE SMOOTH",
"836 1065 OFFCURVE",
"924 1126 OFFCURVE",
"991 1226 CURVE SMOOTH",
"1009 1253 OFFCURVE",
"1005 1292 OFFCURVE",
"965 1336 CURVE SMOOTH",
"927 1378 OFFCURVE",
"893 1387 OFFCURVE",
"869 1362 CURVE SMOOTH",
"830 1321 OFFCURVE",
"786 1290 OFFCURVE",
"740 1290 CURVE SMOOTH",
"662 1290 OFFCURVE",
"595 1371 OFFCURVE",
"485 1371 CURVE SMOOTH"
);
}
);
width = 1228;
}
);
unicode = 02DC;
}
{
glyphname = greater;
layers = (
{
layerId = UUID0;
paths = (
{
closed = 1;
nodes = (
"238 1053 OFFCURVE",
"209 1044 OFFCURVE",
"187 1000 CURVE SMOOTH",
"164 954 OFFCURVE",
"174 925 OFFCURVE",
"216 905 CURVE SMOOTH",
"888 583 LINE",
"216 261 LINE SMOOTH",
"174 241 OFFCURVE",
"164 212 OFFCURVE",
"187 166 CURVE SMOOTH",
"209 122 OFFCURVE",
"238 113 OFFCURVE",
"279 133 CURVE SMOOTH",
"1056 514 LINE SMOOTH",
"1088 530 OFFCURVE",
"1103 548 OFFCURVE",
"1103 583 CURVE SMOOTH",
"1103 618 OFFCURVE",
"1088 636 OFFCURVE",
"1056 652 CURVE SMOOTH",
"279 1033 LINE SMOOTH"
);
}
);
width = 1228;
},
{
layerId = "8538028E-5D6C-4318-9676-30148CDA39CA";
paths = (
{
closed = 1;
nodes = (
"241 1100 OFFCURVE",
"212 1091 OFFCURVE",
"172 1011 CURVE SMOOTH",
"132 931 OFFCURVE",
"140 896 OFFCURVE",
"182 875 CURVE SMOOTH",
"767 583 LINE",
"182 291 LINE SMOOTH",
"140 270 OFFCURVE",
"132 235 OFFCURVE",
"172 155 CURVE SMOOTH",
"212 75 OFFCURVE",
"241 66 OFFCURVE",
"282 87 CURVE SMOOTH",
"1062 489 LINE SMOOTH",
"1094 505 OFFCURVE",
"1108 526 OFFCURVE",
"1108 583 CURVE SMOOTH",
"1108 640 OFFCURVE",
"1094 661 OFFCURVE",
"1062 677 CURVE SMOOTH",
"282 1079 LINE SMOOTH"
);
}
);
width = 1228;
}
);
unicode = 003E;
}
{
glyphname = J;
layers = (
{
layerId = UUID0;
paths = (
{
closed = 1;
nodes = (
"403 1187 LINE SMOOTH",
"358 1187 OFFCURVE",
"340 1169 OFFCURVE",
"340 1119 CURVE SMOOTH",
"340 1069 OFFCURVE",
"358 1051 OFFCURVE",
"403 1051 CURVE SMOOTH",
"744 1051 LINE",
"744 363 LINE SMOOTH",
"744 205 OFFCURVE",
"672 126 OFFCURVE",
"495 126 CURVE SMOOTH",
"398 126 OFFCURVE",
"320 152 OFFCURVE",
"265 201 CURVE",
"265 465 LINE SMOOTH",
"265 511 OFFCURVE",
"246 530 OFFCURVE",
"190 530 CURVE SMOOTH",
"134 530 OFFCURVE",
"115 511 OFFCURVE",
"115 465 CURVE SMOOTH",
"115 180 LINE SMOOTH",
"115 157 OFFCURVE",
"121 141 OFFCURVE",
"131 129 CURVE SMOOTH",
"212 40 OFFCURVE",
"336 -22 OFFCURVE",
"494 -22 CURVE SMOOTH",
"754 -22 OFFCURVE",
"894 98 OFFCURVE",
"894 333 CURVE SMOOTH",
"894 1051 LINE",
"1095 1051 LINE SMOOTH",
"1140 1051 OFFCURVE",
"1158 1069 OFFCURVE",
"1158 1119 CURVE SMOOTH",
"1158 1169 OFFCURVE",
"1140 1187 OFFCURVE",
"1095 1187 CURVE SMOOTH"
);
}
);
width = 1228;
},
{
layerId = "8538028E-5D6C-4318-9676-30148CDA39CA";
paths = (
{
closed = 1;
nodes = (
"373 1187 LINE SMOOTH",
"328 1187 OFFCURVE",
"310 1169 OFFCURVE",
"310 1084 CURVE SMOOTH",
"310 999 OFFCURVE",
"328 982 OFFCURVE",
"373 982 CURVE SMOOTH",
"679 982 LINE",
"679 383 LINE SMOOTH",
"679 260 OFFCURVE",
"623 205 OFFCURVE",
"515 205 CURVE SMOOTH",
"452 205 OFFCURVE",
"396 216 OFFCURVE",
"349 239 CURVE",
"349 499 LINE SMOOTH",
"349 544 OFFCURVE",
"326 562 OFFCURVE",
"231 562 CURVE SMOOTH",
"136 562 OFFCURVE",
"99 544 OFFCURVE",
"99 499 CURVE SMOOTH",
"99 175 LINE SMOOTH",
"99 152 OFFCURVE",
"104 136 OFFCURVE",
"115 125 CURVE SMOOTH",
"218 27 OFFCURVE",
"348 -22 OFFCURVE",
"504 -22 CURVE SMOOTH",
"781 -22 OFFCURVE",
"929 105 OFFCURVE",
"929 363 CURVE SMOOTH",
"929 982 LINE",
"1115 982 LINE SMOOTH",
"1160 982 OFFCURVE",
"1178 999 OFFCURVE",
"1178 1084 CURVE SMOOTH",
"1178 1169 OFFCURVE",
"1160 1187 OFFCURVE",
"1115 1187 CURVE SMOOTH"
);
}
);
width = 1228;
}
);
unicode = 004A;
}
{
glyphname = O;
layers = (
{
layerId = UUID0;
paths = (
{
closed = 1;
nodes = (
"299 1209 OFFCURVE",
"88 963 OFFCURVE",
"88 593 CURVE SMOOTH",
"88 223 OFFCURVE",
"299 -22 OFFCURVE",
"614 -22 CURVE SMOOTH",
"929 -22 OFFCURVE",
"1140 223 OFFCURVE",
"1140 593 CURVE SMOOTH",
"1140 963 OFFCURVE",
"929 1209 OFFCURVE",
"614 1209 CURVE SMOOTH"
);
},
{
closed = 1;
nodes = (
"836 1061 OFFCURVE",
"982 881 OFFCURVE",
"982 593 CURVE SMOOTH",
"982 305 OFFCURVE",
"836 126 OFFCURVE",
"614 126 CURVE SMOOTH",
"392 126 OFFCURVE",
"246 305 OFFCURVE",
"246 593 CURVE SMOOTH",
"246 881 OFFCURVE",
"392 1061 OFFCURVE",
"614 1061 CURVE SMOOTH"
);
}
);
width = 1228;
},
{
layerId = "8538028E-5D6C-4318-9676-30148CDA39CA";
paths = (
{
closed = 1;
nodes = (
"284 1209 OFFCURVE",
"63 974 OFFCURVE",
"63 594 CURVE SMOOTH",
"63 214 OFFCURVE",
"284 -22 OFFCURVE",
"614 -22 CURVE SMOOTH",
"944 -22 OFFCURVE",
"1165 214 OFFCURVE",
"1165 594 CURVE SMOOTH",
"1165 974 OFFCURVE",
"944 1209 OFFCURVE",
"614 1209 CURVE SMOOTH"
);
},
{
closed = 1;
nodes = (
"801 982 OFFCURVE",
"897 842 OFFCURVE",
"897 594 CURVE SMOOTH",
"897 346 OFFCURVE",
"801 205 OFFCURVE",
"614 205 CURVE SMOOTH",
"427 205 OFFCURVE",
"331 346 OFFCURVE",
"331 594 CURVE SMOOTH",
"331 842 OFFCURVE",
"427 982 OFFCURVE",
"614 982 CURVE SMOOTH"
);
}
);
width = 1228;
}
);
unicode = 004F;
}
{
glyphname = Z;
layers = (
{
layerId = UUID0;
paths = (
{
closed = 1;
nodes = (
"251 1187 LINE SMOOTH",
"206 1187 OFFCURVE",
"188 1169 OFFCURVE",
"188 1119 CURVE SMOOTH",
"188 802 LINE SMOOTH",
"188 756 OFFCURVE",
"207 737 OFFCURVE",
"263 737 CURVE SMOOTH",
"319 737 OFFCURVE",
"338 756 OFFCURVE",
"338 802 CURVE SMOOTH",
"338 1051 LINE",
"840 1051 LINE",
"181 111 LINE SMOOTH",
"173 99 OFFCURVE",
"167 86 OFFCURVE",
"167 68 CURVE SMOOTH",
"167 18 OFFCURVE",
"185 0 OFFCURVE",
"230 0 CURVE SMOOTH",
"996 0 LINE SMOOTH",
"1041 0 OFFCURVE",
"1059 18 OFFCURVE",
"1059 68 CURVE SMOOTH",
"1059 405 LINE SMOOTH",
"1059 451 OFFCURVE",
"1040 470 OFFCURVE",
"984 470 CURVE SMOOTH",
"928 470 OFFCURVE",
"909 451 OFFCURVE",
"909 405 CURVE SMOOTH",
"909 136 LINE",
"377 136 LINE",
"1040 1080 LINE SMOOTH",
"1047 1090 OFFCURVE",
"1050 1103 OFFCURVE",
"1050 1119 CURVE SMOOTH",
"1050 1169 OFFCURVE",
"1032 1187 OFFCURVE",
"987 1187 CURVE SMOOTH"
);
}
);
width = 1228;
},
{
layerId = "8538028E-5D6C-4318-9676-30148CDA39CA";
paths = (
{
closed = 1;
nodes = (
"233 1187 LINE SMOOTH",
"187 1187 OFFCURVE",
"168 1168 OFFCURVE",
"168 1122 CURVE SMOOTH",
"168 770 LINE SMOOTH",
"168 725 OFFCURVE",
"191 707 OFFCURVE",
"276 707 CURVE SMOOTH",
"361 707 OFFCURVE",
"398 725 OFFCURVE",
"398 770 CURVE SMOOTH",
"398 972 LINE",
"732 972 LINE",
"158 195 LINE SMOOTH",
"144 176 OFFCURVE",
"138 147 OFFCURVE",
"138 102 CURVE SMOOTH",
"138 17 OFFCURVE",
"156 0 OFFCURVE",
"201 0 CURVE SMOOTH",
"1015 0 LINE SMOOTH",
"1061 0 OFFCURVE",
"1080 19 OFFCURVE",
"1080 65 CURVE SMOOTH",
"1080 437 LINE SMOOTH",
"1080 482 OFFCURVE",
"1057 500 OFFCURVE",
"972 500 CURVE SMOOTH",
"887 500 OFFCURVE",
"850 482 OFFCURVE",
"850 437 CURVE SMOOTH",
"850 215 LINE",
"483 215 LINE",
"1057 992 LINE SMOOTH",
"1072 1012 OFFCURVE",
"1080 1041 OFFCURVE",
"1080 1084 CURVE SMOOTH",
"1080 1169 OFFCURVE",
"1062 1187 OFFCURVE",
"1017 1187 CURVE SMOOTH"
);
}
);
width = 1228;
}
);
unicode = 005A;
}
{
glyphname = asciicircum;
layers = (
{
layerId = UUID0;
paths = (
{
closed = 1;
nodes = (
"575 1209 OFFCURVE",
"559 1196 OFFCURVE",
"546 1172 CURVE SMOOTH",
"238 581 LINE SMOOTH",
"220 547 OFFCURVE",
"247 521 OFFCURVE",
"282 509 CURVE SMOOTH",
"318 496 OFFCURVE",
"364 500 OFFCURVE",
"377 527 CURVE SMOOTH",
"614 1007 LINE",
"851 527 LINE SMOOTH",
"864 500 OFFCURVE",
"910 496 OFFCURVE",
"946 509 CURVE SMOOTH",
"981 521 OFFCURVE",
"1008 547 OFFCURVE",
"990 581 CURVE SMOOTH",
"682 1172 LINE SMOOTH",
"669 1196 OFFCURVE",
"653 1209 OFFCURVE",
"614 1209 CURVE SMOOTH"
);
}
);
width = 1228;
},
{
layerId = "8538028E-5D6C-4318-9676-30148CDA39CA";
paths = (
{
closed = 1;
nodes = (
"555 1209 OFFCURVE",
"528 1196 OFFCURVE",
"516 1172 CURVE SMOOTH",
"198 562 LINE SMOOTH",
"177 522 OFFCURVE",
"228 490 OFFCURVE",
"288 476 CURVE SMOOTH",
"346 462 OFFCURVE",
"412 466 OFFCURVE",
"427 497 CURVE SMOOTH",
"614 887 LINE",
"801 497 LINE SMOOTH",
"816 466 OFFCURVE",
"882 462 OFFCURVE",
"940 476 CURVE SMOOTH",
"1000 490 OFFCURVE",
"1051 522 OFFCURVE",
"1030 562 CURVE SMOOTH",
"712 1172 LINE SMOOTH",
"700 1196 OFFCURVE",
"672 1209 OFFCURVE",
"614 1209 CURVE SMOOTH"
);
}
);
width = 1228;
}
);
unicode = 005E;
}
{
glyphname = backslash;
layers = (
{
layerId = UUID0;
paths = (
{
closed = 1;
nodes = (
"227 1394 OFFCURVE",
"185 1364 OFFCURVE",
"201 1324 CURVE SMOOTH",
"873 -319 LINE SMOOTH",
"882 -340 OFFCURVE",
"906 -355 OFFCURVE",
"938 -355 CURVE SMOOTH",
"1001 -355 OFFCURVE",
"1043 -325 OFFCURVE",
"1027 -285 CURVE SMOOTH",
"355 1358 LINE SMOOTH",
"346 1379 OFFCURVE",
"322 1394 OFFCURVE",
"290 1394 CURVE SMOOTH"
);
}
);
width = 1228;
},
{
layerId = "8538028E-5D6C-4318-9676-30148CDA39CA";
paths = (
{
closed = 1;
nodes = (
"216 1399 OFFCURVE",
"140 1357 OFFCURVE",
"163 1301 CURVE SMOOTH",
"829 -317 LINE SMOOTH",
"841 -346 OFFCURVE",
"869 -360 OFFCURVE",
"911 -360 CURVE SMOOTH",
"1012 -360 OFFCURVE",
"1088 -318 OFFCURVE",
"1065 -262 CURVE SMOOTH",
"399 1356 LINE SMOOTH",
"387 1385 OFFCURVE",
"359 1399 OFFCURVE",
"317 1399 CURVE SMOOTH"
);
}
);
width = 1228;
}
);
unicode = 005C;
}
{
glyphname = bracketleft;
layers = (
{
layerId = UUID0;
paths = (
{
closed = 1;
nodes = (
"393 1372 LINE SMOOTH",
"348 1372 OFFCURVE",
"330 1354 OFFCURVE",
"330 1304 CURVE SMOOTH",
"330 -265 LINE SMOOTH",
"330 -315 OFFCURVE",
"348 -333 OFFCURVE",
"393 -333 CURVE SMOOTH",
"480 -333 LINE",
"480 1372 LINE"
);
},
{
closed = 1;
nodes = (
"455 -189 LINE",
"455 -333 LINE",
"807 -333 LINE SMOOTH",
"852 -333 OFFCURVE",
"870 -313 OFFCURVE",
"870 -261 CURVE SMOOTH",
"870 -209 OFFCURVE",
"852 -189 OFFCURVE",
"807 -189 CURVE SMOOTH"
);
},
{
closed = 1;
nodes = (
"455 1372 LINE",
"455 1228 LINE",
"807 1228 LINE SMOOTH",
"852 1228 OFFCURVE",
"870 1248 OFFCURVE",
"870 1300 CURVE SMOOTH",
"870 1352 OFFCURVE",
"852 1372 OFFCURVE",
"807 1372 CURVE SMOOTH"
);
}
);
width = 1228;
},
{
layerId = "8538028E-5D6C-4318-9676-30148CDA39CA";
paths = (
{
closed = 1;
nodes = (
"353 1372 LINE SMOOTH",
"308 1372 OFFCURVE",
"290 1354 OFFCURVE",
"290 1309 CURVE SMOOTH",
"290 -270 LINE SMOOTH",
"290 -315 OFFCURVE",
"308 -333 OFFCURVE",
"353 -333 CURVE SMOOTH",
"540 -333 LINE",
"540 1372 LINE"
);
},
{
closed = 1;
nodes = (
"449 -108 LINE",
"449 -333 LINE",
"863 -333 LINE SMOOTH",
"908 -333 OFFCURVE",
"926 -311 OFFCURVE",
"926 -221 CURVE SMOOTH",
"926 -131 OFFCURVE",
"908 -108 OFFCURVE",
"863 -108 CURVE SMOOTH"
);
},
{
closed = 1;
nodes = (
"449 1372 LINE",
"449 1147 LINE",
"863 1147 LINE SMOOTH",
"908 1147 OFFCURVE",
"926 1169 OFFCURVE",
"926 1259 CURVE SMOOTH",
"926 1349 OFFCURVE",
"908 1372 OFFCURVE",
"863 1372 CURVE SMOOTH"
);
}
);
width = 1228;
}
);
unicode = 005B;
}
{
glyphname = bracketright;
layers = (
{
layerId = UUID0;
paths = (
{
closed = 1;
nodes = (
"748 1372 LINE",
"748 -333 LINE",
"835 -333 LINE SMOOTH",
"880 -333 OFFCURVE",
"898 -315 OFFCURVE",
"898 -265 CURVE SMOOTH",
"898 1304 LINE SMOOTH",
"898 1354 OFFCURVE",
"880 1372 OFFCURVE",
"835 1372 CURVE SMOOTH"
);
},
{
closed = 1;
nodes = (
"421 -189 LINE SMOOTH",
"376 -189 OFFCURVE",
"358 -209 OFFCURVE",
"358 -261 CURVE SMOOTH",
"358 -313 OFFCURVE",
"376 -333 OFFCURVE",
"421 -333 CURVE SMOOTH",
"773 -333 LINE",
"773 -189 LINE"
);
},
{
closed = 1;
nodes = (
"421 1372 LINE SMOOTH",
"376 1372 OFFCURVE",
"358 1352 OFFCURVE",
"358 1300 CURVE SMOOTH",
"358 1248 OFFCURVE",
"376 1228 OFFCURVE",
"421 1228 CURVE SMOOTH",
"773 1228 LINE",
"773 1372 LINE"
);
}
);
width = 1228;
},
{
layerId = "8538028E-5D6C-4318-9676-30148CDA39CA";
paths = (
{
closed = 1;
nodes = (
"688 1372 LINE",
"688 -333 LINE",
"875 -333 LINE SMOOTH",
"920 -333 OFFCURVE",
"938 -315 OFFCURVE",
"938 -270 CURVE SMOOTH",
"938 1309 LINE SMOOTH",
"938 1354 OFFCURVE",
"920 1372 OFFCURVE",
"875 1372 CURVE SMOOTH"
);
},
{
closed = 1;
nodes = (
"365 -108 LINE SMOOTH",
"320 -108 OFFCURVE",
"302 -131 OFFCURVE",
"302 -221 CURVE SMOOTH",
"302 -311 OFFCURVE",
"320 -333 OFFCURVE",
"365 -333 CURVE SMOOTH",
"779 -333 LINE",
"779 -108 LINE"
);
},
{
closed = 1;
nodes = (
"365 1372 LINE SMOOTH",
"320 1372 OFFCURVE",
"302 1349 OFFCURVE",
"302 1259 CURVE SMOOTH",
"302 1169 OFFCURVE",
"320 1147 OFFCURVE",
"365 1147 CURVE SMOOTH",
"779 1147 LINE",
"779 1372 LINE"
);
}
);
width = 1228;
}
);
unicode = 005D;
}
{
glyphname = underscore;
layers = (
{
layerId = UUID0;
paths = (
{
closed = 1;
nodes = (
"-5 -252 LINE SMOOTH",
"-20 -252 OFFCURVE",
"-28 -260 OFFCURVE",
"-28 -320 CURVE SMOOTH",
"-28 -380 OFFCURVE",
"-20 -388 OFFCURVE",
"-5 -388 CURVE SMOOTH",
"1233 -388 LINE SMOOTH",
"1248 -388 OFFCURVE",
"1256 -380 OFFCURVE",
"1256 -320 CURVE SMOOTH",
"1256 -260 OFFCURVE",
"1248 -252 OFFCURVE",
"1233 -252 CURVE SMOOTH"
);
}
);
width = 1228;
},
{
layerId = "8538028E-5D6C-4318-9676-30148CDA39CA";
paths = (
{
closed = 1;
nodes = (
"-5 -288 LINE SMOOTH",
"-30 -288 OFFCURVE",
"-38 -306 OFFCURVE",
"-38 -401 CURVE SMOOTH",
"-38 -496 OFFCURVE",
"-30 -513 OFFCURVE",
"-5 -513 CURVE SMOOTH",
"1233 -513 LINE SMOOTH",
"1258 -513 OFFCURVE",
"1266 -496 OFFCURVE",
"1266 -401 CURVE SMOOTH",
"1266 -306 OFFCURVE",
"1258 -288 OFFCURVE",
"1233 -288 CURVE SMOOTH"
);
}
);
width = 1228;
}
);
unicode = 005F;
}
{
glyphname = l;
layers = (
{
layerId = UUID0;
paths = (
{
closed = 1;
nodes = (
"280 1312 LINE SMOOTH",
"235 1312 OFFCURVE",
"217 1294 OFFCURVE",
"217 1244 CURVE SMOOTH",
"217 1194 OFFCURVE",
"235 1176 OFFCURVE",
"280 1176 CURVE SMOOTH",
"553 1176 LINE",
"553 136 LINE",
"240 136 LINE SMOOTH",
"195 136 OFFCURVE",
"177 118 OFFCURVE",
"177 68 CURVE SMOOTH",
"177 18 OFFCURVE",
"195 0 OFFCURVE",
"240 0 CURVE SMOOTH",
"1024 0 LINE SMOOTH",
"1069 0 OFFCURVE",
"1087 18 OFFCURVE",
"1087 68 CURVE SMOOTH",
"1087 118 OFFCURVE",
"1069 136 OFFCURVE",
"1024 136 CURVE SMOOTH",
"703 136 LINE",
"703 1244 LINE SMOOTH",
"703 1294 OFFCURVE",
"685 1312 OFFCURVE",
"640 1312 CURVE SMOOTH"
);
}
);
width = 1228;
},
{
layerId = "8538028E-5D6C-4318-9676-30148CDA39CA";
paths = (
{
closed = 1;
nodes = (
"260 1312 LINE SMOOTH",
"215 1312 OFFCURVE",
"197 1294 OFFCURVE",
"197 1209 CURVE SMOOTH",
"197 1124 OFFCURVE",
"215 1107 OFFCURVE",
"260 1107 CURVE SMOOTH",
"493 1107 LINE",
"493 205 LINE",
"220 205 LINE SMOOTH",
"175 205 OFFCURVE",
"157 187 OFFCURVE",
"157 102 CURVE SMOOTH",
"157 17 OFFCURVE",
"175 0 OFFCURVE",
"220 0 CURVE SMOOTH",
"1024 0 LINE SMOOTH",
"1069 0 OFFCURVE",
"1087 17 OFFCURVE",
"1087 102 CURVE SMOOTH",
"1087 187 OFFCURVE",
"1069 205 OFFCURVE",
"1024 205 CURVE SMOOTH",
"743 205 LINE",
"743 1249 LINE SMOOTH",
"743 1294 OFFCURVE",
"725 1312 OFFCURVE",
"680 1312 CURVE SMOOTH"
);
}
);
width = 1228;
}
);
unicode = 006C;
}
{
glyphname = m;
layers = (
{
layerId = UUID0;
paths = (
{
closed = 1;
nodes = (
"830 946 OFFCURVE",
"752 887 OFFCURVE",
"692 765 CURVE",
"667 888 OFFCURVE",
"591 946 OFFCURVE",
"504 946 CURVE SMOOTH",
"413 946 OFFCURVE",
"329 885 OFFCURVE",
"271 757 CURVE",
"271 856 LINE SMOOTH",
"271 906 OFFCURVE",
"253 924 OFFCURVE",
"208 924 CURVE SMOOTH",
"59 924 LINE SMOOTH",
"14 924 OFFCURVE",
"-4 906 OFFCURVE",
"-4 856 CURVE SMOOTH",
"-4 806 OFFCURVE",
"14 788 OFFCURVE",
"59 788 CURVE SMOOTH",
"141 788 LINE",
"141 65 LINE SMOOTH",
"141 19 OFFCURVE",
"159 0 OFFCURVE",
"215 0 CURVE SMOOTH",
"217 0 LINE SMOOTH",
"273 0 OFFCURVE",
"291 19 OFFCURVE",
"291 65 CURVE SMOOTH",
"291 457 LINE SMOOTH",
"291 659 OFFCURVE",
"370 798 OFFCURVE",
"465 798 CURVE SMOOTH",
"533 798 OFFCURVE",
"560 749 OFFCURVE",
"560 660 CURVE SMOOTH",
"560 68 LINE SMOOTH",
"560 18 OFFCURVE",
"578 0 OFFCURVE",
"623 0 CURVE SMOOTH",
"647 0 LINE SMOOTH",
"692 0 OFFCURVE",
"710 18 OFFCURVE",
"710 68 CURVE SMOOTH",
"710 457 LINE SMOOTH",
"710 659 OFFCURVE",
"789 798 OFFCURVE",
"884 798 CURVE SMOOTH",
"952 798 OFFCURVE",
"979 749 OFFCURVE",
"979 660 CURVE SMOOTH",
"979 68 LINE SMOOTH",
"979 18 OFFCURVE",
"997 0 OFFCURVE",
"1042 0 CURVE SMOOTH",
"1066 0 LINE SMOOTH",
"1111 0 OFFCURVE",
"1129 18 OFFCURVE",
"1129 68 CURVE SMOOTH",
"1129 678 LINE SMOOTH",
"1129 861 OFFCURVE",
"1036 946 OFFCURVE",
"922 946 CURVE SMOOTH"
);
},
{
closed = 1;
nodes = (
"59 136 LINE SMOOTH",
"14 136 OFFCURVE",
"-4 118 OFFCURVE",
"-4 68 CURVE SMOOTH",
"-4 18 OFFCURVE",
"14 0 OFFCURVE",
"59 0 CURVE SMOOTH",
"343 0 LINE SMOOTH",
"388 0 OFFCURVE",
"406 18 OFFCURVE",
"406 68 CURVE SMOOTH",
"406 118 OFFCURVE",
"388 136 OFFCURVE",
"343 136 CURVE SMOOTH"
);
},
{
closed = 1;
nodes = (
"635 136 LINE",
"635 0 LINE",
"767 0 LINE SMOOTH",
"812 0 OFFCURVE",
"830 18 OFFCURVE",
"830 68 CURVE SMOOTH",
"830 118 OFFCURVE",
"812 136 OFFCURVE",
"767 136 CURVE SMOOTH"
);
},
{
closed = 1;
nodes = (
"1054 136 LINE",
"1054 0 LINE",
"1191 0 LINE SMOOTH",
"1236 0 OFFCURVE",
"1254 18 OFFCURVE",
"1254 68 CURVE SMOOTH",
"1254 118 OFFCURVE",
"1236 136 OFFCURVE",
"1191 136 CURVE SMOOTH"
);
}
);
width = 1228;
},
{
layerId = "8538028E-5D6C-4318-9676-30148CDA39CA";
paths = (
{
closed = 1;
nodes = (
"872 946 OFFCURVE",
"789 878 OFFCURVE",
"727 743 CURVE",
"700 871 OFFCURVE",
"640 946 OFFCURVE",
"536 946 CURVE SMOOTH",
"436 946 OFFCURVE",
"349 869 OFFCURVE",
"286 717 CURVE",
"286 861 LINE SMOOTH",
"286 906 OFFCURVE",
"268 924 OFFCURVE",
"223 924 CURVE SMOOTH",
"49 924 LINE SMOOTH",
"4 924 OFFCURVE",
"-14 906 OFFCURVE",
"-14 821 CURVE SMOOTH",
"-14 736 OFFCURVE",
"4 719 OFFCURVE",
"49 719 CURVE SMOOTH",
"106 719 LINE",
"106 63 LINE SMOOTH",
"106 18 OFFCURVE",
"124 0 OFFCURVE",
"169 0 CURVE SMOOTH",
"293 0 LINE SMOOTH",
"338 0 OFFCURVE",
"356 18 OFFCURVE",
"356 63 CURVE SMOOTH",
"356 403 LINE SMOOTH",
"356 595 OFFCURVE",
"397 689 OFFCURVE",
"458 689 CURVE SMOOTH",
"495 689 OFFCURVE",
"510 655 OFFCURVE",
"510 586 CURVE SMOOTH",
"510 63 LINE SMOOTH",
"510 18 OFFCURVE",
"528 0 OFFCURVE",
"573 0 CURVE SMOOTH",
"697 0 LINE SMOOTH",
"742 0 OFFCURVE",
"760 18 OFFCURVE",
"760 63 CURVE SMOOTH",
"760 403 LINE SMOOTH",
"760 595 OFFCURVE",
"801 689 OFFCURVE",
"862 689 CURVE SMOOTH",
"899 689 OFFCURVE",
"914 655 OFFCURVE",
"914 586 CURVE SMOOTH",
"914 63 LINE SMOOTH",
"914 18 OFFCURVE",
"932 0 OFFCURVE",
"977 0 CURVE SMOOTH",
"1101 0 LINE SMOOTH",
"1146 0 OFFCURVE",
"1164 18 OFFCURVE",
"1164 63 CURVE SMOOTH",
"1164 643 LINE SMOOTH",
"1164 855 OFFCURVE",
"1083 946 OFFCURVE",
"966 946 CURVE SMOOTH"
);
},
{
closed = 1;
nodes = (
"173 205 LINE SMOOTH",
"128 205 OFFCURVE",
"110 187 OFFCURVE",
"110 102 CURVE SMOOTH",
"110 17 OFFCURVE",
"128 0 OFFCURVE",
"173 0 CURVE SMOOTH",
"289 0 LINE SMOOTH",
"334 0 OFFCURVE",
"352 17 OFFCURVE",
"352 102 CURVE SMOOTH",
"352 187 OFFCURVE",
"334 205 OFFCURVE",
"289 205 CURVE SMOOTH"
);
},
{
closed = 1;
nodes = (
"607 205 LINE",
"607 0 LINE",
"693 0 LINE SMOOTH",
"738 0 OFFCURVE",
"756 17 OFFCURVE",
"756 102 CURVE SMOOTH",
"756 187 OFFCURVE",
"738 205 OFFCURVE",
"693 205 CURVE SMOOTH"
);
},
{
closed = 1;
nodes = (
"1011 205 LINE",
"1011 0 LINE",
"1097 0 LINE SMOOTH",
"1142 0 OFFCURVE",
"1160 17 OFFCURVE",
"1160 102 CURVE SMOOTH",
"1160 187 OFFCURVE",
"1142 205 OFFCURVE",
"1097 205 CURVE SMOOTH"
);
}
);
width = 1228;
}
);
unicode = 006D;
}
{
glyphname = bar;
layers = (
{
layerId = UUID0;
paths = (
{
closed = 1;
nodes = (
"558 1394 OFFCURVE",
"539 1375 OFFCURVE",
"539 1329 CURVE SMOOTH",
"539 -290 LINE SMOOTH",
"539 -336 OFFCURVE",
"558 -355 OFFCURVE",
"614 -355 CURVE SMOOTH",
"670 -355 OFFCURVE",
"689 -336 OFFCURVE",
"689 -290 CURVE SMOOTH",
"689 1329 LINE SMOOTH",
"689 1375 OFFCURVE",
"670 1394 OFFCURVE",
"614 1394 CURVE SMOOTH"
);
}
);
width = 1228;
},
{
layerId = "8538028E-5D6C-4318-9676-30148CDA39CA";
paths = (
{
closed = 1;
nodes = (
"536 1394 OFFCURVE",
"489 1376 OFFCURVE",
"489 1331 CURVE SMOOTH",
"489 -292 LINE SMOOTH",
"489 -337 OFFCURVE",
"522 -355 OFFCURVE",
"607 -355 CURVE SMOOTH",
"692 -355 OFFCURVE",
"739 -337 OFFCURVE",
"739 -292 CURVE SMOOTH",
"739 1331 LINE SMOOTH",
"739 1376 OFFCURVE",
"706 1394 OFFCURVE",
"621 1394 CURVE SMOOTH"
);
}
);
width = 1228;
}
);
unicode = 007C;
}
{
glyphname = z;
layers = (
{
layerId = UUID0;
paths = (
{
closed = 1;
nodes = (
"261 924 LINE SMOOTH",
"216 924 OFFCURVE",
"198 906 OFFCURVE",
"198 856 CURVE SMOOTH",
"198 639 LINE SMOOTH",
"198 593 OFFCURVE",
"217 574 OFFCURVE",
"273 574 CURVE SMOOTH",
"329 574 OFFCURVE",
"348 593 OFFCURVE",
"348 639 CURVE SMOOTH",
"348 788 LINE",
"803 788 LINE",
"192 113 LINE SMOOTH",
"182 102 OFFCURVE",
"178 87 OFFCURVE",
"178 68 CURVE SMOOTH",
"178 18 OFFCURVE",
"196 0 OFFCURVE",
"241 0 CURVE SMOOTH",
"987 0 LINE SMOOTH",
"1032 0 OFFCURVE",
"1050 18 OFFCURVE",
"1050 68 CURVE SMOOTH",
"1050 308 LINE SMOOTH",
"1050 354 OFFCURVE",
"1031 373 OFFCURVE",
"975 373 CURVE SMOOTH",
"919 373 OFFCURVE",
"900 354 OFFCURVE",
"900 308 CURVE SMOOTH",
"900 136 LINE",
"415 136 LINE",
"1025 810 LINE SMOOTH",
"1034 820 OFFCURVE",
"1040 835 OFFCURVE",
"1040 856 CURVE SMOOTH",
"1040 906 OFFCURVE",
"1022 924 OFFCURVE",
"977 924 CURVE SMOOTH"
);
}
);
width = 1228;
},
{
layerId = "8538028E-5D6C-4318-9676-30148CDA39CA";
paths = (
{
closed = 1;
nodes = (
"223 924 LINE SMOOTH",
"177 924 OFFCURVE",
"158 905 OFFCURVE",
"158 859 CURVE SMOOTH",
"158 605 LINE SMOOTH",
"158 560 OFFCURVE",
"171 542 OFFCURVE",
"266 542 CURVE SMOOTH",
"361 542 OFFCURVE",
"388 560 OFFCURVE",
"388 605 CURVE SMOOTH",
"388 719 LINE",
"693 719 LINE",
"170 184 LINE SMOOTH",
"146 159 OFFCURVE",
"138 138 OFFCURVE",
"138 102 CURVE SMOOTH",
"138 17 OFFCURVE",
"156 0 OFFCURVE",
"201 0 CURVE SMOOTH",
"1015 0 LINE SMOOTH",
"1061 0 OFFCURVE",
"1080 19 OFFCURVE",
"1080 65 CURVE SMOOTH",
"1080 329 LINE SMOOTH",
"1080 374 OFFCURVE",
"1067 392 OFFCURVE",
"972 392 CURVE SMOOTH",
"877 392 OFFCURVE",
"850 374 OFFCURVE",
"850 329 CURVE SMOOTH",
"850 205 LINE",
"525 205 LINE",
"1048 740 LINE SMOOTH",
"1072 765 OFFCURVE",
"1080 786 OFFCURVE",
"1080 822 CURVE SMOOTH",
"1080 907 OFFCURVE",
"1062 924 OFFCURVE",
"1017 924 CURVE SMOOTH"
);
}
);
width = 1228;
}
);
unicode = 007A;
}
{
color = 3;
glyphname = eng;
layers = (
{
background = {
components = (
{
name = n;
}
);
paths = (
{
closed = 1;
nodes = (
"874 198 LINE",
"874 -107 LINE SMOOTH",
"874 -220 OFFCURVE",
"834 -264 OFFCURVE",
"752 -264 CURVE SMOOTH",
"692 -264 OFFCURVE",
"628 -246 OFFCURVE",
"575 -224 CURVE SMOOTH",
"546 -212 OFFCURVE",
"515 -212 OFFCURVE",
"492 -265 CURVE SMOOTH",
"470 -315 OFFCURVE",
"482 -343 OFFCURVE",
"520 -360 CURVE SMOOTH",
"588 -390 OFFCURVE",
"671 -410 OFFCURVE",
"751 -410 CURVE SMOOTH",
"927 -410 OFFCURVE",
"1024 -314 OFFCURVE",
"1024 -135 CURVE SMOOTH",
"1024 198 LINE"
);
}
);
};
layerId = UUID0;
paths = (
{
closed = 1;
nodes = (
"611 946 OFFCURVE",
"490 872 OFFCURVE",
"402 736 CURVE",
"402 856 LINE SMOOTH",
"402 906 OFFCURVE",
"384 924 OFFCURVE",
"339 924 CURVE SMOOTH",
"160 924 LINE SMOOTH",
"115 924 OFFCURVE",
"97 906 OFFCURVE",
"97 856 CURVE SMOOTH",
"97 806 OFFCURVE",
"115 788 OFFCURVE",
"160 788 CURVE SMOOTH",
"262 788 LINE",
"262 136 LINE",
"180 136 LINE SMOOTH",
"135 136 OFFCURVE",
"117 118 OFFCURVE",
"117 68 CURVE SMOOTH",
"117 18 OFFCURVE",
"135 0 OFFCURVE",
"180 0 CURVE SMOOTH",
"504 0 LINE SMOOTH",
"549 0 OFFCURVE",
"567 18 OFFCURVE",
"567 68 CURVE SMOOTH",
"567 118 OFFCURVE",
"549 136 OFFCURVE",
"504 136 CURVE SMOOTH",
"412 136 LINE",
"412 422 LINE SMOOTH",
"412 640 OFFCURVE",
"561 798 OFFCURVE",
"732 798 CURVE SMOOTH",
"841 798 OFFCURVE",
"894 720 OFFCURVE",
"894 605 CURVE SMOOTH",
"894 -107 LINE SMOOTH",
"894 -220 OFFCURVE",
"854 -264 OFFCURVE",
"772 -264 CURVE SMOOTH",
"712 -264 OFFCURVE",
"648 -246 OFFCURVE",
"595 -224 CURVE SMOOTH",
"566 -212 OFFCURVE",
"535 -212 OFFCURVE",
"512 -265 CURVE SMOOTH",
"490 -315 OFFCURVE",
"502 -343 OFFCURVE",
"540 -360 CURVE SMOOTH",
"608 -390 OFFCURVE",
"691 -410 OFFCURVE",
"771 -410 CURVE SMOOTH",
"947 -410 OFFCURVE",
"1044 -314 OFFCURVE",
"1044 -135 CURVE SMOOTH",
"1044 620 LINE SMOOTH",
"1044 820 OFFCURVE",
"931 946 OFFCURVE",
"747 946 CURVE SMOOTH"
);
}
);
width = 1228;
},
{
background = {
components = (
{
name = n;
}
);
paths = (
{
closed = 1;
nodes = (
"809 336 LINE",
"809 -39 LINE SMOOTH",
"809 -135 OFFCURVE",
"771 -173 OFFCURVE",
"690 -173 CURVE SMOOTH",
"653 -173 OFFCURVE",
"597 -162 OFFCURVE",
"549 -147 CURVE SMOOTH",
"508 -134 OFFCURVE",
"476 -153 OFFCURVE",
"455 -235 CURVE SMOOTH",
"434 -319 OFFCURVE",
"444 -353 OFFCURVE",
"488 -370 CURVE SMOOTH",
"556 -396 OFFCURVE",
"632 -410 OFFCURVE",
"697 -410 CURVE SMOOTH",
"936 -410 OFFCURVE",
"1059 -292 OFFCURVE",
"1059 -55 CURVE SMOOTH",
"1059 336 LINE"
);
}
);
};
layerId = "8538028E-5D6C-4318-9676-30148CDA39CA";
paths = (
{
closed = 1;
nodes = (
"662 946 OFFCURVE",
"550 878 OFFCURVE",
"457 716 CURVE",
"457 861 LINE SMOOTH",
"457 906 OFFCURVE",
"439 924 OFFCURVE",
"394 924 CURVE SMOOTH",
"150 924 LINE SMOOTH",
"105 924 OFFCURVE",
"87 906 OFFCURVE",
"87 821 CURVE SMOOTH",
"87 736 OFFCURVE",
"105 719 OFFCURVE",
"150 719 CURVE SMOOTH",
"247 719 LINE",
"247 205 LINE",
"170 205 LINE SMOOTH",
"125 205 OFFCURVE",
"107 187 OFFCURVE",
"107 102 CURVE SMOOTH",
"107 17 OFFCURVE",
"125 0 OFFCURVE",
"170 0 CURVE SMOOTH",
"544 0 LINE SMOOTH",
"589 0 OFFCURVE",
"607 17 OFFCURVE",
"607 102 CURVE SMOOTH",
"607 187 OFFCURVE",
"589 205 OFFCURVE",
"544 205 CURVE SMOOTH",
"497 205 LINE",
"497 368 LINE SMOOTH",
"497 556 OFFCURVE",
"603 719 OFFCURVE",
"722 719 CURVE SMOOTH",
"810 719 OFFCURVE",
"839 659 OFFCURVE",
"839 561 CURVE SMOOTH",
"839 -39 LINE SMOOTH",
"839 -135 OFFCURVE",
"801 -173 OFFCURVE",
"720 -173 CURVE SMOOTH",
"683 -173 OFFCURVE",
"627 -162 OFFCURVE",
"579 -147 CURVE SMOOTH",
"538 -134 OFFCURVE",
"506 -153 OFFCURVE",
"485 -235 CURVE SMOOTH",
"464 -319 OFFCURVE",
"474 -353 OFFCURVE",
"518 -370 CURVE SMOOTH",
"586 -396 OFFCURVE",
"662 -410 OFFCURVE",
"727 -410 CURVE SMOOTH",
"966 -410 OFFCURVE",
"1089 -292 OFFCURVE",
"1089 -55 CURVE SMOOTH",
"1089 620 LINE SMOOTH",
"1089 820 OFFCURVE",
"971 946 OFFCURVE",
"787 946 CURVE SMOOTH"
);
}
);
width = 1228;
}
);
unicode = 014B;
}
{
color = 6;
glyphname = scedilla;
layers = (
{
background = {
paths = (
{
closed = 1;
nodes = (
"559 -175 LINE SMOOTH",
"559 -213 OFFCURVE",
"580 -218 OFFCURVE",
"599 -217 CURVE SMOOTH",
"691 -210 OFFCURVE",
"744 -229 OFFCURVE",
"744 -285 CURVE SMOOTH",
"744 -327 OFFCURVE",
"707 -352 OFFCURVE",
"641 -352 CURVE SMOOTH",
"574 -352 OFFCURVE",
"500 -338 OFFCURVE",
"448 -318 CURVE SMOOTH",
"423 -308 OFFCURVE",
"400 -330 OFFCURVE",
"389 -356 CURVE SMOOTH",
"378 -382 OFFCURVE",
"380 -413 OFFCURVE",
"404 -424 CURVE SMOOTH",
"473 -456 OFFCURVE",
"562 -472 OFFCURVE",
"651 -472 CURVE SMOOTH",
"818 -472 OFFCURVE",
"900 -393 OFFCURVE",
"900 -281 CURVE SMOOTH",
"900 -187 OFFCURVE",
"832 -110 OFFCURVE",
"694 -113 CURVE",
"694 -21 LINE",
"923 -11 OFFCURVE",
"1050 106 OFFCURVE",
"1050 277 CURVE SMOOTH",
"1050 404 OFFCURVE",
"979 470 OFFCURVE",
"881 506 CURVE SMOOTH",
"736 559 OFFCURVE",
"534 549 OFFCURVE",
"423 585 CURVE SMOOTH",
"373 601 OFFCURVE",
"342 626 OFFCURVE",
"342 670 CURVE SMOOTH",
"342 753 OFFCURVE",
"419 801 OFFCURVE",
"548 801 CURVE SMOOTH",
"704 801 OFFCURVE",
"821 768 OFFCURVE",
"881 652 CURVE SMOOTH",
"890 635 OFFCURVE",
"905 626 OFFCURVE",
"929 626 CURVE SMOOTH",
"985 626 OFFCURVE",
"1004 645 OFFCURVE",
"1004 691 CURVE SMOOTH",
"1004 881 LINE SMOOTH",
"1004 927 OFFCURVE",
"985 946 OFFCURVE",
"929 946 CURVE SMOOTH",
"873 946 OFFCURVE",
"854 927 OFFCURVE",
"854 881 CURVE SMOOTH",
"854 836 LINE",
"779 904 OFFCURVE",
"670 946 OFFCURVE",
"538 946 CURVE SMOOTH",
"336 946 OFFCURVE",
"184 849 OFFCURVE",
"184 670 CURVE SMOOTH",
"184 553 OFFCURVE",
"248 491 OFFCURVE",
"338 455 CURVE SMOOTH",
"482 398 OFFCURVE",
"691 408 OFFCURVE",
"807 369 CURVE SMOOTH",
"859 352 OFFCURVE",
"892 325 OFFCURVE",
"892 277 CURVE SMOOTH",
"892 186 OFFCURVE",
"811 123 OFFCURVE",
"652 123 CURVE SMOOTH",
"467 123 OFFCURVE",
"357 178 OFFCURVE",
"308 307 CURVE SMOOTH",
"297 335 OFFCURVE",
"283 348 OFFCURVE",
"254 348 CURVE SMOOTH",
"198 348 OFFCURVE",
"179 329 OFFCURVE",
"179 283 CURVE SMOOTH",
"179 43 LINE SMOOTH",
"179 -3 OFFCURVE",
"198 -22 OFFCURVE",
"254 -22 CURVE SMOOTH",
"310 -22 OFFCURVE",
"329 -3 OFFCURVE",
"329 43 CURVE SMOOTH",
"329 99 LINE",
"389 38 OFFCURVE",
"464 0 OFFCURVE",
"559 -14 CURVE"
);
}
);
};
components = (
{
alignment = -1;
name = s;
},
{
alignment = -1;
name = cedilla;
transform = "{1, 0, 0, 1, 30, 0}";
}
);
layerId = UUID0;
width = 1228;
},
{
components = (
{
alignment = -1;
name = s;
},
{
alignment = -1;
name = cedilla;
transform = "{1, 0, 0, 1, 30, 0}";
}
);
layerId = "8538028E-5D6C-4318-9676-30148CDA39CA";
width = 1228;
}
);
unicode = 015F;
}
{
glyphname = euro;
layers = (
{
layerId = UUID0;
paths = (
{
closed = 1;
nodes = (
"963 1209 OFFCURVE",
"944 1190 OFFCURVE",
"944 1144 CURVE SMOOTH",
"944 1087 LINE",
"881 1163 OFFCURVE",
"789 1209 OFFCURVE",
"674 1209 CURVE SMOOTH",
"452 1209 OFFCURVE",
"300 1060 OFFCURVE",
"243 820 CURVE",
"143 820 LINE SMOOTH",
"98 820 OFFCURVE",
"80 802 OFFCURVE",
"80 752 CURVE SMOOTH",
"80 702 OFFCURVE",
"98 684 OFFCURVE",
"143 684 CURVE SMOOTH",
"224 684 LINE",
"219 634 OFFCURVE",
"218 564 OFFCURVE",
"223 510 CURVE",
"143 510 LINE SMOOTH",
"98 510 OFFCURVE",
"80 492 OFFCURVE",
"80 442 CURVE SMOOTH",
"80 392 OFFCURVE",
"98 374 OFFCURVE",
"143 374 CURVE SMOOTH",
"240 374 LINE",
"293 129 OFFCURVE",
"442 -22 OFFCURVE",
"674 -22 CURVE SMOOTH",
"816 -22 OFFCURVE",
"956 21 OFFCURVE",
"1082 109 CURVE SMOOTH",
"1117 134 OFFCURVE",
"1123 167 OFFCURVE",
"1095 214 CURVE SMOOTH",
"1066 263 OFFCURVE",
"1032 260 OFFCURVE",
"1005 239 CURVE SMOOTH",
"909 165 OFFCURVE",
"796 126 OFFCURVE",
"674 126 CURVE SMOOTH",
"533 126 OFFCURVE",
"442 217 OFFCURVE",
"401 374 CURVE",
"695 374 LINE SMOOTH",
"740 374 OFFCURVE",
"758 392 OFFCURVE",
"758 442 CURVE SMOOTH",
"758 492 OFFCURVE",
"740 510 OFFCURVE",
"695 510 CURVE SMOOTH",
"381 510 LINE",
"376 565 OFFCURVE",
"377 628 OFFCURVE",
"382 684 CURVE",
"695 684 LINE SMOOTH",
"740 684 OFFCURVE",
"758 702 OFFCURVE",
"758 752 CURVE SMOOTH",
"758 802 OFFCURVE",
"740 820 OFFCURVE",
"695 820 CURVE SMOOTH",
"405 820 LINE",
"450 972 OFFCURVE",
"546 1061 OFFCURVE",
"684 1061 CURVE SMOOTH",
"857 1061 OFFCURVE",
"944 945 OFFCURVE",
"944 814 CURVE SMOOTH",
"944 768 OFFCURVE",
"963 749 OFFCURVE",
"1019 749 CURVE SMOOTH",
"1075 749 OFFCURVE",
"1094 768 OFFCURVE",
"1094 814 CURVE SMOOTH",
"1094 1144 LINE SMOOTH",
"1094 1190 OFFCURVE",
"1075 1209 OFFCURVE",
"1019 1209 CURVE SMOOTH"
);
}
);
width = 1228;
},
{
layerId = "8538028E-5D6C-4318-9676-30148CDA39CA";
paths = (
{
closed = 1;
nodes = (
"931 1209 OFFCURVE",
"894 1191 OFFCURVE",
"894 1146 CURVE SMOOTH",
"894 1084 LINE",
"843 1161 OFFCURVE",
"761 1209 OFFCURVE",
"644 1209 CURVE SMOOTH",
"434 1209 OFFCURVE",
"279 1076 OFFCURVE",
"215 850 CURVE",
"123 850 LINE SMOOTH",
"78 850 OFFCURVE",
"60 832 OFFCURVE",
"60 757 CURVE SMOOTH",
"60 682 OFFCURVE",
"78 665 OFFCURVE",
"123 665 CURVE SMOOTH",
"190 665 LINE",
"186 616 OFFCURVE",
"186 569 OFFCURVE",
"190 522 CURVE",
"123 522 LINE SMOOTH",
"78 522 OFFCURVE",
"60 504 OFFCURVE",
"60 429 CURVE SMOOTH",
"60 354 OFFCURVE",
"78 337 OFFCURVE",
"123 337 CURVE SMOOTH",
"216 337 LINE",
"281 110 OFFCURVE",
"441 -22 OFFCURVE",
"674 -22 CURVE SMOOTH",
"806 -22 OFFCURVE",
"952 15 OFFCURVE",
"1091 84 CURVE SMOOTH",
"1134 105 OFFCURVE",
"1152 144 OFFCURVE",
"1123 225 CURVE SMOOTH",
"1094 304 OFFCURVE",
"1055 320 OFFCURVE",
"1015 300 CURVE SMOOTH",
"899 241 OFFCURVE",
"797 205 OFFCURVE",
"684 205 CURVE SMOOTH",
"588 205 OFFCURVE",
"526 251 OFFCURVE",
"490 337 CURVE",
"675 337 LINE SMOOTH",
"720 337 OFFCURVE",
"738 354 OFFCURVE",
"738 429 CURVE SMOOTH",
"738 504 OFFCURVE",
"720 522 OFFCURVE",
"675 522 CURVE SMOOTH",
"458 522 LINE",
"453 571 OFFCURVE",
"453 619 OFFCURVE",
"457 665 CURVE",
"675 665 LINE SMOOTH",
"720 665 OFFCURVE",
"738 682 OFFCURVE",
"738 757 CURVE SMOOTH",
"738 832 OFFCURVE",
"720 850 OFFCURVE",
"675 850 CURVE SMOOTH",
"486 850 LINE",
"519 936 OFFCURVE",
"578 982 OFFCURVE",
"674 982 CURVE SMOOTH",
"802 982 OFFCURVE",
"874 891 OFFCURVE",
"874 762 CURVE SMOOTH",
"874 717 OFFCURVE",
"897 699 OFFCURVE",
"992 699 CURVE SMOOTH",
"1087 699 OFFCURVE",
"1124 717 OFFCURVE",
"1124 762 CURVE SMOOTH",
"1124 1146 LINE SMOOTH",
"1124 1191 OFFCURVE",
"1101 1209 OFFCURVE",
"1016 1209 CURVE SMOOTH"
);
}
);
width = 1228;
}
);
unicode = 20AC;
}
{
glyphname = won;
layers = (
{
components = (
{
name = W;
}
);
layerId = UUID0;
paths = (
{
closed = 1;
nodes = (
"33 750 LINE SMOOTH",
"-12 750 OFFCURVE",
"-30 732 OFFCURVE",
"-30 682 CURVE SMOOTH",
"-30 632 OFFCURVE",
"-12 614 OFFCURVE",
"33 614 CURVE SMOOTH",
"558 614 LINE",
"612 664 LINE",
"674 614 LINE",
"1195 614 LINE SMOOTH",
"1240 614 OFFCURVE",
"1258 632 OFFCURVE",
"1258 682 CURVE SMOOTH",
"1258 732 OFFCURVE",
"1240 750 OFFCURVE",
"1195 750 CURVE SMOOTH"
);
}
);
width = 1228;
},
{
components = (
{
name = W;
}
);
layerId = "8538028E-5D6C-4318-9676-30148CDA39CA";
paths = (
{
closed = 1;
nodes = (
"33 764 LINE SMOOTH",
"-12 764 OFFCURVE",
"-30 750 OFFCURVE",
"-30 671 CURVE SMOOTH",
"-30 593 OFFCURVE",
"-12 579 OFFCURVE",
"33 579 CURVE SMOOTH",
"541 579 LINE",
"607 579 LINE",
"679 579 LINE",
"1195 579 LINE SMOOTH",
"1240 579 OFFCURVE",
"1258 593 OFFCURVE",
"1258 671 CURVE SMOOTH",
"1258 750 OFFCURVE",
"1240 764 OFFCURVE",
"1195 764 CURVE SMOOTH"
);
}
);
width = 1228;
}
);
unicode = 20A9;
}
{
glyphname = exclam;
layers = (
{
layerId = UUID0;
paths = (
{
closed = 1;
nodes = (
"549 1269 LINE SMOOTH",
"519 1269 OFFCURVE",
"505 1254 OFFCURVE",
"508 1219 CURVE SMOOTH",
"556 512 LINE SMOOTH",
"558 481 OFFCURVE",
"580 464 OFFCURVE",
"614 464 CURVE SMOOTH",
"649 464 OFFCURVE",
"669 481 OFFCURVE",
"671 512 CURVE SMOOTH",
"720 1219 LINE SMOOTH",
"723 1254 OFFCURVE",
"709 1269 OFFCURVE",
"679 1269 CURVE SMOOTH"
);
},
{
closed = 1;
nodes = (
"526 270 OFFCURVE",
"489 252 OFFCURVE",
"489 207 CURVE SMOOTH",
"489 53 LINE SMOOTH",
"489 8 OFFCURVE",
"526 -10 OFFCURVE",
"614 -10 CURVE SMOOTH",
"702 -10 OFFCURVE",
"739 8 OFFCURVE",
"739 53 CURVE SMOOTH",
"739 207 LINE SMOOTH",
"739 252 OFFCURVE",
"702 270 OFFCURVE",
"614 270 CURVE SMOOTH"
);
}
);
width = 1228;
},
{
layerId = "8538028E-5D6C-4318-9676-30148CDA39CA";
paths = (
{
closed = 1;
nodes = (
"499 1269 LINE SMOOTH",
"469 1269 OFFCURVE",
"455 1254 OFFCURVE",
"458 1219 CURVE SMOOTH",
"515 562 LINE SMOOTH",
"518 524 OFFCURVE",
"550 504 OFFCURVE",
"614 504 CURVE SMOOTH",
"678 504 OFFCURVE",
"710 524 OFFCURVE",
"713 562 CURVE SMOOTH",
"770 1219 LINE SMOOTH",
"773 1254 OFFCURVE",
"759 1269 OFFCURVE",
"729 1269 CURVE SMOOTH"
);
},
{
closed = 1;
nodes = (
"505 330 OFFCURVE",
"459 312 OFFCURVE",
"459 267 CURVE SMOOTH",
"459 53 LINE SMOOTH",
"459 8 OFFCURVE",
"505 -10 OFFCURVE",
"614 -10 CURVE SMOOTH",
"723 -10 OFFCURVE",
"769 8 OFFCURVE",
"769 53 CURVE SMOOTH",
"769 267 LINE SMOOTH",
"769 312 OFFCURVE",
"723 330 OFFCURVE",
"614 330 CURVE SMOOTH"
);
}
);
width = 1228;
}
);
unicode = 0021;
}
{
glyphname = numbersign;
layers = (
{
layerId = UUID0;
paths = (
{
closed = 1;
nodes = (
"926 1209 OFFCURVE",
"902 1199 OFFCURVE",
"896 1176 CURVE SMOOTH",
"602 45 LINE SMOOTH",
"591 3 OFFCURVE",
"633 -22 OFFCURVE",
"672 -22 CURVE SMOOTH",
"696 -22 OFFCURVE",
"720 -12 OFFCURVE",
"726 11 CURVE SMOOTH",
"1020 1142 LINE SMOOTH",
"1031 1184 OFFCURVE",
"989 1209 OFFCURVE",
"950 1209 CURVE SMOOTH"
);
},
{
closed = 1;
nodes = (
"123 476 LINE SMOOTH",
"78 476 OFFCURVE",
"60 456 OFFCURVE",
"60 404 CURVE SMOOTH",
"60 352 OFFCURVE",
"78 332 OFFCURVE",
"123 332 CURVE SMOOTH",
"1035 332 LINE SMOOTH",
"1080 332 OFFCURVE",
"1098 352 OFFCURVE",
"1098 404 CURVE SMOOTH",
"1098 456 OFFCURVE",
"1080 476 OFFCURVE",
"1035 476 CURVE SMOOTH"
);
},
{
closed = 1;
nodes = (
"532 1209 OFFCURVE",
"508 1199 OFFCURVE",
"502 1176 CURVE SMOOTH",
"208 45 LINE SMOOTH",
"197 3 OFFCURVE",
"239 -22 OFFCURVE",
"278 -22 CURVE SMOOTH",
"302 -22 OFFCURVE",
"326 -12 OFFCURVE",
"332 11 CURVE SMOOTH",
"626 1142 LINE SMOOTH",
"637 1184 OFFCURVE",
"595 1209 OFFCURVE",
"556 1209 CURVE SMOOTH"
);
},
{
closed = 1;
nodes = (
"193 865 LINE SMOOTH",
"148 865 OFFCURVE",
"130 845 OFFCURVE",
"130 793 CURVE SMOOTH",
"130 741 OFFCURVE",
"148 721 OFFCURVE",
"193 721 CURVE SMOOTH",
"1105 721 LINE SMOOTH",
"1150 721 OFFCURVE",
"1168 741 OFFCURVE",
"1168 793 CURVE SMOOTH",
"1168 845 OFFCURVE",
"1150 865 OFFCURVE",
"1105 865 CURVE SMOOTH"
);
}
);
width = 1228;
},
{
layerId = "8538028E-5D6C-4318-9676-30148CDA39CA";
paths = (
{
closed = 1;
nodes = (
"916 1209 OFFCURVE",
"882 1199 OFFCURVE",
"876 1176 CURVE SMOOTH",
"582 45 LINE SMOOTH",
"571 4 OFFCURVE",
"639 -22 OFFCURVE",
"699 -22 CURVE SMOOTH",
"736 -22 OFFCURVE",
"770 -12 OFFCURVE",
"776 11 CURVE SMOOTH",
"1070 1142 LINE SMOOTH",
"1081 1183 OFFCURVE",
"1013 1209 OFFCURVE",
"953 1209 CURVE SMOOTH"
);
},
{
closed = 1;
nodes = (
"113 482 LINE SMOOTH",
"68 482 OFFCURVE",
"50 464 OFFCURVE",
"50 369 CURVE SMOOTH",
"50 274 OFFCURVE",
"68 257 OFFCURVE",
"113 257 CURVE SMOOTH",
"1025 257 LINE SMOOTH",
"1070 257 OFFCURVE",
"1088 274 OFFCURVE",
"1088 369 CURVE SMOOTH",
"1088 464 OFFCURVE",
"1070 482 OFFCURVE",
"1025 482 CURVE SMOOTH"
);
},
{
closed = 1;
nodes = (
"492 1209 OFFCURVE",
"458 1199 OFFCURVE",
"452 1176 CURVE SMOOTH",
"158 45 LINE SMOOTH",
"147 4 OFFCURVE",
"215 -22 OFFCURVE",
"275 -22 CURVE SMOOTH",
"312 -22 OFFCURVE",
"346 -12 OFFCURVE",
"352 11 CURVE SMOOTH",
"646 1142 LINE SMOOTH",
"657 1183 OFFCURVE",
"589 1209 OFFCURVE",
"529 1209 CURVE SMOOTH"
);
},
{
closed = 1;
nodes = (
"203 940 LINE SMOOTH",
"158 940 OFFCURVE",
"140 922 OFFCURVE",
"140 827 CURVE SMOOTH",
"140 732 OFFCURVE",
"158 715 OFFCURVE",
"203 715 CURVE SMOOTH",
"1115 715 LINE SMOOTH",
"1160 715 OFFCURVE",
"1178 732 OFFCURVE",
"1178 827 CURVE SMOOTH",
"1178 922 OFFCURVE",
"1160 940 OFFCURVE",
"1115 940 CURVE SMOOTH"
);
}
);
width = 1228;
}
);
unicode = 0023;
}
{
glyphname = dollar;
layers = (
{
layerId = UUID0;
paths = (
{
closed = 1;
nodes = (
"559 1312 OFFCURVE",
"538 1293 OFFCURVE",
"538 1247 CURVE SMOOTH",
"538 1086 LINE",
"336 1086 OFFCURVE",
"184 989 OFFCURVE",
"184 810 CURVE SMOOTH",
"184 693 OFFCURVE",
"248 631 OFFCURVE",
"338 595 CURVE SMOOTH",
"397 571 OFFCURVE",
"467 559 OFFCURVE",
"538 550 CURVE",
"538 271 LINE",
"420 291 OFFCURVE",
"346 347 OFFCURVE",
"308 447 CURVE SMOOTH",
"297 475 OFFCURVE",
"283 488 OFFCURVE",
"254 488 CURVE SMOOTH",
"198 488 OFFCURVE",
"179 469 OFFCURVE",
"179 423 CURVE SMOOTH",
"179 183 LINE SMOOTH",
"179 137 OFFCURVE",
"198 118 OFFCURVE",
"254 118 CURVE SMOOTH",
"310 118 OFFCURVE",
"329 137 OFFCURVE",
"329 183 CURVE SMOOTH",
"329 239 LINE",
"385 183 OFFCURVE",
"453 146 OFFCURVE",
"538 129 CURVE",
"538 -60 LINE SMOOTH",
"538 -106 OFFCURVE",
"559 -125 OFFCURVE",
"608 -125 CURVE SMOOTH",
"657 -125 OFFCURVE",
"678 -106 OFFCURVE",
"678 -60 CURVE SMOOTH",
"678 118 LINE",
"917 123 OFFCURVE",
"1050 242 OFFCURVE",
"1050 417 CURVE SMOOTH",
"1050 544 OFFCURVE",
"979 610 OFFCURVE",
"881 646 CURVE SMOOTH",
"820 668 OFFCURVE",
"748 680 OFFCURVE",
"678 688 CURVE",
"678 935 LINE",
"769 918 OFFCURVE",
"839 873 OFFCURVE",
"881 792 CURVE SMOOTH",
"890 775 OFFCURVE",
"905 766 OFFCURVE",
"929 766 CURVE SMOOTH",
"985 766 OFFCURVE",
"1004 785 OFFCURVE",
"1004 831 CURVE SMOOTH",
"1004 1021 LINE SMOOTH",
"1004 1067 OFFCURVE",
"985 1086 OFFCURVE",
"929 1086 CURVE SMOOTH",
"873 1086 OFFCURVE",
"854 1067 OFFCURVE",
"854 1021 CURVE SMOOTH",
"854 976 LINE",
"807 1018 OFFCURVE",
"748 1055 OFFCURVE",
"678 1073 CURVE",
"678 1247 LINE SMOOTH",
"678 1293 OFFCURVE",
"657 1312 OFFCURVE",
"608 1312 CURVE SMOOTH"
);
},
{
closed = 1;
nodes = (
"727 528 OFFCURVE",
"771 521 OFFCURVE",
"807 509 CURVE SMOOTH",
"859 492 OFFCURVE",
"892 465 OFFCURVE",
"892 417 CURVE SMOOTH",
"892 331 OFFCURVE",
"820 270 OFFCURVE",
"678 263 CURVE",
"678 534 LINE"
);
},
{
closed = 1;
nodes = (
"538 702 LINE",
"494 708 OFFCURVE",
"455 714 OFFCURVE",
"423 725 CURVE SMOOTH",
"373 741 OFFCURVE",
"342 766 OFFCURVE",
"342 810 CURVE SMOOTH",
"342 891 OFFCURVE",
"415 938 OFFCURVE",
"538 941 CURVE"
);
}
);
width = 1228;
},
{
layerId = "8538028E-5D6C-4318-9676-30148CDA39CA";
paths = (
{
closed = 1;
nodes = (
"533 1312 OFFCURVE",
"515 1294 OFFCURVE",
"515 1249 CURVE SMOOTH",
"515 1086 LINE",
"314 1082 OFFCURVE",
"164 975 OFFCURVE",
"164 800 CURVE SMOOTH",
"164 676 OFFCURVE",
"222 604 OFFCURVE",
"302 560 CURVE SMOOTH",
"364 525 OFFCURVE",
"440 508 OFFCURVE",
"515 496 CURVE",
"515 335 LINE",
"452 353 OFFCURVE",
"395 386 OFFCURVE",
"353 439 CURVE SMOOTH",
"339 457 OFFCURVE",
"314 467 OFFCURVE",
"270 467 CURVE SMOOTH",
"205 467 OFFCURVE",
"174 449 OFFCURVE",
"174 404 CURVE SMOOTH",
"174 181 LINE SMOOTH",
"174 136 OFFCURVE",
"207 118 OFFCURVE",
"292 118 CURVE SMOOTH",
"377 118 OFFCURVE",
"414 136 OFFCURVE",
"414 181 CURVE SMOOTH",
"414 189 LINE",
"445 170 OFFCURVE",
"478 154 OFFCURVE",
"515 142 CURVE",
"515 -62 LINE SMOOTH",
"515 -107 OFFCURVE",
"533 -125 OFFCURVE",
"608 -125 CURVE SMOOTH",
"683 -125 OFFCURVE",
"701 -107 OFFCURVE",
"701 -62 CURVE SMOOTH",
"701 118 LINE",
"938 127 OFFCURVE",
"1070 245 OFFCURVE",
"1070 427 CURVE SMOOTH",
"1070 564 OFFCURVE",
"997 635 OFFCURVE",
"900 675 CURVE SMOOTH",
"839 700 OFFCURVE",
"769 713 OFFCURVE",
"701 721 CURVE",
"701 867 LINE",
"760 849 OFFCURVE",
"813 819 OFFCURVE",
"859 770 CURVE SMOOTH",
"873 755 OFFCURVE",
"897 749 OFFCURVE",
"932 749 CURVE SMOOTH",
"997 749 OFFCURVE",
"1024 767 OFFCURVE",
"1024 812 CURVE SMOOTH",
"1024 1023 LINE SMOOTH",
"1024 1068 OFFCURVE",
"991 1086 OFFCURVE",
"906 1086 CURVE SMOOTH",
"821 1086 OFFCURVE",
"794 1068 OFFCURVE",
"794 1023 CURVE SMOOTH",
"794 1013 LINE",
"765 1031 OFFCURVE",
"734 1046 OFFCURVE",
"701 1058 CURVE",
"701 1249 LINE SMOOTH",
"701 1294 OFFCURVE",
"683 1312 OFFCURVE",
"608 1312 CURVE SMOOTH"
);
},
{
closed = 1;
nodes = (
"730 469 OFFCURVE",
"752 463 OFFCURVE",
"770 455 CURVE SMOOTH",
"798 441 OFFCURVE",
"812 423 OFFCURVE",
"812 401 CURVE SMOOTH",
"812 356 OFFCURVE",
"777 328 OFFCURVE",
"701 320 CURVE",
"701 473 LINE"
);
},
{
closed = 1;
nodes = (
"515 742 LINE",
"495 745 OFFCURVE",
"474 750 OFFCURVE",
"458 758 CURVE SMOOTH",
"437 769 OFFCURVE",
"422 785 OFFCURVE",
"422 809 CURVE SMOOTH",
"422 847 OFFCURVE",
"455 876 OFFCURVE",
"515 884 CURVE"
);
}
);
width = 1228;
}
);
unicode = 0024;
}
{
glyphname = ampersand;
layers = (
{
layerId = UUID0;
paths = (
{
closed = 1;
nodes = (
"373 1209 OFFCURVE",
"243 1068 OFFCURVE",
"243 890 CURVE SMOOTH",
"243 785 OFFCURVE",
"284 702 OFFCURVE",
"342 634 CURVE",
"225 553 OFFCURVE",
"147 451 OFFCURVE",
"147 310 CURVE SMOOTH",
"147 131 OFFCURVE",
"270 -22 OFFCURVE",
"486 -22 CURVE SMOOTH",
"607 -22 OFFCURVE",
"709 35 OFFCURVE",
"791 130 CURVE",
"878 33 LINE SMOOTH",
"899 10 OFFCURVE",
"927 0 OFFCURVE",
"956 0 CURVE SMOOTH",
"1070 0 LINE SMOOTH",
"1115 0 OFFCURVE",
"1133 18 OFFCURVE",
"1133 68 CURVE SMOOTH",
"1133 118 OFFCURVE",
"1115 136 OFFCURVE",
"1070 136 CURVE SMOOTH",
"986 136 LINE",
"877 258 LINE",
"911 322 OFFCURVE",
"940 396 OFFCURVE",
"963 475 CURVE",
"1056 475 LINE SMOOTH",
"1101 475 OFFCURVE",
"1119 493 OFFCURVE",
"1119 543 CURVE SMOOTH",
"1119 593 OFFCURVE",
"1101 611 OFFCURVE",
"1056 611 CURVE SMOOTH",
"899 611 LINE SMOOTH",
"869 611 OFFCURVE",
"854 593 OFFCURVE",
"847 569 CURVE SMOOTH",
"826 497 OFFCURVE",
"802 431 OFFCURVE",
"775 372 CURVE",
"482 702 LINE SMOOTH",
"429 762 OFFCURVE",
"399 818 OFFCURVE",
"399 890 CURVE SMOOTH",
"399 983 OFFCURVE",
"463 1061 OFFCURVE",
"577 1061 CURVE SMOOTH",
"653 1061 OFFCURVE",
"715 1043 OFFCURVE",
"762 1014 CURVE",
"762 924 LINE SMOOTH",
"762 878 OFFCURVE",
"781 859 OFFCURVE",
"837 859 CURVE SMOOTH",
"893 859 OFFCURVE",
"912 878 OFFCURVE",
"912 924 CURVE SMOOTH",
"912 1051 LINE SMOOTH",
"912 1077 OFFCURVE",
"906 1094 OFFCURVE",
"891 1105 CURVE SMOOTH",
"804 1165 OFFCURVE",
"697 1209 OFFCURVE",
"578 1209 CURVE SMOOTH"
);
},
{
closed = 1;
nodes = (
"695 238 LINE",
"638 168 OFFCURVE",
"570 126 OFFCURVE",
"486 126 CURVE SMOOTH",
"378 126 OFFCURVE",
"305 205 OFFCURVE",
"305 310 CURVE SMOOTH",
"305 399 OFFCURVE",
"343 467 OFFCURVE",
"434 532 CURVE"
);
}
);
width = 1228;
},
{
layerId = "8538028E-5D6C-4318-9676-30148CDA39CA";
paths = (
{
closed = 1;
nodes = (
"345 1209 OFFCURVE",
"202 1064 OFFCURVE",
"202 866 CURVE SMOOTH",
"202 775 OFFCURVE",
"236 694 OFFCURVE",
"287 622 CURVE",
"169 544 OFFCURVE",
"107 448 OFFCURVE",
"107 320 CURVE SMOOTH",
"107 119 OFFCURVE",
"243 -22 OFFCURVE",
"456 -22 CURVE SMOOTH",
"582 -22 OFFCURVE",
"688 17 OFFCURVE",
"776 100 CURVE",
"841 33 LINE SMOOTH",
"863 10 OFFCURVE",
"885 0 OFFCURVE",
"913 0 CURVE SMOOTH",
"1084 0 LINE SMOOTH",
"1129 0 OFFCURVE",
"1147 17 OFFCURVE",
"1147 102 CURVE SMOOTH",
"1147 187 OFFCURVE",
"1129 205 OFFCURVE",
"1084 205 CURVE SMOOTH",
"1007 205 LINE",
"916 299 LINE",
"936 342 OFFCURVE",
"955 389 OFFCURVE",
"973 440 CURVE",
"1064 440 LINE SMOOTH",
"1109 440 OFFCURVE",
"1127 458 OFFCURVE",
"1127 543 CURVE SMOOTH",
"1127 628 OFFCURVE",
"1109 645 OFFCURVE",
"1064 645 CURVE SMOOTH",
"844 645 LINE SMOOTH",
"814 645 OFFCURVE",
"800 628 OFFCURVE",
"792 603 CURVE SMOOTH",
"777 558 OFFCURVE",
"761 516 OFFCURVE",
"745 477 CURVE",
"564 666 LINE SMOOTH",
"501 731 OFFCURVE",
"456 793 OFFCURVE",
"456 861 CURVE SMOOTH",
"456 940 OFFCURVE",
"508 992 OFFCURVE",
"582 992 CURVE SMOOTH",
"632 992 OFFCURVE",
"681 978 OFFCURVE",
"725 956 CURVE",
"725 854 LINE SMOOTH",
"725 809 OFFCURVE",
"748 791 OFFCURVE",
"833 791 CURVE SMOOTH",
"918 791 OFFCURVE",
"955 809 OFFCURVE",
"955 854 CURVE SMOOTH",
"955 1051 LINE SMOOTH",
"955 1079 OFFCURVE",
"941 1097 OFFCURVE",
"912 1113 CURVE SMOOTH",
"794 1178 OFFCURVE",
"685 1209 OFFCURVE",
"583 1209 CURVE SMOOTH"
);
},
{
closed = 1;
nodes = (
"617 266 LINE",
"576 226 OFFCURVE",
"530 205 OFFCURVE",
"476 205 CURVE SMOOTH",
"402 205 OFFCURVE",
"355 254 OFFCURVE",
"355 330 CURVE SMOOTH",
"355 386 OFFCURVE",
"378 429 OFFCURVE",
"422 469 CURVE"
);
}
);
width = 1228;
}
);
unicode = 0026;
}
{
glyphname = parenleft;
layers = (
{
layerId = UUID0;
paths = (
{
closed = 1;
nodes = (
"547 1241 OFFCURVE",
"297 940 OFFCURVE",
"297 517 CURVE SMOOTH",
"297 94 OFFCURVE",
"547 -203 OFFCURVE",
"771 -337 CURVE SMOOTH",
"800 -354 OFFCURVE",
"830 -333 OFFCURVE",
"848 -303 CURVE SMOOTH",
"866 -273 OFFCURVE",
"873 -234 OFFCURVE",
"852 -220 CURVE SMOOTH",
"654 -90 OFFCURVE",
"445 146 OFFCURVE",
"445 517 CURVE SMOOTH",
"445 888 OFFCURVE",
"654 1128 OFFCURVE",
"852 1258 CURVE SMOOTH",
"873 1272 OFFCURVE",
"866 1311 OFFCURVE",
"848 1341 CURVE SMOOTH",
"830 1371 OFFCURVE",
"800 1392 OFFCURVE",
"771 1375 CURVE SMOOTH"
);
}
);
width = 1228;
},
{
layerId = "8538028E-5D6C-4318-9676-30148CDA39CA";
paths = (
{
closed = 1;
nodes = (
"517 1231 OFFCURVE",
"257 952 OFFCURVE",
"257 519 CURVE SMOOTH",
"257 86 OFFCURVE",
"517 -193 OFFCURVE",
"771 -337 CURVE",
"811 -360 OFFCURVE",
"857 -328 OFFCURVE",
"891 -277 CURVE SMOOTH",
"927 -223 OFFCURVE",
"941 -163 OFFCURVE",
"909 -143 CURVE SMOOTH",
"651 19 OFFCURVE",
"505 226 OFFCURVE",
"505 519 CURVE SMOOTH",
"505 812 OFFCURVE",
"651 1019 OFFCURVE",
"909 1181 CURVE SMOOTH",
"941 1201 OFFCURVE",
"927 1261 OFFCURVE",
"891 1315 CURVE SMOOTH",
"857 1366 OFFCURVE",
"811 1398 OFFCURVE",
"771 1375 CURVE SMOOTH"
);
}
);
width = 1228;
}
);
unicode = 0028;
}
{
glyphname = parenright;
layers = (
{
layerId = UUID0;
paths = (
{
closed = 1;
nodes = (
"428 1392 OFFCURVE",
"398 1371 OFFCURVE",
"380 1341 CURVE SMOOTH",
"362 1311 OFFCURVE",
"355 1272 OFFCURVE",
"376 1258 CURVE SMOOTH",
"574 1128 OFFCURVE",
"783 888 OFFCURVE",
"783 517 CURVE SMOOTH",
"783 146 OFFCURVE",
"574 -90 OFFCURVE",
"376 -220 CURVE SMOOTH",
"355 -234 OFFCURVE",
"362 -273 OFFCURVE",
"380 -303 CURVE SMOOTH",
"398 -333 OFFCURVE",
"428 -354 OFFCURVE",
"457 -337 CURVE SMOOTH",
"681 -203 OFFCURVE",
"931 94 OFFCURVE",
"931 517 CURVE SMOOTH",
"931 940 OFFCURVE",
"681 1241 OFFCURVE",
"457 1375 CURVE SMOOTH"
);
}
);
width = 1228;
},
{
layerId = "8538028E-5D6C-4318-9676-30148CDA39CA";
paths = (
{
closed = 1;
nodes = (
"417 1398 OFFCURVE",
"371 1366 OFFCURVE",
"337 1315 CURVE SMOOTH",
"301 1261 OFFCURVE",
"287 1201 OFFCURVE",
"319 1181 CURVE SMOOTH",
"577 1019 OFFCURVE",
"723 812 OFFCURVE",
"723 519 CURVE SMOOTH",
"723 226 OFFCURVE",
"577 19 OFFCURVE",
"319 -143 CURVE SMOOTH",
"287 -163 OFFCURVE",
"301 -223 OFFCURVE",
"337 -277 CURVE SMOOTH",
"371 -328 OFFCURVE",
"417 -360 OFFCURVE",
"457 -337 CURVE SMOOTH",
"711 -193 OFFCURVE",
"971 86 OFFCURVE",
"971 519 CURVE SMOOTH",
"971 952 OFFCURVE",
"711 1231 OFFCURVE",
"457 1375 CURVE SMOOTH"
);
}
);
width = 1228;
}
);
unicode = 0029;
}
{
glyphname = zero;
layers = (
{
layerId = UUID0;
paths = (
{
closed = 1;
nodes = (
"354 1209 OFFCURVE",
"188 963 OFFCURVE",
"188 593 CURVE SMOOTH",
"188 223 OFFCURVE",
"354 -22 OFFCURVE",
"614 -22 CURVE SMOOTH",
"874 -22 OFFCURVE",
"1040 223 OFFCURVE",
"1040 593 CURVE SMOOTH",
"1040 963 OFFCURVE",
"874 1209 OFFCURVE",
"614 1209 CURVE SMOOTH"
);
},
{
closed = 1;
nodes = (
"771 1061 OFFCURVE",
"882 891 OFFCURVE",
"882 593 CURVE SMOOTH",
"882 295 OFFCURVE",
"771 126 OFFCURVE",
"614 126 CURVE SMOOTH",
"457 126 OFFCURVE",
"346 295 OFFCURVE",
"346 593 CURVE SMOOTH",
"346 891 OFFCURVE",
"457 1061 OFFCURVE",
"614 1061 CURVE SMOOTH"
);
}
);
width = 1228;
},
{
layerId = "8538028E-5D6C-4318-9676-30148CDA39CA";
paths = (
{
closed = 1;
nodes = (
"314 1209 OFFCURVE",
"133 953 OFFCURVE",
"133 593 CURVE SMOOTH",
"133 233 OFFCURVE",
"314 -22 OFFCURVE",
"614 -22 CURVE SMOOTH",
"914 -22 OFFCURVE",
"1095 233 OFFCURVE",
"1095 593 CURVE SMOOTH",
"1095 953 OFFCURVE",
"914 1209 OFFCURVE",
"614 1209 CURVE SMOOTH"
);
},
{
closed = 1;
nodes = (
"751 982 OFFCURVE",
"827 851 OFFCURVE",
"827 593 CURVE SMOOTH",
"827 335 OFFCURVE",
"751 205 OFFCURVE",
"614 205 CURVE SMOOTH",
"477 205 OFFCURVE",
"401 335 OFFCURVE",
"401 593 CURVE SMOOTH",
"401 851 OFFCURVE",
"477 982 OFFCURVE",
"614 982 CURVE SMOOTH"
);
}
);
width = 1228;
}
);
unicode = 0030;
}
{
glyphname = three;
layers = (
{
layerId = UUID0;
paths = (
{
closed = 1;
nodes = (
"467 1209 OFFCURVE",
"362 1177 OFFCURVE",
"271 1121 CURVE SMOOTH",
"252 1109 OFFCURVE",
"244 1093 OFFCURVE",
"244 1064 CURVE SMOOTH",
"244 955 LINE SMOOTH",
"244 909 OFFCURVE",
"263 890 OFFCURVE",
"319 890 CURVE SMOOTH",
"375 890 OFFCURVE",
"394 909 OFFCURVE",
"394 955 CURVE SMOOTH",
"394 1022 LINE",
"448 1048 OFFCURVE",
"512 1061 OFFCURVE",
"591 1061 CURVE SMOOTH",
"736 1061 OFFCURVE",
"817 991 OFFCURVE",
"817 879 CURVE SMOOTH",
"817 757 OFFCURVE",
"738 691 OFFCURVE",
"585 691 CURVE SMOOTH",
"530 691 LINE SMOOTH",
"485 691 OFFCURVE",
"467 673 OFFCURVE",
"467 623 CURVE SMOOTH",
"467 573 OFFCURVE",
"485 555 OFFCURVE",
"530 555 CURVE SMOOTH",
"603 555 LINE SMOOTH",
"758 555 OFFCURVE",
"852 484 OFFCURVE",
"852 345 CURVE SMOOTH",
"852 213 OFFCURVE",
"767 126 OFFCURVE",
"598 126 CURVE SMOOTH",
"492 126 OFFCURVE",
"385 168 OFFCURVE",
"300 232 CURVE SMOOTH",
"271 254 OFFCURVE",
"237 249 OFFCURVE",
"208 203 CURVE SMOOTH",
"180 157 OFFCURVE",
"189 127 OFFCURVE",
"221 104 CURVE SMOOTH",
"325 28 OFFCURVE",
"465 -22 OFFCURVE",
"598 -22 CURVE SMOOTH",
"860 -22 OFFCURVE",
"1010 128 OFFCURVE",
"1010 345 CURVE SMOOTH",
"1010 484 OFFCURVE",
"936 582 OFFCURVE",
"818 631 CURVE",
"911 679 OFFCURVE",
"971 760 OFFCURVE",
"971 879 CURVE SMOOTH",
"971 1080 OFFCURVE",
"821 1209 OFFCURVE",
"590 1209 CURVE SMOOTH"
);
}
);
width = 1228;
},
{
layerId = "8538028E-5D6C-4318-9676-30148CDA39CA";
paths = (
{
closed = 1;
nodes = (
"477 1209 OFFCURVE",
"360 1183 OFFCURVE",
"257 1141 CURVE SMOOTH",
"224 1128 OFFCURVE",
"208 1107 OFFCURVE",
"208 1077 CURVE SMOOTH",
"208 890 LINE SMOOTH",
"208 845 OFFCURVE",
"245 827 OFFCURVE",
"330 827 CURVE SMOOTH",
"415 827 OFFCURVE",
"438 845 OFFCURVE",
"438 890 CURVE SMOOTH",
"438 969 LINE",
"482 982 OFFCURVE",
"532 992 OFFCURVE",
"591 992 CURVE SMOOTH",
"701 992 OFFCURVE",
"757 945 OFFCURVE",
"757 854 CURVE SMOOTH",
"757 760 OFFCURVE",
"699 718 OFFCURVE",
"581 718 CURVE SMOOTH",
"505 718 LINE SMOOTH",
"460 718 OFFCURVE",
"442 695 OFFCURVE",
"442 610 CURVE SMOOTH",
"442 525 OFFCURVE",
"460 503 OFFCURVE",
"505 503 CURVE SMOOTH",
"608 503 LINE SMOOTH",
"719 503 OFFCURVE",
"778 454 OFFCURVE",
"778 358 CURVE SMOOTH",
"778 261 OFFCURVE",
"707 205 OFFCURVE",
"564 205 CURVE SMOOTH",
"476 205 OFFCURVE",
"381 230 OFFCURVE",
"296 270 CURVE SMOOTH",
"265 285 OFFCURVE",
"230 268 OFFCURVE",
"200 191 CURVE SMOOTH",
"170 114 OFFCURVE",
"183 75 OFFCURVE",
"221 55 CURVE",
"321 2 OFFCURVE",
"441 -22 OFFCURVE",
"564 -22 CURVE SMOOTH",
"862 -22 OFFCURVE",
"1046 102 OFFCURVE",
"1046 356 CURVE SMOOTH",
"1046 487 OFFCURVE",
"977 575 OFFCURVE",
"870 624 CURVE",
"958 670 OFFCURVE",
"1011 749 OFFCURVE",
"1011 869 CURVE SMOOTH",
"1011 1090 OFFCURVE",
"858 1209 OFFCURVE",
"590 1209 CURVE SMOOTH"
);
}
);
width = 1228;
}
);
unicode = 0033;
}
{
glyphname = eight;
layers = (
{
layerId = UUID0;
paths = (
{
closed = 1;
nodes = (
"402 1209 OFFCURVE",
"245 1064 OFFCURVE",
"245 879 CURVE SMOOTH",
"245 766 OFFCURVE",
"317 680 OFFCURVE",
"410 630 CURVE",
"293 577 OFFCURVE",
"206 476 OFFCURVE",
"206 340 CURVE SMOOTH",
"206 131 OFFCURVE",
"380 -22 OFFCURVE",
"614 -22 CURVE SMOOTH",
"848 -22 OFFCURVE",
"1022 131 OFFCURVE",
"1022 340 CURVE SMOOTH",
"1022 476 OFFCURVE",
"935 577 OFFCURVE",
"817 630 CURVE",
"910 680 OFFCURVE",
"983 766 OFFCURVE",
"983 879 CURVE SMOOTH",
"983 1064 OFFCURVE",
"826 1209 OFFCURVE",
"614 1209 CURVE SMOOTH"
);
},
{
closed = 1;
nodes = (
"761 554 OFFCURVE",
"862 467 OFFCURVE",
"862 341 CURVE SMOOTH",
"862 215 OFFCURVE",
"761 126 OFFCURVE",
"614 126 CURVE SMOOTH",
"467 126 OFFCURVE",
"366 215 OFFCURVE",
"366 341 CURVE SMOOTH",
"366 467 OFFCURVE",
"467 554 OFFCURVE",
"614 554 CURVE SMOOTH"
);
},
{
closed = 1;
nodes = (
"737 1061 OFFCURVE",
"829 990 OFFCURVE",
"829 876 CURVE SMOOTH",
"829 773 OFFCURVE",
"737 693 OFFCURVE",
"614 693 CURVE SMOOTH",
"491 693 OFFCURVE",
"399 773 OFFCURVE",
"399 876 CURVE SMOOTH",
"399 990 OFFCURVE",
"491 1061 OFFCURVE",
"614 1061 CURVE SMOOTH"
);
}
);
width = 1228;
},
{
layerId = "8538028E-5D6C-4318-9676-30148CDA39CA";
paths = (
{
closed = 1;
nodes = (
"362 1209 OFFCURVE",
"210 1056 OFFCURVE",
"210 871 CURVE SMOOTH",
"210 744 OFFCURVE",
"274 663 OFFCURVE",
"373 619 CURVE",
"251 574 OFFCURVE",
"171 484 OFFCURVE",
"171 335 CURVE SMOOTH",
"171 111 OFFCURVE",
"350 -22 OFFCURVE",
"614 -22 CURVE SMOOTH",
"878 -22 OFFCURVE",
"1057 111 OFFCURVE",
"1057 335 CURVE SMOOTH",
"1057 484 OFFCURVE",
"976 574 OFFCURVE",
"855 619 CURVE",
"953 663 OFFCURVE",
"1018 744 OFFCURVE",
"1018 871 CURVE SMOOTH",
"1018 1056 OFFCURVE",
"866 1209 OFFCURVE",
"614 1209 CURVE SMOOTH"
);
},
{
closed = 1;
nodes = (
"731 518 OFFCURVE",
"792 452 OFFCURVE",
"792 356 CURVE SMOOTH",
"792 260 OFFCURVE",
"731 196 OFFCURVE",
"614 196 CURVE SMOOTH",
"497 196 OFFCURVE",
"436 260 OFFCURVE",
"436 356 CURVE SMOOTH",
"436 452 OFFCURVE",
"497 518 OFFCURVE",
"614 518 CURVE SMOOTH"
);
},
{
closed = 1;
nodes = (
"709 991 OFFCURVE",
"769 935 OFFCURVE",
"769 851 CURVE SMOOTH",
"769 768 OFFCURVE",
"712 712 OFFCURVE",
"614 712 CURVE SMOOTH",
"516 712 OFFCURVE",
"459 768 OFFCURVE",
"459 851 CURVE SMOOTH",
"459 935 OFFCURVE",
"519 991 OFFCURVE",
"614 991 CURVE SMOOTH"
);
}
);
width = 1228;
}
);
unicode = 0038;
}
{
glyphname = B;
layers = (
{
layerId = UUID0;
paths = (
{
closed = 1;
nodes = (
"143 1187 LINE SMOOTH",
"98 1187 OFFCURVE",
"80 1169 OFFCURVE",
"80 1119 CURVE SMOOTH",
"80 1069 OFFCURVE",
"98 1051 OFFCURVE",
"143 1051 CURVE SMOOTH",
"265 1051 LINE",
"265 136 LINE",
"143 136 LINE SMOOTH",
"98 136 OFFCURVE",
"80 118 OFFCURVE",
"80 68 CURVE SMOOTH",
"80 18 OFFCURVE",
"98 0 OFFCURVE",
"143 0 CURVE SMOOTH",
"710 0 LINE SMOOTH",
"956 0 OFFCURVE",
"1094 129 OFFCURVE",
"1094 339 CURVE SMOOTH",
"1094 488 OFFCURVE",
"1015 590 OFFCURVE",
"875 635 CURVE",
"958 683 OFFCURVE",
"1008 761 OFFCURVE",
"1008 865 CURVE SMOOTH",
"1008 1058 OFFCURVE",
"883 1187 OFFCURVE",
"644 1187 CURVE SMOOTH"
);
},
{
closed = 1;
nodes = (
"853 545 OFFCURVE",
"936 475 OFFCURVE",
"936 339 CURVE SMOOTH",
"936 210 OFFCURVE",
"845 136 OFFCURVE",
"680 136 CURVE SMOOTH",
"415 136 LINE",
"415 545 LINE",
"685 545 LINE SMOOTH"
);
},
{
closed = 1;
nodes = (
"779 1051 OFFCURVE",
"855 986 OFFCURVE",
"855 865 CURVE SMOOTH",
"855 749 OFFCURVE",
"778 681 OFFCURVE",
"622 681 CURVE SMOOTH",
"415 681 LINE",
"415 1051 LINE",
"622 1051 LINE SMOOTH"
);
}
);
width = 1228;
},
{
layerId = "8538028E-5D6C-4318-9676-30148CDA39CA";
paths = (
{
closed = 1;
nodes = (
"133 1187 LINE SMOOTH",
"88 1187 OFFCURVE",
"70 1169 OFFCURVE",
"70 1084 CURVE SMOOTH",
"70 999 OFFCURVE",
"88 982 OFFCURVE",
"133 982 CURVE SMOOTH",
"240 982 LINE",
"240 205 LINE",
"133 205 LINE SMOOTH",
"88 205 OFFCURVE",
"70 187 OFFCURVE",
"70 102 CURVE SMOOTH",
"70 17 OFFCURVE",
"88 0 OFFCURVE",
"133 0 CURVE SMOOTH",
"710 0 LINE SMOOTH",
"984 0 OFFCURVE",
"1139 116 OFFCURVE",
"1139 344 CURVE SMOOTH",
"1139 503 OFFCURVE",
"1051 592 OFFCURVE",
"910 630 CURVE",
"1003 675 OFFCURVE",
"1064 751 OFFCURVE",
"1064 864 CURVE SMOOTH",
"1064 1059 OFFCURVE",
"942 1187 OFFCURVE",
"654 1187 CURVE SMOOTH"
);
},
{
closed = 1;
nodes = (
"813 499 OFFCURVE",
"876 453 OFFCURVE",
"876 354 CURVE SMOOTH",
"876 263 OFFCURVE",
"815 215 OFFCURVE",
"682 215 CURVE SMOOTH",
"490 215 LINE",
"490 499 LINE",
"682 499 LINE SMOOTH"
);
},
{
closed = 1;
nodes = (
"755 972 OFFCURVE",
"810 934 OFFCURVE",
"810 844 CURVE SMOOTH",
"810 755 OFFCURVE",
"752 714 OFFCURVE",
"632 714 CURVE SMOOTH",
"490 714 LINE",
"490 972 LINE",
"632 972 LINE SMOOTH"
);
}
);
width = 1228;
}
);
unicode = 0042;
}
{
glyphname = C;
layers = (
{
layerId = UUID0;
paths = (
{
closed = 1;
nodes = (
"943 1209 OFFCURVE",
"924 1190 OFFCURVE",
"924 1144 CURVE SMOOTH",
"924 1086 LINE",
"859 1163 OFFCURVE",
"763 1209 OFFCURVE",
"634 1209 CURVE SMOOTH",
"329 1209 OFFCURVE",
"118 963 OFFCURVE",
"118 593 CURVE SMOOTH",
"118 223 OFFCURVE",
"319 -22 OFFCURVE",
"634 -22 CURVE SMOOTH",
"786 -22 OFFCURVE",
"936 21 OFFCURVE",
"1062 109 CURVE SMOOTH",
"1097 134 OFFCURVE",
"1103 167 OFFCURVE",
"1075 214 CURVE SMOOTH",
"1046 263 OFFCURVE",
"1012 260 OFFCURVE",
"985 239 CURVE SMOOTH",
"889 165 OFFCURVE",
"766 126 OFFCURVE",
"634 126 CURVE SMOOTH",
"417 126 OFFCURVE",
"276 305 OFFCURVE",
"276 593 CURVE SMOOTH",
"276 881 OFFCURVE",
"427 1061 OFFCURVE",
"644 1061 CURVE SMOOTH",
"837 1061 OFFCURVE",
"924 945 OFFCURVE",
"924 814 CURVE SMOOTH",
"924 768 OFFCURVE",
"943 749 OFFCURVE",
"999 749 CURVE SMOOTH",
"1055 749 OFFCURVE",
"1074 768 OFFCURVE",
"1074 814 CURVE SMOOTH",
"1074 1144 LINE SMOOTH",
"1074 1190 OFFCURVE",
"1055 1209 OFFCURVE",
"999 1209 CURVE SMOOTH"
);
}
);
width = 1228;
},
{
layerId = "8538028E-5D6C-4318-9676-30148CDA39CA";
paths = (
{
closed = 1;
nodes = (
"921 1209 OFFCURVE",
"884 1191 OFFCURVE",
"884 1146 CURVE SMOOTH",
"884 1083 LINE",
"832 1160 OFFCURVE",
"748 1209 OFFCURVE",
"624 1209 CURVE SMOOTH",
"324 1209 OFFCURVE",
"103 974 OFFCURVE",
"103 594 CURVE SMOOTH",
"103 214 OFFCURVE",
"324 -22 OFFCURVE",
"654 -22 CURVE SMOOTH",
"796 -22 OFFCURVE",
"942 15 OFFCURVE",
"1081 84 CURVE SMOOTH",
"1124 105 OFFCURVE",
"1142 144 OFFCURVE",
"1113 225 CURVE SMOOTH",
"1084 304 OFFCURVE",
"1045 320 OFFCURVE",
"1005 300 CURVE SMOOTH",
"889 241 OFFCURVE",
"787 205 OFFCURVE",
"664 205 CURVE SMOOTH",
"477 205 OFFCURVE",
"371 346 OFFCURVE",
"371 594 CURVE SMOOTH",
"371 842 OFFCURVE",
"467 982 OFFCURVE",
"654 982 CURVE SMOOTH",
"792 982 OFFCURVE",
"864 891 OFFCURVE",
"864 762 CURVE SMOOTH",
"864 717 OFFCURVE",
"887 699 OFFCURVE",
"982 699 CURVE SMOOTH",
"1077 699 OFFCURVE",
"1114 717 OFFCURVE",
"1114 762 CURVE SMOOTH",
"1114 1146 LINE SMOOTH",
"1114 1191 OFFCURVE",
"1091 1209 OFFCURVE",
"1006 1209 CURVE SMOOTH"
);
}
);
width = 1228;
}
);
unicode = 0043;
}
{
glyphname = D;
layers = (
{
layerId = UUID0;
paths = (
{
closed = 1;
nodes = (
"143 1187 LINE SMOOTH",
"98 1187 OFFCURVE",
"80 1169 OFFCURVE",
"80 1119 CURVE SMOOTH",
"80 1069 OFFCURVE",
"98 1051 OFFCURVE",
"143 1051 CURVE SMOOTH",
"255 1051 LINE",
"255 136 LINE",
"143 136 LINE SMOOTH",
"98 136 OFFCURVE",
"80 118 OFFCURVE",
"80 68 CURVE SMOOTH",
"80 18 OFFCURVE",
"98 0 OFFCURVE",
"143 0 CURVE SMOOTH",
"614 0 LINE SMOOTH",
"929 0 OFFCURVE",
"1140 223 OFFCURVE",
"1140 593 CURVE SMOOTH",
"1140 963 OFFCURVE",
"929 1187 OFFCURVE",
"614 1187 CURVE SMOOTH"
);
},
{
closed = 1;
nodes = (
"828 1051 OFFCURVE",
"982 891 OFFCURVE",
"982 593 CURVE SMOOTH",
"982 295 OFFCURVE",
"828 136 OFFCURVE",
"591 136 CURVE SMOOTH",
"405 136 LINE",
"405 1051 LINE",
"591 1051 LINE SMOOTH"
);
}
);
width = 1228;
},
{
layerId = "8538028E-5D6C-4318-9676-30148CDA39CA";
paths = (
{
closed = 1;
nodes = (
"123 1187 LINE SMOOTH",
"78 1187 OFFCURVE",
"60 1169 OFFCURVE",
"60 1084 CURVE SMOOTH",
"60 999 OFFCURVE",
"78 982 OFFCURVE",
"123 982 CURVE SMOOTH",
"220 982 LINE",
"220 205 LINE",
"123 205 LINE SMOOTH",
"78 205 OFFCURVE",
"60 187 OFFCURVE",
"60 102 CURVE SMOOTH",
"60 17 OFFCURVE",
"78 0 OFFCURVE",
"123 0 CURVE SMOOTH",
"594 0 LINE SMOOTH",
"944 0 OFFCURVE",
"1155 214 OFFCURVE",
"1155 594 CURVE SMOOTH",
"1155 974 OFFCURVE",
"944 1187 OFFCURVE",
"594 1187 CURVE SMOOTH"
);
},
{
closed = 1;
nodes = (
"781 972 OFFCURVE",
"887 842 OFFCURVE",
"887 594 CURVE SMOOTH",
"887 346 OFFCURVE",
"781 215 OFFCURVE",
"574 215 CURVE SMOOTH",
"470 215 LINE",
"470 972 LINE",
"574 972 LINE SMOOTH"
);
}
);
width = 1228;
}
);
unicode = 0044;
}
{
glyphname = F;
layers = (
{
layerId = UUID0;
paths = (
{
closed = 1;
nodes = (
"143 1187 LINE SMOOTH",
"98 1187 OFFCURVE",
"80 1169 OFFCURVE",
"80 1119 CURVE SMOOTH",
"80 1069 OFFCURVE",
"98 1051 OFFCURVE",
"143 1051 CURVE SMOOTH",
"275 1051 LINE",
"275 136 LINE",
"143 136 LINE SMOOTH",
"98 136 OFFCURVE",
"80 118 OFFCURVE",
"80 68 CURVE SMOOTH",
"80 18 OFFCURVE",
"98 0 OFFCURVE",
"143 0 CURVE SMOOTH",
"657 0 LINE SMOOTH",
"702 0 OFFCURVE",
"720 18 OFFCURVE",
"720 68 CURVE SMOOTH",
"720 118 OFFCURVE",
"702 136 OFFCURVE",
"657 136 CURVE SMOOTH",
"425 136 LINE",
"425 524 LINE",
"720 524 LINE SMOOTH",
"765 524 OFFCURVE",
"783 542 OFFCURVE",
"783 592 CURVE SMOOTH",
"783 642 OFFCURVE",
"765 660 OFFCURVE",
"720 660 CURVE SMOOTH",
"425 660 LINE",
"425 1051 LINE",
"960 1051 LINE",
"960 855 LINE SMOOTH",
"960 809 OFFCURVE",
"979 790 OFFCURVE",
"1035 790 CURVE SMOOTH",
"1091 790 OFFCURVE",
"1110 809 OFFCURVE",
"1110 855 CURVE SMOOTH",
"1110 1119 LINE SMOOTH",
"1110 1169 OFFCURVE",
"1092 1187 OFFCURVE",
"1047 1187 CURVE SMOOTH"
);
},
{
closed = 1;
nodes = (
"695 816 OFFCURVE",
"679 797 OFFCURVE",
"679 751 CURVE SMOOTH",
"679 433 LINE SMOOTH",
"679 387 OFFCURVE",
"695 368 OFFCURVE",
"750 368 CURVE SMOOTH",
"805 368 OFFCURVE",
"821 387 OFFCURVE",
"821 433 CURVE SMOOTH",
"821 751 LINE SMOOTH",
"821 797 OFFCURVE",
"805 816 OFFCURVE",
"750 816 CURVE SMOOTH"
);
}
);
width = 1228;
},
{
layerId = "8538028E-5D6C-4318-9676-30148CDA39CA";
paths = (
{
closed = 1;
nodes = (
"143 1187 LINE SMOOTH",
"98 1187 OFFCURVE",
"80 1169 OFFCURVE",
"80 1084 CURVE SMOOTH",
"80 999 OFFCURVE",
"98 982 OFFCURVE",
"143 982 CURVE SMOOTH",
"270 982 LINE",
"270 205 LINE",
"143 205 LINE SMOOTH",
"98 205 OFFCURVE",
"80 187 OFFCURVE",
"80 102 CURVE SMOOTH",
"80 17 OFFCURVE",
"98 0 OFFCURVE",
"143 0 CURVE SMOOTH",
"737 0 LINE SMOOTH",
"782 0 OFFCURVE",
"800 17 OFFCURVE",
"800 102 CURVE SMOOTH",
"800 187 OFFCURVE",
"782 205 OFFCURVE",
"737 205 CURVE SMOOTH",
"520 205 LINE",
"520 442 LINE",
"824 442 LINE SMOOTH",
"869 442 OFFCURVE",
"887 464 OFFCURVE",
"887 549 CURVE SMOOTH",
"887 634 OFFCURVE",
"869 657 OFFCURVE",
"824 657 CURVE SMOOTH",
"520 657 LINE",
"520 972 LINE",
"890 972 LINE",
"890 860 LINE SMOOTH",
"890 815 OFFCURVE",
"913 797 OFFCURVE",
"998 797 CURVE SMOOTH",
"1083 797 OFFCURVE",
"1120 815 OFFCURVE",
"1120 860 CURVE SMOOTH",
"1120 1122 LINE SMOOTH",
"1120 1168 OFFCURVE",
"1101 1187 OFFCURVE",
"1055 1187 CURVE SMOOTH"
);
},
{
closed = 1;
nodes = (
"693 653 OFFCURVE",
"665 634 OFFCURVE",
"665 588 CURVE SMOOTH",
"665 510 LINE SMOOTH",
"665 464 OFFCURVE",
"693 445 OFFCURVE",
"770 445 CURVE SMOOTH",
"847 445 OFFCURVE",
"875 464 OFFCURVE",
"875 510 CURVE SMOOTH",
"875 588 LINE SMOOTH",
"875 634 OFFCURVE",
"847 653 OFFCURVE",
"770 653 CURVE SMOOTH"
);
}
);
width = 1228;
},
{
associatedMasterId = UUID0;
layerId = "6F5A11B2-C36C-4722-9FBC-9E6C645C0232";
name = "[175]";
paths = (
{
closed = 1;
nodes = (
"143 1187 LINE SMOOTH",
"98 1187 OFFCURVE",
"80 1169 OFFCURVE",
"80 1119 CURVE SMOOTH",
"80 1069 OFFCURVE",
"98 1051 OFFCURVE",
"143 1051 CURVE SMOOTH",
"275 1051 LINE",
"275 136 LINE",
"143 136 LINE SMOOTH",
"98 136 OFFCURVE",
"80 118 OFFCURVE",
"80 68 CURVE SMOOTH",
"80 18 OFFCURVE",
"98 0 OFFCURVE",
"143 0 CURVE SMOOTH",
"657 0 LINE SMOOTH",
"702 0 OFFCURVE",
"720 18 OFFCURVE",
"720 68 CURVE SMOOTH",
"720 118 OFFCURVE",
"702 136 OFFCURVE",
"657 136 CURVE SMOOTH",
"425 136 LINE",
"425 524 LINE",
"775 524 LINE SMOOTH",
"820 524 OFFCURVE",
"838 542 OFFCURVE",
"838 592 CURVE SMOOTH",
"838 642 OFFCURVE",
"820 660 OFFCURVE",
"775 660 CURVE SMOOTH",
"425 660 LINE",
"425 1051 LINE",
"960 1051 LINE",
"960 855 LINE SMOOTH",
"960 809 OFFCURVE",
"979 790 OFFCURVE",
"1035 790 CURVE SMOOTH",
"1091 790 OFFCURVE",
"1110 809 OFFCURVE",
"1110 855 CURVE SMOOTH",
"1110 1119 LINE SMOOTH",
"1110 1169 OFFCURVE",
"1092 1187 OFFCURVE",
"1047 1187 CURVE SMOOTH"
);
}
);
width = 1228;
},
{
associatedMasterId = "8538028E-5D6C-4318-9676-30148CDA39CA";
layerId = "06411AF9-0A4C-43DE-B9CC-EEB73B2AC6A6";
name = "[175]";
paths = (
{
closed = 1;
nodes = (
"123 1187 LINE SMOOTH",
"78 1187 OFFCURVE",
"60 1169 OFFCURVE",
"60 1084 CURVE SMOOTH",
"60 999 OFFCURVE",
"78 982 OFFCURVE",
"123 982 CURVE SMOOTH",
"250 982 LINE",
"250 205 LINE",
"123 205 LINE SMOOTH",
"78 205 OFFCURVE",
"60 187 OFFCURVE",
"60 102 CURVE SMOOTH",
"60 17 OFFCURVE",
"78 0 OFFCURVE",
"123 0 CURVE SMOOTH",
"717 0 LINE SMOOTH",
"762 0 OFFCURVE",
"780 17 OFFCURVE",
"780 102 CURVE SMOOTH",
"780 187 OFFCURVE",
"762 205 OFFCURVE",
"717 205 CURVE SMOOTH",
"500 205 LINE",
"500 452 LINE",
"804 452 LINE SMOOTH",
"849 452 OFFCURVE",
"867 474 OFFCURVE",
"867 559 CURVE SMOOTH",
"867 644 OFFCURVE",
"849 667 OFFCURVE",
"804 667 CURVE SMOOTH",
"500 667 LINE",
"500 972 LINE",
"890 972 LINE",
"890 820 LINE SMOOTH",
"890 775 OFFCURVE",
"913 757 OFFCURVE",
"998 757 CURVE SMOOTH",
"1083 757 OFFCURVE",
"1120 775 OFFCURVE",
"1120 820 CURVE SMOOTH",
"1120 1122 LINE SMOOTH",
"1120 1168 OFFCURVE",
"1101 1187 OFFCURVE",
"1055 1187 CURVE SMOOTH"
);
}
);
width = 1228;
}
);
unicode = 0046;
}
{
glyphname = G;
layers = (
{
layerId = UUID0;
paths = (
{
closed = 1;
nodes = (
"931 1209 OFFCURVE",
"912 1190 OFFCURVE",
"912 1144 CURVE SMOOTH",
"912 1095 LINE",
"848 1167 OFFCURVE",
"752 1209 OFFCURVE",
"624 1209 CURVE SMOOTH",
"319 1209 OFFCURVE",
"98 963 OFFCURVE",
"98 593 CURVE SMOOTH",
"98 223 OFFCURVE",
"309 -22 OFFCURVE",
"624 -22 CURVE SMOOTH",
"778 -22 OFFCURVE",
"927 11 OFFCURVE",
"1037 74 CURVE SMOOTH",
"1060 87 OFFCURVE",
"1073 111 OFFCURVE",
"1073 143 CURVE SMOOTH",
"1073 410 LINE",
"1105 410 LINE SMOOTH",
"1150 410 OFFCURVE",
"1168 428 OFFCURVE",
"1168 478 CURVE SMOOTH",
"1168 528 OFFCURVE",
"1150 546 OFFCURVE",
"1105 546 CURVE SMOOTH",
"676 546 LINE SMOOTH",
"631 546 OFFCURVE",
"613 528 OFFCURVE",
"613 478 CURVE SMOOTH",
"613 428 OFFCURVE",
"631 410 OFFCURVE",
"676 410 CURVE SMOOTH",
"923 410 LINE",
"923 183 LINE",
"836 143 OFFCURVE",
"737 126 OFFCURVE",
"624 126 CURVE SMOOTH",
"402 126 OFFCURVE",
"256 305 OFFCURVE",
"256 593 CURVE SMOOTH",
"256 881 OFFCURVE",
"412 1061 OFFCURVE",
"634 1061 CURVE SMOOTH",
"813 1061 OFFCURVE",
"912 974 OFFCURVE",
"912 854 CURVE SMOOTH",
"912 808 OFFCURVE",
"931 789 OFFCURVE",
"987 789 CURVE SMOOTH",
"1043 789 OFFCURVE",
"1062 808 OFFCURVE",
"1062 854 CURVE SMOOTH",
"1062 1144 LINE SMOOTH",
"1062 1190 OFFCURVE",
"1043 1209 OFFCURVE",
"987 1209 CURVE SMOOTH"
);
}
);
width = 1228;
},
{
layerId = "8538028E-5D6C-4318-9676-30148CDA39CA";
paths = (
{
closed = 1;
nodes = (
"891 1209 OFFCURVE",
"854 1191 OFFCURVE",
"854 1146 CURVE SMOOTH",
"854 1091 LINE",
"802 1164 OFFCURVE",
"718 1209 OFFCURVE",
"594 1209 CURVE SMOOTH",
"294 1209 OFFCURVE",
"73 974 OFFCURVE",
"73 594 CURVE SMOOTH",
"73 214 OFFCURVE",
"294 -22 OFFCURVE",
"624 -22 CURVE SMOOTH",
"779 -22 OFFCURVE",
"932 9 OFFCURVE",
"1058 74 CURVE SMOOTH",
"1081 86 OFFCURVE",
"1094 111 OFFCURVE",
"1094 143 CURVE SMOOTH",
"1094 402 LINE",
"1125 402 LINE SMOOTH",
"1170 402 OFFCURVE",
"1188 419 OFFCURVE",
"1188 504 CURVE SMOOTH",
"1188 589 OFFCURVE",
"1170 607 OFFCURVE",
"1125 607 CURVE SMOOTH",
"651 607 LINE SMOOTH",
"606 607 OFFCURVE",
"588 589 OFFCURVE",
"588 504 CURVE SMOOTH",
"588 419 OFFCURVE",
"606 402 OFFCURVE",
"651 402 CURVE SMOOTH",
"844 402 LINE",
"844 235 LINE",
"778 215 OFFCURVE",
"707 205 OFFCURVE",
"634 205 CURVE SMOOTH",
"447 205 OFFCURVE",
"341 346 OFFCURVE",
"341 594 CURVE SMOOTH",
"341 842 OFFCURVE",
"437 982 OFFCURVE",
"624 982 CURVE SMOOTH",
"768 982 OFFCURVE",
"834 914 OFFCURVE",
"834 802 CURVE SMOOTH",
"834 757 OFFCURVE",
"857 739 OFFCURVE",
"952 739 CURVE SMOOTH",
"1047 739 OFFCURVE",
"1084 757 OFFCURVE",
"1084 802 CURVE SMOOTH",
"1084 1146 LINE SMOOTH",
"1084 1191 OFFCURVE",
"1061 1209 OFFCURVE",
"976 1209 CURVE SMOOTH"
);
}
);
width = 1228;
}
);
unicode = 0047;
}
{
glyphname = P;
layers = (
{
layerId = UUID0;
paths = (
{
closed = 1;
nodes = (
"143 1187 LINE SMOOTH",
"98 1187 OFFCURVE",
"80 1169 OFFCURVE",
"80 1119 CURVE SMOOTH",
"80 1069 OFFCURVE",
"98 1051 OFFCURVE",
"143 1051 CURVE SMOOTH",
"305 1051 LINE",
"305 136 LINE",
"143 136 LINE SMOOTH",
"98 136 OFFCURVE",
"80 118 OFFCURVE",
"80 68 CURVE SMOOTH",
"80 18 OFFCURVE",
"98 0 OFFCURVE",
"143 0 CURVE SMOOTH",
"695 0 LINE SMOOTH",
"740 0 OFFCURVE",
"758 18 OFFCURVE",
"758 68 CURVE SMOOTH",
"758 118 OFFCURVE",
"740 136 OFFCURVE",
"695 136 CURVE SMOOTH",
"455 136 LINE",
"455 433 LINE",
"690 433 LINE SMOOTH",
"960 433 OFFCURVE",
"1112 583 OFFCURVE",
"1112 808 CURVE SMOOTH",
"1112 1034 OFFCURVE",
"960 1187 OFFCURVE",
"690 1187 CURVE SMOOTH"
);
},
{
closed = 1;
nodes = (
"856 1051 OFFCURVE",
"954 959 OFFCURVE",
"954 808 CURVE SMOOTH",
"954 659 OFFCURVE",
"856 569 OFFCURVE",
"669 569 CURVE SMOOTH",
"455 569 LINE",
"455 1051 LINE",
"669 1051 LINE SMOOTH"
);
}
);
width = 1228;
},
{
layerId = "8538028E-5D6C-4318-9676-30148CDA39CA";
paths = (
{
closed = 1;
nodes = (
"123 1187 LINE SMOOTH",
"78 1187 OFFCURVE",
"60 1169 OFFCURVE",
"60 1084 CURVE SMOOTH",
"60 999 OFFCURVE",
"78 982 OFFCURVE",
"123 982 CURVE SMOOTH",
"270 982 LINE",
"270 205 LINE",
"123 205 LINE SMOOTH",
"78 205 OFFCURVE",
"60 187 OFFCURVE",
"60 102 CURVE SMOOTH",
"60 17 OFFCURVE",
"78 0 OFFCURVE",
"123 0 CURVE SMOOTH",
"737 0 LINE SMOOTH",
"782 0 OFFCURVE",
"800 17 OFFCURVE",
"800 102 CURVE SMOOTH",
"800 187 OFFCURVE",
"782 205 OFFCURVE",
"737 205 CURVE SMOOTH",
"520 205 LINE",
"520 382 LINE",
"670 382 LINE SMOOTH",
"980 382 OFFCURVE",
"1137 528 OFFCURVE",
"1137 785 CURVE SMOOTH",
"1137 1042 OFFCURVE",
"980 1187 OFFCURVE",
"670 1187 CURVE SMOOTH"
);
},
{
closed = 1;
nodes = (
"796 972 OFFCURVE",
"879 914 OFFCURVE",
"879 785 CURVE SMOOTH",
"879 656 OFFCURVE",
"796 597 OFFCURVE",
"639 597 CURVE SMOOTH",
"520 597 LINE",
"520 972 LINE",
"639 972 LINE SMOOTH"
);
}
);
width = 1228;
}
);
unicode = 0050;
}
{
glyphname = Q;
layers = (
{
layerId = UUID0;
paths = (
{
closed = 1;
nodes = (
"299 1209 OFFCURVE",
"88 978 OFFCURVE",
"88 618 CURVE SMOOTH",
"88 339 OFFCURVE",
"214 139 OFFCURVE",
"417 62 CURVE",
"237 -142 LINE SMOOTH",
"220 -161 OFFCURVE",
"228 -192 OFFCURVE",
"254 -226 CURVE SMOOTH",
"280 -261 OFFCURVE",
"311 -280 OFFCURVE",
"337 -269 CURVE SMOOTH",
"425 -232 OFFCURVE",
"502 -220 OFFCURVE",
"562 -220 CURVE SMOOTH",
"676 -220 OFFCURVE",
"761 -258 OFFCURVE",
"853 -258 CURVE SMOOTH",
"916 -258 OFFCURVE",
"983 -240 OFFCURVE",
"1065 -179 CURVE SMOOTH",
"1095 -157 OFFCURVE",
"1091 -121 OFFCURVE",
"1070 -86 CURVE SMOOTH",
"1048 -49 OFFCURVE",
"1016 -31 OFFCURVE",
"993 -48 CURVE",
"933 -92 OFFCURVE",
"882 -105 OFFCURVE",
"833 -105 CURVE SMOOTH",
"757 -105 OFFCURVE",
"686 -73 OFFCURVE",
"593 -73 CURVE SMOOTH",
"546 -73 OFFCURVE",
"494 -81 OFFCURVE",
"433 -105 CURVE",
"562 30 LINE",
"574 29 OFFCURVE",
"594 28 OFFCURVE",
"614 28 CURVE SMOOTH",
"929 28 OFFCURVE",
"1140 258 OFFCURVE",
"1140 618 CURVE SMOOTH",
"1140 978 OFFCURVE",
"929 1209 OFFCURVE",
"614 1209 CURVE SMOOTH"
);
},
{
closed = 1;
nodes = (
"836 1061 OFFCURVE",
"982 896 OFFCURVE",
"982 618 CURVE SMOOTH",
"982 340 OFFCURVE",
"836 176 OFFCURVE",
"614 176 CURVE SMOOTH",
"392 176 OFFCURVE",
"246 340 OFFCURVE",
"246 618 CURVE SMOOTH",
"246 896 OFFCURVE",
"392 1061 OFFCURVE",
"614 1061 CURVE SMOOTH"
);
}
);
width = 1228;
},
{
layerId = "8538028E-5D6C-4318-9676-30148CDA39CA";
paths = (
{
closed = 1;
nodes = (
"284 1209 OFFCURVE",
"63 984 OFFCURVE",
"63 634 CURVE SMOOTH",
"63 371 OFFCURVE",
"188 178 OFFCURVE",
"390 98 CURVE",
"202 -102 LINE SMOOTH",
"175 -130 OFFCURVE",
"184 -182 OFFCURVE",
"207 -223 CURVE SMOOTH",
"230 -265 OFFCURVE",
"268 -297 OFFCURVE",
"297 -284 CURVE SMOOTH",
"382 -248 OFFCURVE",
"461 -237 OFFCURVE",
"526 -237 CURVE SMOOTH",
"660 -237 OFFCURVE",
"770 -281 OFFCURVE",
"882 -281 CURVE SMOOTH",
"953 -281 OFFCURVE",
"1025 -263 OFFCURVE",
"1105 -204 CURVE SMOOTH",
"1148 -172 OFFCURVE",
"1148 -122 OFFCURVE",
"1121 -67 CURVE SMOOTH",
"1096 -15 OFFCURVE",
"1054 14 OFFCURVE",
"1016 -6 CURVE SMOOTH",
"958 -37 OFFCURVE",
"909 -46 OFFCURVE",
"863 -46 CURVE SMOOTH",
"783 -46 OFFCURVE",
"711 -17 OFFCURVE",
"619 -17 CURVE SMOOTH",
"573 -17 OFFCURVE",
"522 -24 OFFCURVE",
"463 -46 CURVE",
"569 60 LINE",
"579 59 OFFCURVE",
"597 58 OFFCURVE",
"614 58 CURVE SMOOTH",
"944 58 OFFCURVE",
"1165 284 OFFCURVE",
"1165 634 CURVE SMOOTH",
"1165 984 OFFCURVE",
"944 1209 OFFCURVE",
"614 1209 CURVE SMOOTH"
);
},
{
closed = 1;
nodes = (
"801 982 OFFCURVE",
"897 852 OFFCURVE",
"897 634 CURVE SMOOTH",
"897 416 OFFCURVE",
"801 285 OFFCURVE",
"614 285 CURVE SMOOTH",
"427 285 OFFCURVE",
"331 416 OFFCURVE",
"331 634 CURVE SMOOTH",
"331 852 OFFCURVE",
"427 982 OFFCURVE",
"614 982 CURVE SMOOTH"
);
}
);
width = 1228;
}
);
unicode = 0051;
}
{
glyphname = R;
layers = (
{
layerId = UUID0;
paths = (
{
closed = 1;
nodes = (
"143 1187 LINE SMOOTH",
"98 1187 OFFCURVE",
"80 1169 OFFCURVE",
"80 1119 CURVE SMOOTH",
"80 1069 OFFCURVE",
"98 1051 OFFCURVE",
"143 1051 CURVE SMOOTH",
"265 1051 LINE",
"265 136 LINE",
"143 136 LINE SMOOTH",
"98 136 OFFCURVE",
"80 118 OFFCURVE",
"80 68 CURVE SMOOTH",
"80 18 OFFCURVE",
"98 0 OFFCURVE",
"143 0 CURVE SMOOTH",
"545 0 LINE SMOOTH",
"590 0 OFFCURVE",
"608 18 OFFCURVE",
"608 68 CURVE SMOOTH",
"608 118 OFFCURVE",
"590 136 OFFCURVE",
"545 136 CURVE SMOOTH",
"415 136 LINE",
"415 515 LINE",
"551 515 LINE SMOOTH",
"632 515 OFFCURVE",
"685 485 OFFCURVE",
"724 430 CURVE SMOOTH",
"785 345 OFFCURVE",
"812 255 OFFCURVE",
"871 139 CURVE SMOOTH",
"923 37 OFFCURVE",
"974 0 OFFCURVE",
"1053 0 CURVE SMOOTH",
"1125 0 LINE SMOOTH",
"1170 0 OFFCURVE",
"1188 18 OFFCURVE",
"1188 68 CURVE SMOOTH",
"1188 118 OFFCURVE",
"1170 136 OFFCURVE",
"1125 136 CURVE SMOOTH",
"1097 136 LINE SMOOTH",
"1059 136 OFFCURVE",
"1031 164 OFFCURVE",
"1007 208 CURVE SMOOTH",
"961 292 OFFCURVE",
"933 386 OFFCURVE",
"862 478 CURVE SMOOTH",
"837 511 OFFCURVE",
"805 535 OFFCURVE",
"769 549 CURVE",
"938 587 OFFCURVE",
"1046 696 OFFCURVE",
"1046 850 CURVE SMOOTH",
"1046 1051 OFFCURVE",
"904 1187 OFFCURVE",
"649 1187 CURVE SMOOTH"
);
},
{
closed = 1;
nodes = (
"793 1051 OFFCURVE",
"888 979 OFFCURVE",
"888 850 CURVE SMOOTH",
"888 708 OFFCURVE",
"784 651 OFFCURVE",
"618 651 CURVE SMOOTH",
"415 651 LINE",
"415 1051 LINE",
"628 1051 LINE SMOOTH"
);
}
);
width = 1228;
},
{
layerId = "8538028E-5D6C-4318-9676-30148CDA39CA";
paths = (
{
closed = 1;
nodes = (
"123 1187 LINE SMOOTH",
"78 1187 OFFCURVE",
"60 1169 OFFCURVE",
"60 1084 CURVE SMOOTH",
"60 999 OFFCURVE",
"78 982 OFFCURVE",
"123 982 CURVE SMOOTH",
"230 982 LINE",
"230 205 LINE",
"123 205 LINE SMOOTH",
"78 205 OFFCURVE",
"60 187 OFFCURVE",
"60 102 CURVE SMOOTH",
"60 17 OFFCURVE",
"78 0 OFFCURVE",
"123 0 CURVE SMOOTH",
"577 0 LINE SMOOTH",
"622 0 OFFCURVE",
"640 17 OFFCURVE",
"640 102 CURVE SMOOTH",
"640 187 OFFCURVE",
"622 205 OFFCURVE",
"577 205 CURVE SMOOTH",
"480 205 LINE",
"480 461 LINE",
"544 461 LINE SMOOTH",
"614 461 OFFCURVE",
"663 437 OFFCURVE",
"704 380 CURVE SMOOTH",
"760 302 OFFCURVE",
"786 215 OFFCURVE",
"830 139 CURVE SMOOTH",
"884 42 OFFCURVE",
"941 0 OFFCURVE",
"1048 0 CURVE SMOOTH",
"1145 0 LINE SMOOTH",
"1190 0 OFFCURVE",
"1208 17 OFFCURVE",
"1208 102 CURVE SMOOTH",
"1208 187 OFFCURVE",
"1190 205 OFFCURVE",
"1145 205 CURVE SMOOTH",
"1126 205 LINE SMOOTH",
"1090 205 OFFCURVE",
"1065 231 OFFCURVE",
"1041 271 CURVE SMOOTH",
"1005 331 OFFCURVE",
"974 408 OFFCURVE",
"925 471 CURVE SMOOTH",
"902 500 OFFCURVE",
"872 520 OFFCURVE",
"839 533 CURVE",
"999 572 OFFCURVE",
"1087 665 OFFCURVE",
"1087 824 CURVE SMOOTH",
"1087 1061 OFFCURVE",
"930 1187 OFFCURVE",
"650 1187 CURVE SMOOTH"
);
},
{
closed = 1;
nodes = (
"766 972 OFFCURVE",
"829 923 OFFCURVE",
"829 824 CURVE SMOOTH",
"829 725 OFFCURVE",
"766 676 OFFCURVE",
"629 676 CURVE SMOOTH",
"480 676 LINE",
"480 972 LINE",
"629 972 LINE SMOOTH"
);
}
);
width = 1228;
}
);
unicode = 0052;
}
{
glyphname = V;
layers = (
{
layerId = UUID0;
paths = (
{
closed = 1;
nodes = (
"821 1187 LINE SMOOTH",
"776 1187 OFFCURVE",
"758 1169 OFFCURVE",
"758 1119 CURVE SMOOTH",
"758 1069 OFFCURVE",
"776 1051 OFFCURVE",
"821 1051 CURVE SMOOTH",
"921 1051 LINE",
"612 167 LINE",
"306 1051 LINE",
"447 1051 LINE SMOOTH",
"492 1051 OFFCURVE",
"510 1069 OFFCURVE",
"510 1119 CURVE SMOOTH",
"510 1169 OFFCURVE",
"492 1187 OFFCURVE",
"447 1187 CURVE SMOOTH",
"73 1187 LINE SMOOTH",
"28 1187 OFFCURVE",
"10 1169 OFFCURVE",
"10 1119 CURVE SMOOTH",
"10 1069 OFFCURVE",
"28 1051 OFFCURVE",
"73 1051 CURVE SMOOTH",
"149 1051 LINE",
"505 43 LINE SMOOTH",
"521 -3 OFFCURVE",
"554 -22 OFFCURVE",
"611 -22 CURVE SMOOTH",
"668 -22 OFFCURVE",
"702 -4 OFFCURVE",
"719 43 CURVE SMOOTH",
"1078 1051 LINE",
"1155 1051 LINE SMOOTH",
"1200 1051 OFFCURVE",
"1218 1069 OFFCURVE",
"1218 1119 CURVE SMOOTH",
"1218 1169 OFFCURVE",
"1200 1187 OFFCURVE",
"1155 1187 CURVE SMOOTH"
);
}
);
width = 1228;
},
{
layerId = "8538028E-5D6C-4318-9676-30148CDA39CA";
paths = (
{
closed = 1;
nodes = (
"771 1187 LINE SMOOTH",
"726 1187 OFFCURVE",
"708 1169 OFFCURVE",
"708 1084 CURVE SMOOTH",
"708 999 OFFCURVE",
"726 982 OFFCURVE",
"771 982 CURVE SMOOTH",
"842 982 LINE",
"613 369 LINE",
"398 982 LINE",
"487 982 LINE SMOOTH",
"532 982 OFFCURVE",
"550 999 OFFCURVE",
"550 1084 CURVE SMOOTH",
"550 1169 OFFCURVE",
"532 1187 OFFCURVE",
"487 1187 CURVE SMOOTH",
"53 1187 LINE SMOOTH",
"8 1187 OFFCURVE",
"-10 1169 OFFCURVE",
"-10 1084 CURVE SMOOTH",
"-10 999 OFFCURVE",
"8 982 OFFCURVE",
"53 982 CURVE SMOOTH",
"130 982 LINE",
"480 43 LINE SMOOTH",
"497 -3 OFFCURVE",
"528 -22 OFFCURVE",
"611 -22 CURVE SMOOTH",
"694 -22 OFFCURVE",
"726 -4 OFFCURVE",
"744 43 CURVE SMOOTH",
"1107 982 LINE",
"1175 982 LINE SMOOTH",
"1220 982 OFFCURVE",
"1238 999 OFFCURVE",
"1238 1084 CURVE SMOOTH",
"1238 1169 OFFCURVE",
"1220 1187 OFFCURVE",
"1175 1187 CURVE SMOOTH"
);
}
);
width = 1228;
}
);
unicode = 0056;
}
{
glyphname = a;
layers = (
{
layerId = UUID0;
paths = (
{
closed = 1;
nodes = (
"489 946 OFFCURVE",
"356 914 OFFCURVE",
"244 855 CURVE SMOOTH",
"210 837 OFFCURVE",
"196 807 OFFCURVE",
"218 761 CURVE SMOOTH",
"240 715 OFFCURVE",
"267 703 OFFCURVE",
"304 722 CURVE SMOOTH",
"400 771 OFFCURVE",
"513 801 OFFCURVE",
"614 801 CURVE SMOOTH",
"777 801 OFFCURVE",
"844 741 OFFCURVE",
"844 613 CURVE SMOOTH",
"844 528 LINE",
"750 561 OFFCURVE",
"648 579 OFFCURVE",
"540 579 CURVE SMOOTH",
"321 579 OFFCURVE",
"135 494 OFFCURVE",
"135 270 CURVE SMOOTH",
"135 84 OFFCURVE",
"279 -22 OFFCURVE",
"479 -22 CURVE SMOOTH",
"626 -22 OFFCURVE",
"754 36 OFFCURVE",
"859 128 CURVE",
"878 40 OFFCURVE",
"949 0 OFFCURVE",
"1031 0 CURVE SMOOTH",
"1095 0 LINE SMOOTH",
"1140 0 OFFCURVE",
"1158 18 OFFCURVE",
"1158 68 CURVE SMOOTH",
"1158 118 OFFCURVE",
"1140 136 OFFCURVE",
"1095 136 CURVE SMOOTH",
"1060 136 LINE SMOOTH",
"1017 136 OFFCURVE",
"994 162 OFFCURVE",
"994 215 CURVE SMOOTH",
"994 613 LINE SMOOTH",
"994 832 OFFCURVE",
"869 946 OFFCURVE",
"618 946 CURVE SMOOTH"
);
},
{
closed = 1;
nodes = (
"644 438 OFFCURVE",
"752 423 OFFCURVE",
"844 393 CURVE",
"844 284 LINE",
"746 183 OFFCURVE",
"627 119 OFFCURVE",
"485 119 CURVE SMOOTH",
"364 119 OFFCURVE",
"293 176 OFFCURVE",
"293 273 CURVE SMOOTH",
"293 394 OFFCURVE",
"397 438 OFFCURVE",
"541 438 CURVE SMOOTH"
);
}
);
width = 1228;
},
{
layerId = "8538028E-5D6C-4318-9676-30148CDA39CA";
paths = (
{
closed = 1;
nodes = (
"494 946 OFFCURVE",
"351 927 OFFCURVE",
"226 882 CURVE SMOOTH",
"179 865 OFFCURVE",
"166 822 OFFCURVE",
"195 742 CURVE SMOOTH",
"224 662 OFFCURVE",
"262 652 OFFCURVE",
"304 666 CURVE SMOOTH",
"395 697 OFFCURVE",
"498 719 OFFCURVE",
"579 719 CURVE SMOOTH",
"725 719 OFFCURVE",
"769 674 OFFCURVE",
"769 588 CURVE SMOOTH",
"769 559 LINE",
"669 579 OFFCURVE",
"575 589 OFFCURVE",
"486 589 CURVE SMOOTH",
"250 589 OFFCURVE",
"110 482 OFFCURVE",
"110 295 CURVE SMOOTH",
"110 100 OFFCURVE",
"245 -22 OFFCURVE",
"474 -22 CURVE SMOOTH",
"601 -22 OFFCURVE",
"720 27 OFFCURVE",
"822 106 CURVE",
"857 30 OFFCURVE",
"925 0 OFFCURVE",
"1004 0 CURVE SMOOTH",
"1116 0 LINE SMOOTH",
"1161 0 OFFCURVE",
"1179 17 OFFCURVE",
"1179 102 CURVE SMOOTH",
"1179 187 OFFCURVE",
"1161 205 OFFCURVE",
"1116 205 CURVE SMOOTH",
"1085 205 LINE SMOOTH",
"1042 205 OFFCURVE",
"1019 237 OFFCURVE",
"1019 290 CURVE SMOOTH",
"1019 579 LINE SMOOTH",
"1019 804 OFFCURVE",
"908 946 OFFCURVE",
"603 946 CURVE SMOOTH"
);
},
{
closed = 1;
nodes = (
"592 383 OFFCURVE",
"676 375 OFFCURVE",
"769 356 CURVE",
"769 292 LINE",
"694 231 OFFCURVE",
"601 189 OFFCURVE",
"506 189 CURVE SMOOTH",
"417 189 OFFCURVE",
"368 222 OFFCURVE",
"368 285 CURVE SMOOTH",
"368 348 OFFCURVE",
"417 383 OFFCURVE",
"511 383 CURVE SMOOTH"
);
}
);
width = 1228;
}
);
unicode = 0061;
}
{
glyphname = b;
layers = (
{
layerId = UUID0;
paths = (
{
closed = 1;
nodes = (
"100 1312 LINE SMOOTH",
"55 1312 OFFCURVE",
"37 1294 OFFCURVE",
"37 1244 CURVE SMOOTH",
"37 1194 OFFCURVE",
"55 1176 OFFCURVE",
"100 1176 CURVE SMOOTH",
"202 1176 LINE",
"202 136 LINE",
"120 136 LINE SMOOTH",
"75 136 OFFCURVE",
"57 118 OFFCURVE",
"57 68 CURVE SMOOTH",
"57 18 OFFCURVE",
"75 0 OFFCURVE",
"120 0 CURVE SMOOTH",
"279 0 LINE SMOOTH",
"324 0 OFFCURVE",
"342 18 OFFCURVE",
"342 68 CURVE SMOOTH",
"342 148 LINE",
"424 41 OFFCURVE",
"536 -22 OFFCURVE",
"669 -22 CURVE SMOOTH",
"916 -22 OFFCURVE",
"1101 160 OFFCURVE",
"1101 462 CURVE SMOOTH",
"1101 764 OFFCURVE",
"916 946 OFFCURVE",
"669 946 CURVE SMOOTH",
"536 946 OFFCURVE",
"432 883 OFFCURVE",
"352 781 CURVE",
"352 1244 LINE SMOOTH",
"352 1294 OFFCURVE",
"334 1312 OFFCURVE",
"289 1312 CURVE SMOOTH"
);
},
{
closed = 1;
nodes = (
"840 798 OFFCURVE",
"943 658 OFFCURVE",
"943 462 CURVE SMOOTH",
"943 266 OFFCURVE",
"840 126 OFFCURVE",
"659 126 CURVE SMOOTH",
"482 126 OFFCURVE",
"352 250 OFFCURVE",
"352 462 CURVE SMOOTH",
"352 674 OFFCURVE",
"482 798 OFFCURVE",
"659 798 CURVE SMOOTH"
);
}
);
width = 1228;
},
{
layerId = "8538028E-5D6C-4318-9676-30148CDA39CA";
paths = (
{
closed = 1;
nodes = (
"90 1312 LINE SMOOTH",
"45 1312 OFFCURVE",
"27 1294 OFFCURVE",
"27 1209 CURVE SMOOTH",
"27 1124 OFFCURVE",
"45 1107 OFFCURVE",
"90 1107 CURVE SMOOTH",
"187 1107 LINE",
"187 205 LINE",
"110 205 LINE SMOOTH",
"65 205 OFFCURVE",
"47 188 OFFCURVE",
"47 103 CURVE SMOOTH",
"47 18 OFFCURVE",
"65 0 OFFCURVE",
"110 0 CURVE SMOOTH",
"334 0 LINE SMOOTH",
"379 0 OFFCURVE",
"397 18 OFFCURVE",
"397 63 CURVE SMOOTH",
"397 147 LINE",
"465 42 OFFCURVE",
"572 -22 OFFCURVE",
"700 -22 CURVE SMOOTH",
"969 -22 OFFCURVE",
"1131 192 OFFCURVE",
"1131 462 CURVE SMOOTH",
"1131 732 OFFCURVE",
"969 946 OFFCURVE",
"700 946 CURVE SMOOTH",
"594 946 OFFCURVE",
"504 902 OFFCURVE",
"437 828 CURVE",
"437 1249 LINE SMOOTH",
"437 1294 OFFCURVE",
"419 1312 OFFCURVE",
"374 1312 CURVE SMOOTH"
);
},
{
closed = 1;
nodes = (
"785 719 OFFCURVE",
"863 618 OFFCURVE",
"863 462 CURVE SMOOTH",
"863 306 OFFCURVE",
"785 205 OFFCURVE",
"660 205 CURVE SMOOTH",
"535 205 OFFCURVE",
"430 296 OFFCURVE",
"430 462 CURVE SMOOTH",
"430 628 OFFCURVE",
"535 719 OFFCURVE",
"660 719 CURVE SMOOTH"
);
}
);
width = 1228;
}
);
unicode = 0062;
}
{
glyphname = c;
layers = (
{
layerId = UUID0;
paths = (
{
closed = 1;
nodes = (
"918 946 OFFCURVE",
"899 927 OFFCURVE",
"899 881 CURVE SMOOTH",
"899 821 LINE",
"831 900 OFFCURVE",
"729 946 OFFCURVE",
"609 946 CURVE SMOOTH",
"322 946 OFFCURVE",
"127 739 OFFCURVE",
"127 462 CURVE SMOOTH",
"127 185 OFFCURVE",
"317 -22 OFFCURVE",
"609 -22 CURVE SMOOTH",
"761 -22 OFFCURVE",
"914 26 OFFCURVE",
"1021 106 CURVE SMOOTH",
"1060 134 OFFCURVE",
"1060 176 OFFCURVE",
"1038 212 CURVE SMOOTH",
"1010 258 OFFCURVE",
"979 263 OFFCURVE",
"945 237 CURVE SMOOTH",
"850 164 OFFCURVE",
"731 126 OFFCURVE",
"609 126 CURVE SMOOTH",
"414 126 OFFCURVE",
"285 267 OFFCURVE",
"285 462 CURVE SMOOTH",
"285 657 OFFCURVE",
"424 798 OFFCURVE",
"619 798 CURVE SMOOTH",
"802 798 OFFCURVE",
"899 712 OFFCURVE",
"899 591 CURVE SMOOTH",
"899 545 OFFCURVE",
"918 526 OFFCURVE",
"974 526 CURVE SMOOTH",
"1030 526 OFFCURVE",
"1049 545 OFFCURVE",
"1049 591 CURVE SMOOTH",
"1049 881 LINE SMOOTH",
"1049 927 OFFCURVE",
"1030 946 OFFCURVE",
"974 946 CURVE SMOOTH"
);
}
);
width = 1228;
},
{
layerId = "8538028E-5D6C-4318-9676-30148CDA39CA";
paths = (
{
closed = 1;
nodes = (
"870 946 OFFCURVE",
"833 928 OFFCURVE",
"833 883 CURVE SMOOTH",
"833 829 LINE",
"787 909 OFFCURVE",
"711 946 OFFCURVE",
"604 946 CURVE SMOOTH",
"335 946 OFFCURVE",
"127 747 OFFCURVE",
"127 462 CURVE SMOOTH",
"127 182 OFFCURVE",
"325 -22 OFFCURVE",
"634 -22 CURVE SMOOTH",
"776 -22 OFFCURVE",
"916 22 OFFCURVE",
"1035 88 CURVE SMOOTH",
"1077 111 OFFCURVE",
"1093 151 OFFCURVE",
"1060 230 CURVE SMOOTH",
"1027 308 OFFCURVE",
"987 322 OFFCURVE",
"948 299 CURVE SMOOTH",
"850 242 OFFCURVE",
"740 205 OFFCURVE",
"634 205 CURVE SMOOTH",
"489 205 OFFCURVE",
"395 306 OFFCURVE",
"395 462 CURVE SMOOTH",
"395 618 OFFCURVE",
"489 719 OFFCURVE",
"634 719 CURVE SMOOTH",
"753 719 OFFCURVE",
"813 644 OFFCURVE",
"813 562 CURVE SMOOTH",
"813 517 OFFCURVE",
"836 499 OFFCURVE",
"931 499 CURVE SMOOTH",
"1026 499 OFFCURVE",
"1063 517 OFFCURVE",
"1063 562 CURVE SMOOTH",
"1063 883 LINE SMOOTH",
"1063 928 OFFCURVE",
"1040 946 OFFCURVE",
"955 946 CURVE SMOOTH"
);
}
);
width = 1228;
}
);
unicode = 0063;
}
{
glyphname = t;
layers = (
{
layerId = UUID0;
paths = (
{
closed = 1;
nodes = (
"402 1209 OFFCURVE",
"383 1190 OFFCURVE",
"383 1144 CURVE SMOOTH",
"383 844 LINE",
"180 844 LINE SMOOTH",
"135 844 OFFCURVE",
"117 826 OFFCURVE",
"117 776 CURVE SMOOTH",
"117 726 OFFCURVE",
"135 708 OFFCURVE",
"180 708 CURVE SMOOTH",
"383 708 LINE",
"383 331 LINE SMOOTH",
"383 102 OFFCURVE",
"478 -22 OFFCURVE",
"710 -22 CURVE SMOOTH",
"825 -22 OFFCURVE",
"963 27 OFFCURVE",
"1063 90 CURVE SMOOTH",
"1096 111 OFFCURVE",
"1108 139 OFFCURVE",
"1083 187 CURVE SMOOTH",
"1058 235 OFFCURVE",
"1024 243 OFFCURVE",
"994 223 CURVE SMOOTH",
"907 166 OFFCURVE",
"803 124 OFFCURVE",
"710 124 CURVE SMOOTH",
"576 124 OFFCURVE",
"533 197 OFFCURVE",
"533 344 CURVE SMOOTH",
"533 708 LINE",
"944 708 LINE SMOOTH",
"989 708 OFFCURVE",
"1007 726 OFFCURVE",
"1007 776 CURVE SMOOTH",
"1007 826 OFFCURVE",
"989 844 OFFCURVE",
"944 844 CURVE SMOOTH",
"533 844 LINE",
"533 1144 LINE SMOOTH",
"533 1190 OFFCURVE",
"514 1209 OFFCURVE",
"458 1209 CURVE SMOOTH"
);
}
);
width = 1228;
},
{
layerId = "8538028E-5D6C-4318-9676-30148CDA39CA";
paths = (
{
closed = 1;
nodes = (
"390 1209 OFFCURVE",
"353 1191 OFFCURVE",
"353 1146 CURVE SMOOTH",
"353 864 LINE",
"160 864 LINE SMOOTH",
"115 864 OFFCURVE",
"97 841 OFFCURVE",
"97 756 CURVE SMOOTH",
"97 671 OFFCURVE",
"115 649 OFFCURVE",
"160 649 CURVE SMOOTH",
"353 649 LINE",
"353 358 LINE SMOOTH",
"353 109 OFFCURVE",
"478 -22 OFFCURVE",
"710 -22 CURVE SMOOTH",
"825 -22 OFFCURVE",
"946 21 OFFCURVE",
"1067 82 CURVE SMOOTH",
"1111 104 OFFCURVE",
"1123 138 OFFCURVE",
"1091 217 CURVE SMOOTH",
"1060 296 OFFCURVE",
"1024 301 OFFCURVE",
"983 283 CURVE SMOOTH",
"895 244 OFFCURVE",
"800 205 OFFCURVE",
"732 205 CURVE SMOOTH",
"650 205 OFFCURVE",
"603 256 OFFCURVE",
"603 371 CURVE SMOOTH",
"603 649 LINE",
"974 649 LINE SMOOTH",
"1019 649 OFFCURVE",
"1037 671 OFFCURVE",
"1037 756 CURVE SMOOTH",
"1037 841 OFFCURVE",
"1019 864 OFFCURVE",
"974 864 CURVE SMOOTH",
"603 864 LINE",
"603 1146 LINE SMOOTH",
"603 1191 OFFCURVE",
"580 1209 OFFCURVE",
"485 1209 CURVE SMOOTH"
);
}
);
width = 1228;
}
);
unicode = 0074;
}
{
glyphname = u;
layers = (
{
layerId = UUID0;
paths = (
{
closed = 1;
nodes = (
"707 924 LINE SMOOTH",
"662 924 OFFCURVE",
"644 906 OFFCURVE",
"644 856 CURVE SMOOTH",
"644 806 OFFCURVE",
"662 788 OFFCURVE",
"707 788 CURVE SMOOTH",
"849 788 LINE",
"849 502 LINE SMOOTH",
"849 284 OFFCURVE",
"700 126 OFFCURVE",
"529 126 CURVE SMOOTH",
"420 126 OFFCURVE",
"367 204 OFFCURVE",
"367 319 CURVE SMOOTH",
"367 856 LINE SMOOTH",
"367 906 OFFCURVE",
"349 924 OFFCURVE",
"304 924 CURVE SMOOTH",
"135 924 LINE SMOOTH",
"90 924 OFFCURVE",
"72 906 OFFCURVE",
"72 856 CURVE SMOOTH",
"72 806 OFFCURVE",
"90 788 OFFCURVE",
"135 788 CURVE SMOOTH",
"217 788 LINE",
"217 304 LINE SMOOTH",
"217 104 OFFCURVE",
"330 -22 OFFCURVE",
"514 -22 CURVE SMOOTH",
"650 -22 OFFCURVE",
"771 52 OFFCURVE",
"859 188 CURVE",
"859 67 LINE SMOOTH",
"859 17 OFFCURVE",
"877 0 OFFCURVE",
"922 0 CURVE SMOOTH",
"1081 0 LINE SMOOTH",
"1126 0 OFFCURVE",
"1144 18 OFFCURVE",
"1144 68 CURVE SMOOTH",
"1144 118 OFFCURVE",
"1126 136 OFFCURVE",
"1081 136 CURVE SMOOTH",
"999 136 LINE",
"999 856 LINE SMOOTH",
"999 906 OFFCURVE",
"981 924 OFFCURVE",
"936 924 CURVE SMOOTH"
);
}
);
width = 1228;
},
{
layerId = "8538028E-5D6C-4318-9676-30148CDA39CA";
paths = (
{
closed = 1;
nodes = (
"675 924 LINE SMOOTH",
"630 924 OFFCURVE",
"612 907 OFFCURVE",
"612 822 CURVE SMOOTH",
"612 737 OFFCURVE",
"630 719 OFFCURVE",
"675 719 CURVE SMOOTH",
"782 719 LINE",
"782 556 LINE SMOOTH",
"782 368 OFFCURVE",
"676 205 OFFCURVE",
"557 205 CURVE SMOOTH",
"469 205 OFFCURVE",
"440 265 OFFCURVE",
"440 363 CURVE SMOOTH",
"440 861 LINE SMOOTH",
"440 906 OFFCURVE",
"422 924 OFFCURVE",
"377 924 CURVE SMOOTH",
"113 924 LINE SMOOTH",
"68 924 OFFCURVE",
"50 907 OFFCURVE",
"50 822 CURVE SMOOTH",
"50 737 OFFCURVE",
"68 719 OFFCURVE",
"113 719 CURVE SMOOTH",
"190 719 LINE",
"190 304 LINE SMOOTH",
"190 104 OFFCURVE",
"308 -22 OFFCURVE",
"492 -22 CURVE SMOOTH",
"617 -22 OFFCURVE",
"729 46 OFFCURVE",
"822 208 CURVE",
"822 63 LINE SMOOTH",
"822 18 OFFCURVE",
"840 0 OFFCURVE",
"885 0 CURVE SMOOTH",
"1109 0 LINE SMOOTH",
"1154 0 OFFCURVE",
"1172 18 OFFCURVE",
"1172 103 CURVE SMOOTH",
"1172 188 OFFCURVE",
"1154 205 OFFCURVE",
"1109 205 CURVE SMOOTH",
"1032 205 LINE",
"1032 861 LINE SMOOTH",
"1032 906 OFFCURVE",
"1014 924 OFFCURVE",
"969 924 CURVE SMOOTH"
);
}
);
width = 1228;
}
);
unicode = 0075;
}
{
glyphname = v;
layers = (
{
layerId = UUID0;
paths = (
{
closed = 1;
nodes = (
"801 924 LINE SMOOTH",
"756 924 OFFCURVE",
"738 906 OFFCURVE",
"738 856 CURVE SMOOTH",
"738 806 OFFCURVE",
"756 788 OFFCURVE",
"801 788 CURVE SMOOTH",
"888 788 LINE",
"612 136 LINE",
"339 788 LINE",
"467 788 LINE SMOOTH",
"512 788 OFFCURVE",
"530 806 OFFCURVE",
"530 856 CURVE SMOOTH",
"530 906 OFFCURVE",
"512 924 OFFCURVE",
"467 924 CURVE SMOOTH",
"113 924 LINE SMOOTH",
"68 924 OFFCURVE",
"50 906 OFFCURVE",
"50 856 CURVE SMOOTH",
"50 806 OFFCURVE",
"68 788 OFFCURVE",
"113 788 CURVE SMOOTH",
"175 788 LINE",
"495 43 LINE SMOOTH",
"514 -1 OFFCURVE",
"545 -22 OFFCURVE",
"611 -22 CURVE SMOOTH",
"677 -22 OFFCURVE",
"710 -2 OFFCURVE",
"729 43 CURVE SMOOTH",
"1052 788 LINE",
"1115 788 LINE SMOOTH",
"1160 788 OFFCURVE",
"1178 806 OFFCURVE",
"1178 856 CURVE SMOOTH",
"1178 906 OFFCURVE",
"1160 924 OFFCURVE",
"1115 924 CURVE SMOOTH"
);
}
);
width = 1228;
},
{
layerId = "8538028E-5D6C-4318-9676-30148CDA39CA";
paths = (
{
closed = 1;
nodes = (
"741 924 LINE SMOOTH",
"696 924 OFFCURVE",
"678 906 OFFCURVE",
"678 821 CURVE SMOOTH",
"678 736 OFFCURVE",
"696 719 OFFCURVE",
"741 719 CURVE SMOOTH",
"796 719 LINE",
"617 278 LINE",
"440 719 LINE",
"507 719 LINE SMOOTH",
"552 719 OFFCURVE",
"570 736 OFFCURVE",
"570 821 CURVE SMOOTH",
"570 906 OFFCURVE",
"552 924 OFFCURVE",
"507 924 CURVE SMOOTH",
"103 924 LINE SMOOTH",
"58 924 OFFCURVE",
"40 906 OFFCURVE",
"40 821 CURVE SMOOTH",
"40 736 OFFCURVE",
"58 719 OFFCURVE",
"103 719 CURVE SMOOTH",
"169 719 LINE",
"460 43 LINE SMOOTH",
"479 -1 OFFCURVE",
"514 -22 OFFCURVE",
"611 -22 CURVE SMOOTH",
"707 -22 OFFCURVE",
"745 -2 OFFCURVE",
"764 43 CURVE SMOOTH",
"1057 719 LINE",
"1125 719 LINE SMOOTH",
"1170 719 OFFCURVE",
"1188 736 OFFCURVE",
"1188 821 CURVE SMOOTH",
"1188 906 OFFCURVE",
"1170 924 OFFCURVE",
"1125 924 CURVE SMOOTH"
);
}
);
width = 1228;
}
);
unicode = 0076;
}
{
glyphname = w;
layers = (
{
layerId = UUID0;
paths = (
{
closed = 1;
nodes = (
"901 924 LINE SMOOTH",
"856 924 OFFCURVE",
"838 906 OFFCURVE",
"838 856 CURVE SMOOTH",
"838 806 OFFCURVE",
"856 788 OFFCURVE",
"901 788 CURVE SMOOTH",
"1002 788 LINE",
"854 206 LINE",
"688 677 LINE SMOOTH",
"679 703 OFFCURVE",
"656 717 OFFCURVE",
"611 717 CURVE SMOOTH",
"567 717 OFFCURVE",
"544 696 OFFCURVE",
"535 670 CURVE SMOOTH",
"368 206 LINE",
"224 788 LINE",
"347 788 LINE SMOOTH",
"392 788 OFFCURVE",
"410 806 OFFCURVE",
"410 856 CURVE SMOOTH",
"410 906 OFFCURVE",
"392 924 OFFCURVE",
"347 924 CURVE SMOOTH",
"53 924 LINE SMOOTH",
"8 924 OFFCURVE",
"-10 906 OFFCURVE",
"-10 856 CURVE SMOOTH",
"-10 806 OFFCURVE",
"8 788 OFFCURVE",
"53 788 CURVE SMOOTH",
"71 788 LINE",
"264 43 LINE SMOOTH",
"276 -4 OFFCURVE",
"298 -22 OFFCURVE",
"349 -22 CURVE SMOOTH",
"406 -22 OFFCURVE",
"439 -3 OFFCURVE",
"455 43 CURVE SMOOTH",
"610 477 LINE",
"763 43 LINE SMOOTH",
"779 -2 OFFCURVE",
"810 -22 OFFCURVE",
"867 -22 CURVE SMOOTH",
"918 -22 OFFCURVE",
"941 -5 OFFCURVE",
"954 43 CURVE SMOOTH",
"1151 788 LINE",
"1175 788 LINE SMOOTH",
"1220 788 OFFCURVE",
"1238 806 OFFCURVE",
"1238 856 CURVE SMOOTH",
"1238 906 OFFCURVE",
"1220 924 OFFCURVE",
"1175 924 CURVE SMOOTH"
);
}
);
width = 1228;
},
{
layerId = "8538028E-5D6C-4318-9676-30148CDA39CA";
paths = (
{
closed = 1;
nodes = (
"851 924 LINE SMOOTH",
"806 924 OFFCURVE",
"788 906 OFFCURVE",
"788 821 CURVE SMOOTH",
"788 736 OFFCURVE",
"806 719 OFFCURVE",
"851 719 CURVE SMOOTH",
"923 719 LINE",
"845 331 LINE",
"708 677 LINE SMOOTH",
"694 711 OFFCURVE",
"670 727 OFFCURVE",
"611 727 CURVE SMOOTH",
"553 727 OFFCURVE",
"529 705 OFFCURVE",
"515 670 CURVE SMOOTH",
"377 331 LINE",
"302 719 LINE",
"387 719 LINE SMOOTH",
"432 719 OFFCURVE",
"450 736 OFFCURVE",
"450 821 CURVE SMOOTH",
"450 906 OFFCURVE",
"432 924 OFFCURVE",
"387 924 CURVE SMOOTH",
"43 924 LINE SMOOTH",
"-2 924 OFFCURVE",
"-20 906 OFFCURVE",
"-20 821 CURVE SMOOTH",
"-20 736 OFFCURVE",
"-2 719 OFFCURVE",
"43 719 CURVE SMOOTH",
"77 719 LINE",
"220 43 LINE SMOOTH",
"230 -4 OFFCURVE",
"258 -22 OFFCURVE",
"339 -22 CURVE SMOOTH",
"420 -22 OFFCURVE",
"450 -1 OFFCURVE",
"468 43 CURVE SMOOTH",
"610 398 LINE",
"750 43 LINE SMOOTH",
"767 -1 OFFCURVE",
"796 -22 OFFCURVE",
"877 -22 CURVE SMOOTH",
"958 -22 OFFCURVE",
"988 -5 OFFCURVE",
"998 43 CURVE SMOOTH",
"1144 719 LINE",
"1185 719 LINE SMOOTH",
"1230 719 OFFCURVE",
"1248 736 OFFCURVE",
"1248 821 CURVE SMOOTH",
"1248 906 OFFCURVE",
"1230 924 OFFCURVE",
"1185 924 CURVE SMOOTH"
);
}
);
width = 1228;
}
);
unicode = 0077;
}
{
glyphname = Dcroat;
layers = (
{
background = {
paths = (
{
closed = 1;
nodes = (
"143 1187 LINE SMOOTH",
"98 1187 OFFCURVE",
"80 1169 OFFCURVE",
"80 1119 CURVE SMOOTH",
"80 1069 OFFCURVE",
"98 1051 OFFCURVE",
"143 1051 CURVE SMOOTH",
"245 1051 LINE",
"245 136 LINE",
"143 136 LINE SMOOTH",
"98 136 OFFCURVE",
"80 118 OFFCURVE",
"80 68 CURVE SMOOTH",
"80 18 OFFCURVE",
"98 0 OFFCURVE",
"143 0 CURVE SMOOTH",
"1037 0 LINE SMOOTH",
"1082 0 OFFCURVE",
"1100 18 OFFCURVE",
"1100 68 CURVE SMOOTH",
"1100 365 LINE SMOOTH",
"1100 411 OFFCURVE",
"1081 430 OFFCURVE",
"1025 430 CURVE SMOOTH",
"969 430 OFFCURVE",
"950 411 OFFCURVE",
"950 365 CURVE SMOOTH",
"950 136 LINE",
"395 136 LINE",
"395 544 LINE",
"700 544 LINE SMOOTH",
"745 544 OFFCURVE",
"763 562 OFFCURVE",
"763 612 CURVE SMOOTH",
"763 662 OFFCURVE",
"745 680 OFFCURVE",
"700 680 CURVE SMOOTH",
"395 680 LINE",
"395 1051 LINE",
"930 1051 LINE",
"930 865 LINE SMOOTH",
"930 819 OFFCURVE",
"949 800 OFFCURVE",
"1005 800 CURVE SMOOTH",
"1061 800 OFFCURVE",
"1080 819 OFFCURVE",
"1080 865 CURVE SMOOTH",
"1080 1119 LINE SMOOTH",
"1080 1169 OFFCURVE",
"1062 1187 OFFCURVE",
"1017 1187 CURVE SMOOTH"
);
},
{
closed = 1;
nodes = (
"669 836 OFFCURVE",
"653 817 OFFCURVE",
"653 771 CURVE SMOOTH",
"653 453 LINE SMOOTH",
"653 407 OFFCURVE",
"669 388 OFFCURVE",
"724 388 CURVE SMOOTH",
"779 388 OFFCURVE",
"795 407 OFFCURVE",
"795 453 CURVE SMOOTH",
"795 771 LINE SMOOTH",
"795 817 OFFCURVE",
"779 836 OFFCURVE",
"724 836 CURVE SMOOTH"
);
}
);
};
components = (
{
alignment = -1;
name = D;
},
{
alignment = -1;
name = macron;
transform = "{1, 0, 0, 1, -196, -568}";
}
);
layerId = UUID0;
width = 1228;
},
{
background = {
paths = (
{
closed = 1;
nodes = (
"123 1187 LINE SMOOTH",
"78 1187 OFFCURVE",
"60 1169 OFFCURVE",
"60 1084 CURVE SMOOTH",
"60 999 OFFCURVE",
"78 982 OFFCURVE",
"123 982 CURVE SMOOTH",
"220 982 LINE",
"220 205 LINE",
"123 205 LINE SMOOTH",
"78 205 OFFCURVE",
"60 187 OFFCURVE",
"60 102 CURVE SMOOTH",
"60 17 OFFCURVE",
"78 0 OFFCURVE",
"123 0 CURVE SMOOTH",
"1055 0 LINE SMOOTH",
"1101 0 OFFCURVE",
"1120 19 OFFCURVE",
"1120 65 CURVE SMOOTH",
"1120 397 LINE SMOOTH",
"1120 442 OFFCURVE",
"1096 460 OFFCURVE",
"1006 460 CURVE SMOOTH",
"916 460 OFFCURVE",
"880 442 OFFCURVE",
"880 397 CURVE SMOOTH",
"880 215 LINE",
"470 215 LINE",
"470 504 LINE",
"714 504 LINE SMOOTH",
"759 504 OFFCURVE",
"777 526 OFFCURVE",
"777 611 CURVE SMOOTH",
"777 696 OFFCURVE",
"759 719 OFFCURVE",
"714 719 CURVE SMOOTH",
"470 719 LINE",
"470 972 LINE",
"870 972 LINE",
"870 840 LINE SMOOTH",
"870 795 OFFCURVE",
"893 777 OFFCURVE",
"978 777 CURVE SMOOTH",
"1063 777 OFFCURVE",
"1100 795 OFFCURVE",
"1100 840 CURVE SMOOTH",
"1100 1122 LINE SMOOTH",
"1100 1168 OFFCURVE",
"1081 1187 OFFCURVE",
"1035 1187 CURVE SMOOTH"
);
},
{
closed = 1;
nodes = (
"583 716 OFFCURVE",
"555 697 OFFCURVE",
"555 651 CURVE SMOOTH",
"555 573 LINE SMOOTH",
"555 527 OFFCURVE",
"583 508 OFFCURVE",
"660 508 CURVE SMOOTH",
"737 508 OFFCURVE",
"765 527 OFFCURVE",
"765 573 CURVE SMOOTH",
"765 651 LINE SMOOTH",
"765 697 OFFCURVE",
"737 716 OFFCURVE",
"660 716 CURVE SMOOTH"
);
}
);
};
components = (
{
alignment = -1;
name = D;
},
{
alignment = -1;
name = macron;
transform = "{1, 0, 0, 1, -198, -563}";
}
);
layerId = "8538028E-5D6C-4318-9676-30148CDA39CA";
width = 1228;
}
);
unicode = 0110;
}
{
color = 6;
glyphname = dcroat;
layers = (
{
layerId = UUID0;
paths = (
{
closed = 1;
nodes = (
"919 1312 LINE SMOOTH",
"874 1312 OFFCURVE",
"856 1294 OFFCURVE",
"856 1244 CURVE SMOOTH",
"856 674 LINE",
"884 702 LINE",
"805 815 OFFCURVE",
"700 886 OFFCURVE",
"559 886 CURVE SMOOTH",
"324 886 OFFCURVE",
"149 716 OFFCURVE",
"149 432 CURVE SMOOTH",
"149 148 OFFCURVE",
"324 -22 OFFCURVE",
"559 -22 CURVE SMOOTH",
"700 -22 OFFCURVE",
"814 53 OFFCURVE",
"894 178 CURVE",
"866 205 LINE",
"866 68 LINE SMOOTH",
"866 18 OFFCURVE",
"884 0 OFFCURVE",
"929 0 CURVE SMOOTH",
"1088 0 LINE SMOOTH",
"1133 0 OFFCURVE",
"1151 18 OFFCURVE",
"1151 68 CURVE SMOOTH",
"1151 118 OFFCURVE",
"1133 136 OFFCURVE",
"1088 136 CURVE SMOOTH",
"1006 136 LINE",
"1006 1244 LINE SMOOTH",
"1006 1294 OFFCURVE",
"988 1312 OFFCURVE",
"943 1312 CURVE SMOOTH"
);
},
{
closed = 1;
nodes = (
"734 738 OFFCURVE",
"856 626 OFFCURVE",
"856 432 CURVE SMOOTH",
"856 238 OFFCURVE",
"734 126 OFFCURVE",
"569 126 CURVE SMOOTH",
"400 126 OFFCURVE",
"303 254 OFFCURVE",
"303 432 CURVE SMOOTH",
"303 610 OFFCURVE",
"400 738 OFFCURVE",
"569 738 CURVE SMOOTH"
);
},
{
closed = 1;
nodes = (
"553 1106 LINE SMOOTH",
"508 1106 OFFCURVE",
"490 1088 OFFCURVE",
"490 1038 CURVE SMOOTH",
"490 988 OFFCURVE",
"508 970 OFFCURVE",
"553 970 CURVE SMOOTH",
"1115 970 LINE SMOOTH",
"1160 970 OFFCURVE",
"1178 988 OFFCURVE",
"1178 1038 CURVE SMOOTH",
"1178 1088 OFFCURVE",
"1160 1106 OFFCURVE",
"1115 1106 CURVE SMOOTH"
);
},
{
closed = 1;
nodes = (
"694 1312 LINE SMOOTH",
"649 1312 OFFCURVE",
"631 1294 OFFCURVE",
"631 1244 CURVE SMOOTH",
"631 1194 OFFCURVE",
"649 1176 OFFCURVE",
"694 1176 CURVE SMOOTH",
"931 1176 LINE",
"931 1312 LINE"
);
}
);
width = 1228;
},
{
layerId = "8538028E-5D6C-4318-9676-30148CDA39CA";
paths = (
{
closed = 1;
nodes = (
"834 1312 LINE SMOOTH",
"789 1312 OFFCURVE",
"771 1294 OFFCURVE",
"771 1249 CURVE SMOOTH",
"771 616 LINE",
"817 676 LINE",
"762 781 OFFCURVE",
"653 846 OFFCURVE",
"528 846 CURVE SMOOTH",
"271 846 OFFCURVE",
"123 649 OFFCURVE",
"123 412 CURVE SMOOTH",
"123 172 OFFCURVE",
"271 -22 OFFCURVE",
"528 -22 CURVE SMOOTH",
"673 -22 OFFCURVE",
"800 63 OFFCURVE",
"848 197 CURVE",
"811 259 LINE",
"811 63 LINE SMOOTH",
"811 18 OFFCURVE",
"829 0 OFFCURVE",
"874 0 CURVE SMOOTH",
"1108 0 LINE SMOOTH",
"1153 0 OFFCURVE",
"1171 18 OFFCURVE",
"1171 103 CURVE SMOOTH",
"1171 188 OFFCURVE",
"1153 205 OFFCURVE",
"1108 205 CURVE SMOOTH",
"1021 205 LINE",
"1021 1249 LINE SMOOTH",
"1021 1294 OFFCURVE",
"1003 1312 OFFCURVE",
"958 1312 CURVE SMOOTH"
);
},
{
closed = 1;
nodes = (
"683 614 OFFCURVE",
"778 545 OFFCURVE",
"778 412 CURVE SMOOTH",
"778 281 OFFCURVE",
"683 210 OFFCURVE",
"568 210 CURVE SMOOTH",
"455 210 OFFCURVE",
"385 288 OFFCURVE",
"385 412 CURVE SMOOTH",
"385 536 OFFCURVE",
"455 614 OFFCURVE",
"568 614 CURVE SMOOTH"
);
},
{
closed = 1;
nodes = (
"566 1155 LINE SMOOTH",
"521 1155 OFFCURVE",
"503 1137 OFFCURVE",
"503 1052 CURVE SMOOTH",
"503 967 OFFCURVE",
"521 950 OFFCURVE",
"566 950 CURVE SMOOTH",
"1128 950 LINE SMOOTH",
"1173 950 OFFCURVE",
"1191 967 OFFCURVE",
"1191 1052 CURVE SMOOTH",
"1191 1137 OFFCURVE",
"1173 1155 OFFCURVE",
"1128 1155 CURVE SMOOTH"
);
},
{
closed = 1;
nodes = (
"838 1312 LINE SMOOTH",
"793 1312 OFFCURVE",
"775 1295 OFFCURVE",
"775 1210 CURVE SMOOTH",
"775 1125 OFFCURVE",
"793 1107 OFFCURVE",
"838 1107 CURVE SMOOTH",
"924 1107 LINE",
"924 1312 LINE"
);
}
);
width = 1228;
}
);
unicode = 0111;
}
{
color = 3;
glyphname = eogonek;
layers = (
{
layerId = UUID0;
paths = (
{
closed = 1;
nodes = (
"344 946 OFFCURVE",
"146 753 OFFCURVE",
"146 462 CURVE SMOOTH",
"146 161 OFFCURVE",
"319 -22 OFFCURVE",
"623 -22 CURVE SMOOTH",
"671 -22 OFFCURVE",
"719 -17 OFFCURVE",
"765 -9 CURVE",
"671 -94 OFFCURVE",
"611 -182 OFFCURVE",
"611 -281 CURVE SMOOTH",
"611 -397 OFFCURVE",
"687 -472 OFFCURVE",
"811 -472 CURVE SMOOTH",
"873 -472 OFFCURVE",
"929 -462 OFFCURVE",
"975 -446 CURVE SMOOTH",
"1004 -436 OFFCURVE",
"1013 -415 OFFCURVE",
"1007 -374 CURVE SMOOTH",
"1002 -337 OFFCURVE",
"983 -322 OFFCURVE",
"957 -326 CURVE SMOOTH",
"922 -332 OFFCURVE",
"883 -336 OFFCURVE",
"844 -336 CURVE SMOOTH",
"799 -336 OFFCURVE",
"767 -310 OFFCURVE",
"767 -261 CURVE SMOOTH",
"767 -193 OFFCURVE",
"809 -116 OFFCURVE",
"928 -5 CURVE SMOOTH",
"981 44 OFFCURVE",
"1004 59 OFFCURVE",
"1016 65 CURVE SMOOTH",
"1060 87 OFFCURVE",
"1069 122 OFFCURVE",
"1051 165 CURVE SMOOTH",
"1034 207 OFFCURVE",
"1005 233 OFFCURVE",
"963 209 CURVE SMOOTH",
"876 159 OFFCURVE",
"749 123 OFFCURVE",
"623 123 CURVE SMOOTH",
"426 123 OFFCURVE",
"314 225 OFFCURVE",
"304 425 CURVE",
"1028 425 LINE SMOOTH",
"1073 425 OFFCURVE",
"1091 442 OFFCURVE",
"1091 487 CURVE",
"1076 753 OFFCURVE",
"920 946 OFFCURVE",
"623 946 CURVE SMOOTH"
);
},
{
closed = 1;
nodes = (
"799 801 OFFCURVE",
"897 715 OFFCURVE",
"925 565 CURVE",
"314 565 LINE",
"347 712 OFFCURVE",
"457 801 OFFCURVE",
"623 801 CURVE SMOOTH"
);
}
);
width = 1228;
},
{
layerId = "8538028E-5D6C-4318-9676-30148CDA39CA";
paths = (
{
closed = 1;
nodes = (
"319 946 OFFCURVE",
"131 742 OFFCURVE",
"131 462 CURVE SMOOTH",
"131 182 OFFCURVE",
"307 -22 OFFCURVE",
"618 -22 CURVE SMOOTH",
"654 -22 OFFCURVE",
"691 -20 OFFCURVE",
"727 -15 CURVE",
"632 -83 OFFCURVE",
"563 -162 OFFCURVE",
"563 -269 CURVE SMOOTH",
"563 -402 OFFCURVE",
"653 -472 OFFCURVE",
"809 -472 CURVE SMOOTH",
"882 -472 OFFCURVE",
"958 -459 OFFCURVE",
"1025 -438 CURVE SMOOTH",
"1053 -429 OFFCURVE",
"1066 -399 OFFCURVE",
"1062 -353 CURVE SMOOTH",
"1058 -307 OFFCURVE",
"1040 -281 OFFCURVE",
"1014 -285 CURVE SMOOTH",
"971 -292 OFFCURVE",
"933 -298 OFFCURVE",
"894 -298 CURVE SMOOTH",
"837 -298 OFFCURVE",
"806 -278 OFFCURVE",
"806 -231 CURVE SMOOTH",
"806 -167 OFFCURVE",
"860 -94 OFFCURVE",
"948 -15 CURVE SMOOTH",
"994 27 OFFCURVE",
"1015 44 OFFCURVE",
"1035 52 CURVE SMOOTH",
"1076 69 OFFCURVE",
"1086 99 OFFCURVE",
"1065 176 CURVE SMOOTH",
"1043 258 OFFCURVE",
"1017 273 OFFCURVE",
"974 260 CURVE SMOOTH",
"849 222 OFFCURVE",
"740 205 OFFCURVE",
"638 205 CURVE SMOOTH",
"511 205 OFFCURVE",
"424 262 OFFCURVE",
"398 370 CURVE",
"1040 370 LINE SMOOTH",
"1085 370 OFFCURVE",
"1103 387 OFFCURVE",
"1103 432 CURVE SMOOTH",
"1103 729 OFFCURVE",
"940 946 OFFCURVE",
"628 946 CURVE SMOOTH"
);
},
{
closed = 1;
nodes = (
"743 719 OFFCURVE",
"820 661 OFFCURVE",
"842 565 CURVE",
"402 565 LINE",
"431 669 OFFCURVE",
"508 719 OFFCURVE",
"628 719 CURVE SMOOTH"
);
}
);
width = 1228;
}
);
unicode = 0119;
}
{
color = 6;
glyphname = Hbar;
layers = (
{
layerId = UUID0;
paths = (
{
closed = 1;
nodes = (
"771 1187 LINE SMOOTH",
"726 1187 OFFCURVE",
"708 1169 OFFCURVE",
"708 1119 CURVE SMOOTH",
"708 1069 OFFCURVE",
"726 1051 OFFCURVE",
"771 1051 CURVE SMOOTH",
"863 1051 LINE",
"863 924 LINE",
"365 924 LINE",
"365 1051 LINE",
"457 1051 LINE SMOOTH",
"502 1051 OFFCURVE",
"520 1069 OFFCURVE",
"520 1119 CURVE SMOOTH",
"520 1169 OFFCURVE",
"502 1187 OFFCURVE",
"457 1187 CURVE SMOOTH",
"143 1187 LINE SMOOTH",
"98 1187 OFFCURVE",
"80 1169 OFFCURVE",
"80 1119 CURVE SMOOTH",
"80 1069 OFFCURVE",
"98 1051 OFFCURVE",
"143 1051 CURVE SMOOTH",
"215 1051 LINE",
"215 924 LINE",
"93 924 LINE SMOOTH",
"48 924 OFFCURVE",
"30 906 OFFCURVE",
"30 856 CURVE SMOOTH",
"30 806 OFFCURVE",
"48 788 OFFCURVE",
"93 788 CURVE SMOOTH",
"215 788 LINE",
"215 136 LINE",
"143 136 LINE SMOOTH",
"98 136 OFFCURVE",
"80 118 OFFCURVE",
"80 68 CURVE SMOOTH",
"80 18 OFFCURVE",
"98 0 OFFCURVE",
"143 0 CURVE SMOOTH",
"457 0 LINE SMOOTH",
"502 0 OFFCURVE",
"520 18 OFFCURVE",
"520 68 CURVE SMOOTH",
"520 118 OFFCURVE",
"502 136 OFFCURVE",
"457 136 CURVE SMOOTH",
"365 136 LINE",
"365 544 LINE",
"863 544 LINE",
"863 136 LINE",
"771 136 LINE SMOOTH",
"726 136 OFFCURVE",
"708 118 OFFCURVE",
"708 68 CURVE SMOOTH",
"708 18 OFFCURVE",
"726 0 OFFCURVE",
"771 0 CURVE SMOOTH",
"1085 0 LINE SMOOTH",
"1130 0 OFFCURVE",
"1148 18 OFFCURVE",
"1148 68 CURVE SMOOTH",
"1148 118 OFFCURVE",
"1130 136 OFFCURVE",
"1085 136 CURVE SMOOTH",
"1013 136 LINE",
"1013 788 LINE",
"1135 788 LINE SMOOTH",
"1180 788 OFFCURVE",
"1198 806 OFFCURVE",
"1198 856 CURVE SMOOTH",
"1198 906 OFFCURVE",
"1180 924 OFFCURVE",
"1135 924 CURVE SMOOTH",
"1013 924 LINE",
"1013 1051 LINE",
"1085 1051 LINE SMOOTH",
"1130 1051 OFFCURVE",
"1148 1069 OFFCURVE",
"1148 1119 CURVE SMOOTH",
"1148 1169 OFFCURVE",
"1130 1187 OFFCURVE",
"1085 1187 CURVE SMOOTH"
);
},
{
closed = 1;
nodes = (
"863 680 LINE",
"365 680 LINE",
"365 788 LINE",
"863 788 LINE"
);
}
);
width = 1228;
},
{
layerId = "8538028E-5D6C-4318-9676-30148CDA39CA";
paths = (
{
closed = 1;
nodes = (
"741 1187 LINE SMOOTH",
"696 1187 OFFCURVE",
"678 1169 OFFCURVE",
"678 1084 CURVE SMOOTH",
"678 999 OFFCURVE",
"696 982 OFFCURVE",
"741 982 CURVE SMOOTH",
"808 982 LINE",
"808 904 LINE",
"420 904 LINE",
"420 982 LINE",
"487 982 LINE SMOOTH",
"532 982 OFFCURVE",
"550 999 OFFCURVE",
"550 1084 CURVE SMOOTH",
"550 1169 OFFCURVE",
"532 1187 OFFCURVE",
"487 1187 CURVE SMOOTH",
"113 1187 LINE SMOOTH",
"68 1187 OFFCURVE",
"50 1169 OFFCURVE",
"50 1084 CURVE SMOOTH",
"50 999 OFFCURVE",
"68 982 OFFCURVE",
"113 982 CURVE SMOOTH",
"170 982 LINE",
"170 904 LINE",
"93 904 LINE SMOOTH",
"48 904 OFFCURVE",
"30 886 OFFCURVE",
"30 836 CURVE SMOOTH",
"30 786 OFFCURVE",
"48 768 OFFCURVE",
"93 768 CURVE SMOOTH",
"170 768 LINE",
"170 205 LINE",
"113 205 LINE SMOOTH",
"68 205 OFFCURVE",
"50 187 OFFCURVE",
"50 102 CURVE SMOOTH",
"50 17 OFFCURVE",
"68 0 OFFCURVE",
"113 0 CURVE SMOOTH",
"487 0 LINE SMOOTH",
"532 0 OFFCURVE",
"550 17 OFFCURVE",
"550 102 CURVE SMOOTH",
"550 187 OFFCURVE",
"532 205 OFFCURVE",
"487 205 CURVE SMOOTH",
"420 205 LINE",
"420 464 LINE",
"808 464 LINE",
"808 205 LINE",
"741 205 LINE SMOOTH",
"696 205 OFFCURVE",
"678 187 OFFCURVE",
"678 102 CURVE SMOOTH",
"678 17 OFFCURVE",
"696 0 OFFCURVE",
"741 0 CURVE SMOOTH",
"1115 0 LINE SMOOTH",
"1160 0 OFFCURVE",
"1178 17 OFFCURVE",
"1178 102 CURVE SMOOTH",
"1178 187 OFFCURVE",
"1160 205 OFFCURVE",
"1115 205 CURVE SMOOTH",
"1058 205 LINE",
"1058 768 LINE",
"1135 768 LINE SMOOTH",
"1180 768 OFFCURVE",
"1198 786 OFFCURVE",
"1198 836 CURVE SMOOTH",
"1198 886 OFFCURVE",
"1180 904 OFFCURVE",
"1135 904 CURVE SMOOTH",
"1058 904 LINE",
"1058 982 LINE",
"1115 982 LINE SMOOTH",
"1160 982 OFFCURVE",
"1178 999 OFFCURVE",
"1178 1084 CURVE SMOOTH",
"1178 1169 OFFCURVE",
"1160 1187 OFFCURVE",
"1115 1187 CURVE SMOOTH"
);
},
{
closed = 1;
nodes = (
"808 679 LINE",
"420 679 LINE",
"420 768 LINE",
"808 768 LINE"
);
}
);
width = 1228;
}
);
unicode = 0126;
}
{
glyphname = IJ;
layers = (
{
layerId = UUID0;
paths = (
{
closed = 1;
nodes = (
"783 1187 LINE SMOOTH",
"738 1187 OFFCURVE",
"720 1169 OFFCURVE",
"720 1119 CURVE SMOOTH",
"720 1069 OFFCURVE",
"738 1051 OFFCURVE",
"783 1051 CURVE SMOOTH",
"924 1051 LINE",
"924 263 LINE SMOOTH",
"924 167 OFFCURVE",
"888 126 OFFCURVE",
"805 126 CURVE SMOOTH",
"767 126 OFFCURVE",
"732 136 OFFCURVE",
"705 161 CURVE",
"705 415 LINE SMOOTH",
"705 461 OFFCURVE",
"686 480 OFFCURVE",
"630 480 CURVE SMOOTH",
"574 480 OFFCURVE",
"555 461 OFFCURVE",
"555 415 CURVE SMOOTH",
"555 130 LINE SMOOTH",
"555 107 OFFCURVE",
"560 90 OFFCURVE",
"571 79 CURVE SMOOTH",
"629 19 OFFCURVE",
"713 -22 OFFCURVE",
"804 -22 CURVE SMOOTH",
"993 -22 OFFCURVE",
"1074 74 OFFCURVE",
"1074 233 CURVE SMOOTH",
"1074 1051 LINE",
"1145 1051 LINE SMOOTH",
"1190 1051 OFFCURVE",
"1208 1069 OFFCURVE",
"1208 1119 CURVE SMOOTH",
"1208 1169 OFFCURVE",
"1190 1187 OFFCURVE",
"1145 1187 CURVE SMOOTH"
);
},
{
closed = 1;
nodes = (
"93 1187 LINE SMOOTH",
"48 1187 OFFCURVE",
"30 1169 OFFCURVE",
"30 1119 CURVE SMOOTH",
"30 1069 OFFCURVE",
"48 1051 OFFCURVE",
"93 1051 CURVE SMOOTH",
"179 1051 LINE",
"179 136 LINE",
"83 136 LINE SMOOTH",
"38 136 OFFCURVE",
"20 118 OFFCURVE",
"20 68 CURVE SMOOTH",
"20 18 OFFCURVE",
"38 0 OFFCURVE",
"83 0 CURVE SMOOTH",
"425 0 LINE SMOOTH",
"470 0 OFFCURVE",
"488 18 OFFCURVE",
"488 68 CURVE SMOOTH",
"488 118 OFFCURVE",
"470 136 OFFCURVE",
"425 136 CURVE SMOOTH",
"329 136 LINE",
"329 1051 LINE",
"415 1051 LINE SMOOTH",
"460 1051 OFFCURVE",
"478 1069 OFFCURVE",
"478 1119 CURVE SMOOTH",
"478 1169 OFFCURVE",
"460 1187 OFFCURVE",
"415 1187 CURVE SMOOTH"
);
}
);
width = 1228;
},
{
layerId = "8538028E-5D6C-4318-9676-30148CDA39CA";
paths = (
{
closed = 1;
nodes = (
"733 1187 LINE SMOOTH",
"688 1187 OFFCURVE",
"670 1169 OFFCURVE",
"670 1084 CURVE SMOOTH",
"670 999 OFFCURVE",
"688 982 OFFCURVE",
"733 982 CURVE SMOOTH",
"889 982 LINE",
"889 313 LINE SMOOTH",
"889 239 OFFCURVE",
"869 205 OFFCURVE",
"815 205 CURVE SMOOTH",
"785 205 OFFCURVE",
"763 211 OFFCURVE",
"739 222 CURVE",
"739 435 LINE SMOOTH",
"739 480 OFFCURVE",
"715 498 OFFCURVE",
"625 498 CURVE SMOOTH",
"535 498 OFFCURVE",
"499 480 OFFCURVE",
"499 435 CURVE SMOOTH",
"499 108 LINE SMOOTH",
"499 85 OFFCURVE",
"505 67 OFFCURVE",
"518 59 CURVE SMOOTH",
"601 9 OFFCURVE",
"717 -22 OFFCURVE",
"818 -22 CURVE SMOOTH",
"1034 -22 OFFCURVE",
"1139 82 OFFCURVE",
"1139 293 CURVE SMOOTH",
"1139 982 LINE",
"1185 982 LINE SMOOTH",
"1230 982 OFFCURVE",
"1248 999 OFFCURVE",
"1248 1084 CURVE SMOOTH",
"1248 1169 OFFCURVE",
"1230 1187 OFFCURVE",
"1185 1187 CURVE SMOOTH"
);
},
{
closed = 1;
nodes = (
"43 1187 LINE SMOOTH",
"-2 1187 OFFCURVE",
"-20 1169 OFFCURVE",
"-20 1084 CURVE SMOOTH",
"-20 999 OFFCURVE",
"-2 982 OFFCURVE",
"43 982 CURVE SMOOTH",
"89 982 LINE",
"89 205 LINE",
"33 205 LINE SMOOTH",
"-12 205 OFFCURVE",
"-30 187 OFFCURVE",
"-30 102 CURVE SMOOTH",
"-30 17 OFFCURVE",
"-12 0 OFFCURVE",
"33 0 CURVE SMOOTH",
"395 0 LINE SMOOTH",
"440 0 OFFCURVE",
"458 17 OFFCURVE",
"458 102 CURVE SMOOTH",
"458 187 OFFCURVE",
"440 205 OFFCURVE",
"395 205 CURVE SMOOTH",
"339 205 LINE",
"339 982 LINE",
"385 982 LINE SMOOTH",
"430 982 OFFCURVE",
"448 999 OFFCURVE",
"448 1084 CURVE SMOOTH",
"448 1169 OFFCURVE",
"430 1187 OFFCURVE",
"385 1187 CURVE SMOOTH"
);
}
);
width = 1228;
}
);
unicode = 0132;
}
{
glyphname = ij;
layers = (
{
components = (
{
name = dotaccent;
transform = "{1, 0, 0, 1, -276, 0}";
},
{
name = dotaccent;
transform = "{1, 0, 0, 1, 364, 0}";
}
);
layerId = UUID0;
paths = (
{
closed = 1;
nodes = (
"700 924 LINE SMOOTH",
"655 924 OFFCURVE",
"637 906 OFFCURVE",
"637 856 CURVE SMOOTH",
"637 806 OFFCURVE",
"655 788 OFFCURVE",
"700 788 CURVE SMOOTH",
"923 788 LINE",
"923 -44 LINE SMOOTH",
"923 -191 OFFCURVE",
"880 -264 OFFCURVE",
"746 -264 CURVE SMOOTH",
"667 -264 OFFCURVE",
"583 -237 OFFCURVE",
"508 -201 CURVE SMOOTH",
"476 -186 OFFCURVE",
"444 -196 OFFCURVE",
"425 -247 CURVE SMOOTH",
"406 -297 OFFCURVE",
"422 -325 OFFCURVE",
"457 -341 CURVE SMOOTH",
"532 -376 OFFCURVE",
"639 -410 OFFCURVE",
"746 -410 CURVE SMOOTH",
"978 -410 OFFCURVE",
"1073 -286 OFFCURVE",
"1073 -57 CURVE SMOOTH",
"1073 856 LINE SMOOTH",
"1073 906 OFFCURVE",
"1055 924 OFFCURVE",
"1010 924 CURVE SMOOTH"
);
},
{
closed = 1;
nodes = (
"160 924 LINE SMOOTH",
"115 924 OFFCURVE",
"97 906 OFFCURVE",
"97 856 CURVE SMOOTH",
"97 806 OFFCURVE",
"115 788 OFFCURVE",
"160 788 CURVE SMOOTH",
"283 788 LINE",
"283 136 LINE",
"120 136 LINE SMOOTH",
"75 136 OFFCURVE",
"57 118 OFFCURVE",
"57 68 CURVE SMOOTH",
"57 18 OFFCURVE",
"75 0 OFFCURVE",
"120 0 CURVE SMOOTH",
"604 0 LINE SMOOTH",
"649 0 OFFCURVE",
"667 18 OFFCURVE",
"667 68 CURVE SMOOTH",
"667 118 OFFCURVE",
"649 136 OFFCURVE",
"604 136 CURVE SMOOTH",
"433 136 LINE",
"433 856 LINE SMOOTH",
"433 906 OFFCURVE",
"415 924 OFFCURVE",
"370 924 CURVE SMOOTH"
);
}
);
width = 1228;
},
{
background = {
paths = (
{
closed = 0;
nodes = (
"744 -188 LINE SMOOTH",
"692 -188 OFFCURVE",
"625 -175 OFFCURVE",
"560 -154 CURVE SMOOTH",
"547 -150 OFFCURVE",
"537 -148 OFFCURVE",
"528 -148 CURVE SMOOTH",
"481 -148 OFFCURVE",
"452 -233 OFFCURVE",
"452 -295 CURVE SMOOTH",
"452 -334 OFFCURVE",
"472 -352 OFFCURVE",
"501 -364 CURVE SMOOTH",
"585 -398 OFFCURVE",
"679 -415 OFFCURVE",
"766 -415 CURVE SMOOTH"
);
}
);
};
components = (
{
name = dotaccent;
transform = "{1, 0, 0, 1, -256, 0}";
},
{
name = dotaccent;
transform = "{1, 0, 0, 1, 384, 0}";
}
);
layerId = "8538028E-5D6C-4318-9676-30148CDA39CA";
paths = (
{
closed = 1;
nodes = (
"690 924 LINE SMOOTH",
"645 924 OFFCURVE",
"627 906 OFFCURVE",
"627 821 CURVE SMOOTH",
"627 736 OFFCURVE",
"645 719 OFFCURVE",
"690 719 CURVE SMOOTH",
"873 719 LINE",
"873 -17 LINE SMOOTH",
"873 -132 OFFCURVE",
"826 -183 OFFCURVE",
"744 -183 CURVE SMOOTH",
"692 -183 OFFCURVE",
"625 -170 OFFCURVE",
"560 -149 CURVE SMOOTH",
"506 -132 OFFCURVE",
"478 -159 OFFCURVE",
"456 -235 CURVE SMOOTH",
"435 -309 OFFCURVE",
"448 -346 OFFCURVE",
"499 -364 CURVE SMOOTH",
"585 -394 OFFCURVE",
"679 -410 OFFCURVE",
"766 -410 CURVE SMOOTH",
"998 -410 OFFCURVE",
"1123 -279 OFFCURVE",
"1123 -30 CURVE SMOOTH",
"1123 861 LINE SMOOTH",
"1123 906 OFFCURVE",
"1105 924 OFFCURVE",
"1060 924 CURVE SMOOTH"
);
},
{
closed = 1;
nodes = (
"110 924 LINE SMOOTH",
"65 924 OFFCURVE",
"47 906 OFFCURVE",
"47 821 CURVE SMOOTH",
"47 736 OFFCURVE",
"65 719 OFFCURVE",
"110 719 CURVE SMOOTH",
"233 719 LINE",
"233 205 LINE",
"100 205 LINE SMOOTH",
"55 205 OFFCURVE",
"37 187 OFFCURVE",
"37 102 CURVE SMOOTH",
"37 17 OFFCURVE",
"55 0 OFFCURVE",
"100 0 CURVE SMOOTH",
"624 0 LINE SMOOTH",
"669 0 OFFCURVE",
"687 17 OFFCURVE",
"687 102 CURVE SMOOTH",
"687 187 OFFCURVE",
"669 205 OFFCURVE",
"624 205 CURVE SMOOTH",
"483 205 LINE",
"483 861 LINE SMOOTH",
"483 906 OFFCURVE",
"465 924 OFFCURVE",
"420 924 CURVE SMOOTH"
);
}
);
width = 1228;
}
);
unicode = 0133;
}
{
color = 6;
glyphname = lslash;
layers = (
{
layerId = UUID0;
paths = (
{
closed = 1;
nodes = (
"280 1312 LINE SMOOTH",
"235 1312 OFFCURVE",
"217 1294 OFFCURVE",
"217 1244 CURVE SMOOTH",
"217 1194 OFFCURVE",
"235 1176 OFFCURVE",
"280 1176 CURVE SMOOTH",
"553 1176 LINE",
"553 721 LINE",
"301 550 LINE SMOOTH",
"264 525 OFFCURVE",
"259 500 OFFCURVE",
"287 459 CURVE SMOOTH",
"315 417 OFFCURVE",
"341 413 OFFCURVE",
"378 438 CURVE SMOOTH",
"553 557 LINE",
"553 136 LINE",
"240 136 LINE SMOOTH",
"195 136 OFFCURVE",
"177 118 OFFCURVE",
"177 68 CURVE SMOOTH",
"177 18 OFFCURVE",
"195 0 OFFCURVE",
"240 0 CURVE SMOOTH",
"1024 0 LINE SMOOTH",
"1069 0 OFFCURVE",
"1087 18 OFFCURVE",
"1087 68 CURVE SMOOTH",
"1087 118 OFFCURVE",
"1069 136 OFFCURVE",
"1024 136 CURVE SMOOTH",
"703 136 LINE",
"703 659 LINE",
"947 825 LINE SMOOTH",
"984 850 OFFCURVE",
"989 875 OFFCURVE",
"961 916 CURVE SMOOTH",
"933 958 OFFCURVE",
"907 962 OFFCURVE",
"870 937 CURVE SMOOTH",
"703 823 LINE",
"703 1244 LINE SMOOTH",
"703 1294 OFFCURVE",
"685 1312 OFFCURVE",
"640 1312 CURVE SMOOTH"
);
}
);
width = 1228;
},
{
layerId = "8538028E-5D6C-4318-9676-30148CDA39CA";
paths = (
{
closed = 1;
nodes = (
"260 1312 LINE SMOOTH",
"215 1312 OFFCURVE",
"197 1294 OFFCURVE",
"197 1209 CURVE SMOOTH",
"197 1124 OFFCURVE",
"215 1107 OFFCURVE",
"260 1107 CURVE SMOOTH",
"493 1107 LINE",
"493 731 LINE",
"235 578 LINE SMOOTH",
"196 555 OFFCURVE",
"190 530 OFFCURVE",
"233 457 CURVE SMOOTH",
"277 384 OFFCURVE",
"301 379 OFFCURVE",
"339 402 CURVE SMOOTH",
"493 493 LINE",
"493 205 LINE",
"220 205 LINE SMOOTH",
"175 205 OFFCURVE",
"157 187 OFFCURVE",
"157 102 CURVE SMOOTH",
"157 17 OFFCURVE",
"175 0 OFFCURVE",
"220 0 CURVE SMOOTH",
"1024 0 LINE SMOOTH",
"1069 0 OFFCURVE",
"1087 17 OFFCURVE",
"1087 102 CURVE SMOOTH",
"1087 187 OFFCURVE",
"1069 205 OFFCURVE",
"1024 205 CURVE SMOOTH",
"743 205 LINE",
"743 641 LINE",
"995 791 LINE SMOOTH",
"1033 814 OFFCURVE",
"1040 838 OFFCURVE",
"997 911 CURVE SMOOTH",
"953 984 OFFCURVE",
"929 990 OFFCURVE",
"890 967 CURVE SMOOTH",
"743 879 LINE",
"743 1249 LINE SMOOTH",
"743 1294 OFFCURVE",
"725 1312 OFFCURVE",
"680 1312 CURVE SMOOTH"
);
}
);
width = 1228;
}
);
unicode = 0142;
}
{
glyphname = florin;
layers = (
{
layerId = UUID0;
paths = (
{
closed = 1;
nodes = (
"711 1317 OFFCURVE",
"587 1202 OFFCURVE",
"566 997 CURVE SMOOTH",
"550 844 LINE",
"340 844 LINE SMOOTH",
"295 844 OFFCURVE",
"277 826 OFFCURVE",
"277 776 CURVE SMOOTH",
"277 726 OFFCURVE",
"295 708 OFFCURVE",
"340 708 CURVE SMOOTH",
"537 708 LINE",
"471 54 LINE SMOOTH",
"458 -74 OFFCURVE",
"400 -133 OFFCURVE",
"300 -133 CURVE SMOOTH",
"237 -133 OFFCURVE",
"181 -124 OFFCURVE",
"118 -104 CURVE SMOOTH",
"83 -93 OFFCURVE",
"54 -105 OFFCURVE",
"39 -160 CURVE SMOOTH",
"24 -214 OFFCURVE",
"39 -237 OFFCURVE",
"74 -248 CURVE SMOOTH",
"140 -269 OFFCURVE",
"215 -279 OFFCURVE",
"285 -279 CURVE SMOOTH",
"474 -279 OFFCURVE",
"598 -164 OFFCURVE",
"619 41 CURVE SMOOTH",
"686 708 LINE",
"934 708 LINE SMOOTH",
"979 708 OFFCURVE",
"997 726 OFFCURVE",
"997 776 CURVE SMOOTH",
"997 826 OFFCURVE",
"979 844 OFFCURVE",
"934 844 CURVE SMOOTH",
"700 844 LINE",
"714 984 LINE SMOOTH",
"727 1112 OFFCURVE",
"785 1171 OFFCURVE",
"885 1171 CURVE SMOOTH",
"948 1171 OFFCURVE",
"1004 1162 OFFCURVE",
"1067 1142 CURVE SMOOTH",
"1102 1131 OFFCURVE",
"1131 1143 OFFCURVE",
"1146 1198 CURVE SMOOTH",
"1161 1252 OFFCURVE",
"1146 1275 OFFCURVE",
"1111 1286 CURVE SMOOTH",
"1045 1307 OFFCURVE",
"970 1317 OFFCURVE",
"900 1317 CURVE SMOOTH"
);
}
);
width = 1228;
},
{
layerId = "8538028E-5D6C-4318-9676-30148CDA39CA";
paths = (
{
closed = 1;
nodes = (
"653 1317 OFFCURVE",
"516 1186 OFFCURVE",
"494 937 CURVE SMOOTH",
"487 864 LINE",
"270 864 LINE SMOOTH",
"225 864 OFFCURVE",
"207 841 OFFCURVE",
"207 756 CURVE SMOOTH",
"207 671 OFFCURVE",
"225 649 OFFCURVE",
"270 649 CURVE SMOOTH",
"468 649 LINE",
"421 114 LINE SMOOTH",
"411 -1 OFFCURVE",
"359 -52 OFFCURVE",
"277 -52 CURVE SMOOTH",
"227 -52 OFFCURVE",
"171 -45 OFFCURVE",
"111 -29 CURVE SMOOTH",
"68 -18 OFFCURVE",
"30 -29 OFFCURVE",
"11 -113 CURVE SMOOTH",
"-9 -202 OFFCURVE",
"10 -232 OFFCURVE",
"55 -246 CURVE SMOOTH",
"128 -268 OFFCURVE",
"205 -279 OFFCURVE",
"279 -279 CURVE SMOOTH",
"511 -279 OFFCURVE",
"648 -148 OFFCURVE",
"670 101 CURVE SMOOTH",
"718 649 LINE",
"974 649 LINE SMOOTH",
"1019 649 OFFCURVE",
"1037 671 OFFCURVE",
"1037 756 CURVE SMOOTH",
"1037 841 OFFCURVE",
"1019 864 OFFCURVE",
"974 864 CURVE SMOOTH",
"737 864 LINE",
"743 924 LINE SMOOTH",
"753 1039 OFFCURVE",
"805 1090 OFFCURVE",
"887 1090 CURVE SMOOTH",
"937 1090 OFFCURVE",
"993 1083 OFFCURVE",
"1053 1067 CURVE SMOOTH",
"1096 1056 OFFCURVE",
"1134 1067 OFFCURVE",
"1153 1151 CURVE SMOOTH",
"1173 1240 OFFCURVE",
"1154 1270 OFFCURVE",
"1109 1284 CURVE SMOOTH",
"1036 1306 OFFCURVE",
"959 1317 OFFCURVE",
"885 1317 CURVE SMOOTH"
);
}
);
width = 1228;
}
);
unicode = 0192;
}
{
glyphname = product;
layers = (
{
layerId = UUID0;
paths = (
{
closed = 1;
nodes = (
"258 1187 LINE SMOOTH",
"213 1187 OFFCURVE",
"195 1169 OFFCURVE",
"195 1119 CURVE SMOOTH",
"195 55 LINE SMOOTH",
"195 9 OFFCURVE",
"213 -10 OFFCURVE",
"269 -10 CURVE SMOOTH",
"271 -10 LINE SMOOTH",
"327 -10 OFFCURVE",
"345 9 OFFCURVE",
"345 55 CURVE SMOOTH",
"345 1043 LINE",
"883 1043 LINE",
"883 55 LINE SMOOTH",
"883 9 OFFCURVE",
"901 -10 OFFCURVE",
"957 -10 CURVE SMOOTH",
"959 -10 LINE SMOOTH",
"1015 -10 OFFCURVE",
"1033 9 OFFCURVE",
"1033 55 CURVE SMOOTH",
"1033 1119 LINE SMOOTH",
"1033 1169 OFFCURVE",
"1015 1187 OFFCURVE",
"970 1187 CURVE SMOOTH"
);
}
);
width = 1228;
},
{
layerId = "8538028E-5D6C-4318-9676-30148CDA39CA";
paths = (
{
closed = 1;
nodes = (
"223 1187 LINE SMOOTH",
"178 1187 OFFCURVE",
"160 1169 OFFCURVE",
"160 1124 CURVE SMOOTH",
"160 63 LINE SMOOTH",
"160 18 OFFCURVE",
"178 0 OFFCURVE",
"223 0 CURVE SMOOTH",
"347 0 LINE SMOOTH",
"392 0 OFFCURVE",
"410 18 OFFCURVE",
"410 63 CURVE SMOOTH",
"410 952 LINE",
"818 952 LINE",
"818 63 LINE SMOOTH",
"818 18 OFFCURVE",
"836 0 OFFCURVE",
"881 0 CURVE SMOOTH",
"1005 0 LINE SMOOTH",
"1050 0 OFFCURVE",
"1068 18 OFFCURVE",
"1068 63 CURVE SMOOTH",
"1068 1124 LINE SMOOTH",
"1068 1169 OFFCURVE",
"1050 1187 OFFCURVE",
"1005 1187 CURVE SMOOTH"
);
}
);
width = 1228;
}
);
unicode = 220F;
}
{
glyphname = infinity;
layers = (
{
background = {
paths = (
{
closed = 1;
nodes = (
"1081 293 OFFCURVE",
"1200 418 OFFCURVE",
"1200 582 CURVE SMOOTH",
"1200 746 OFFCURVE",
"1081 871 OFFCURVE",
"920 871 CURVE SMOOTH",
"584 871 OFFCURVE",
"580 427 OFFCURVE",
"311 427 CURVE SMOOTH",
"221 427 OFFCURVE",
"166 495 OFFCURVE",
"166 582 CURVE SMOOTH",
"166 669 OFFCURVE",
"221 737 OFFCURVE",
"311 737 CURVE SMOOTH",
"580 737 OFFCURVE",
"584 293 OFFCURVE",
"920 293 CURVE"
);
},
{
closed = 1;
nodes = (
"147 871 OFFCURVE",
"28 746 OFFCURVE",
"28 582 CURVE SMOOTH",
"28 418 OFFCURVE",
"147 293 OFFCURVE",
"308 293 CURVE SMOOTH",
"644 293 OFFCURVE",
"648 737 OFFCURVE",
"917 737 CURVE SMOOTH",
"1007 737 OFFCURVE",
"1062 669 OFFCURVE",
"1062 582 CURVE SMOOTH",
"1062 495 OFFCURVE",
"1007 427 OFFCURVE",
"917 427 CURVE SMOOTH",
"648 427 OFFCURVE",
"644 871 OFFCURVE",
"308 871 CURVE"
);
}
);
};
layerId = UUID0;
paths = (
{
closed = 1;
nodes = (
"769 871 OFFCURVE",
"685 781 OFFCURVE",
"614 682 CURVE",
"543 781 OFFCURVE",
"459 871 OFFCURVE",
"308 871 CURVE SMOOTH",
"147 871 OFFCURVE",
"28 746 OFFCURVE",
"28 582 CURVE SMOOTH",
"28 418 OFFCURVE",
"147 293 OFFCURVE",
"308 293 CURVE SMOOTH",
"459 293 OFFCURVE",
"543 383 OFFCURVE",
"614 481 CURVE",
"685 383 OFFCURVE",
"769 293 OFFCURVE",
"920 293 CURVE SMOOTH",
"1081 293 OFFCURVE",
"1200 418 OFFCURVE",
"1200 582 CURVE SMOOTH",
"1200 746 OFFCURVE",
"1081 871 OFFCURVE",
"920 871 CURVE SMOOTH"
);
},
{
closed = 1;
nodes = (
"418 737 OFFCURVE",
"483 666 OFFCURVE",
"544 582 CURVE",
"483 497 OFFCURVE",
"418 427 OFFCURVE",
"311 427 CURVE SMOOTH",
"221 427 OFFCURVE",
"166 495 OFFCURVE",
"166 582 CURVE SMOOTH",
"166 669 OFFCURVE",
"221 737 OFFCURVE",
"311 737 CURVE SMOOTH"
);
},
{
closed = 1;
nodes = (
"1007 737 OFFCURVE",
"1062 669 OFFCURVE",
"1062 582 CURVE SMOOTH",
"1062 495 OFFCURVE",
"1007 427 OFFCURVE",
"917 427 CURVE SMOOTH",
"810 427 OFFCURVE",
"744 497 OFFCURVE",
"684 582 CURVE",
"744 666 OFFCURVE",
"810 737 OFFCURVE",
"917 737 CURVE SMOOTH"
);
}
);
width = 1228;
},
{
layerId = "8538028E-5D6C-4318-9676-30148CDA39CA";
paths = (
{
closed = 1;
nodes = (
"777 891 OFFCURVE",
"687 811 OFFCURVE",
"614 721 CURVE",
"540 811 OFFCURVE",
"451 891 OFFCURVE",
"308 891 CURVE SMOOTH",
"141 891 OFFCURVE",
"18 758 OFFCURVE",
"18 582 CURVE SMOOTH",
"18 406 OFFCURVE",
"141 273 OFFCURVE",
"308 273 CURVE SMOOTH",
"451 273 OFFCURVE",
"540 352 OFFCURVE",
"614 443 CURVE",
"687 352 OFFCURVE",
"777 273 OFFCURVE",
"920 273 CURVE SMOOTH",
"1087 273 OFFCURVE",
"1210 406 OFFCURVE",
"1210 582 CURVE SMOOTH",
"1210 758 OFFCURVE",
"1087 891 OFFCURVE",
"920 891 CURVE SMOOTH"
);
},
{
closed = 1;
nodes = (
"398 697 OFFCURVE",
"454 647 OFFCURVE",
"507 582 CURVE",
"454 516 OFFCURVE",
"398 467 OFFCURVE",
"321 467 CURVE SMOOTH",
"243 467 OFFCURVE",
"196 519 OFFCURVE",
"196 582 CURVE SMOOTH",
"196 645 OFFCURVE",
"243 697 OFFCURVE",
"321 697 CURVE SMOOTH"
);
},
{
closed = 1;
nodes = (
"985 697 OFFCURVE",
"1032 645 OFFCURVE",
"1032 582 CURVE SMOOTH",
"1032 519 OFFCURVE",
"985 467 OFFCURVE",
"907 467 CURVE SMOOTH",
"830 467 OFFCURVE",
"774 516 OFFCURVE",
"720 582 CURVE",
"774 647 OFFCURVE",
"830 697 OFFCURVE",
"907 697 CURVE SMOOTH"
);
}
);
width = 1228;
}
);
unicode = 221E;
}
{
glyphname = radical;
layers = (
{
layerId = UUID0;
paths = (
{
closed = 1;
nodes = (
"994 1207 OFFCURVE",
"969 1195 OFFCURVE",
"953 1151 CURVE SMOOTH",
"609 182 LINE",
"428 622 LINE SMOOTH",
"419 644 OFFCURVE",
"402 654 OFFCURVE",
"371 654 CURVE SMOOTH",
"179 654 LINE SMOOTH",
"134 654 OFFCURVE",
"116 634 OFFCURVE",
"116 582 CURVE SMOOTH",
"116 530 OFFCURVE",
"134 510 OFFCURVE",
"179 510 CURVE SMOOTH",
"312 510 LINE",
"505 43 LINE SMOOTH",
"524 -3 OFFCURVE",
"556 -22 OFFCURVE",
"613 -22 CURVE SMOOTH",
"670 -22 OFFCURVE",
"702 -4 OFFCURVE",
"719 43 CURVE SMOOTH",
"1098 1103 LINE SMOOTH",
"1114 1147 OFFCURVE",
"1101 1171 OFFCURVE",
"1047 1189 CURVE SMOOTH"
);
}
);
width = 1228;
},
{
layerId = "8538028E-5D6C-4318-9676-30148CDA39CA";
paths = (
{
closed = 1;
nodes = (
"938 1211 OFFCURVE",
"895 1205 OFFCURVE",
"880 1160 CURVE SMOOTH",
"604 340 LINE",
"473 665 LINE SMOOTH",
"463 689 OFFCURVE",
"446 695 OFFCURVE",
"420 695 CURVE SMOOTH",
"163 695 LINE SMOOTH",
"118 695 OFFCURVE",
"100 677 OFFCURVE",
"100 582 CURVE SMOOTH",
"100 487 OFFCURVE",
"118 470 OFFCURVE",
"163 470 CURVE SMOOTH",
"280 470 LINE",
"457 43 LINE SMOOTH",
"476 -3 OFFCURVE",
"513 -22 OFFCURVE",
"608 -22 CURVE SMOOTH",
"703 -22 OFFCURVE",
"744 -5 OFFCURVE",
"761 43 CURVE SMOOTH",
"1128 1090 LINE SMOOTH",
"1144 1136 OFFCURVE",
"1125 1167 OFFCURVE",
"1031 1189 CURVE SMOOTH"
);
}
);
width = 1228;
}
);
unicode = 221A;
}
{
glyphname = integral;
layers = (
{
layerId = UUID0;
paths = (
{
closed = 1;
nodes = (
"678 1517 OFFCURVE",
"539 1358 OFFCURVE",
"539 1109 CURVE SMOOTH",
"539 10 LINE SMOOTH",
"539 -165 OFFCURVE",
"460 -264 OFFCURVE",
"320 -264 CURVE SMOOTH",
"241 -264 OFFCURVE",
"164 -245 OFFCURVE",
"81 -213 CURVE SMOOTH",
"47 -200 OFFCURVE",
"25 -222 OFFCURVE",
"11 -267 CURVE SMOOTH",
"-3 -313 OFFCURVE",
"7 -337 OFFCURVE",
"43 -352 CURVE SMOOTH",
"124 -387 OFFCURVE",
"222 -410 OFFCURVE",
"322 -410 CURVE SMOOTH",
"550 -410 OFFCURVE",
"689 -251 OFFCURVE",
"689 -2 CURVE SMOOTH",
"689 1097 LINE SMOOTH",
"689 1272 OFFCURVE",
"768 1371 OFFCURVE",
"908 1371 CURVE SMOOTH",
"987 1371 OFFCURVE",
"1064 1352 OFFCURVE",
"1147 1320 CURVE SMOOTH",
"1181 1307 OFFCURVE",
"1203 1329 OFFCURVE",
"1217 1374 CURVE SMOOTH",
"1231 1420 OFFCURVE",
"1221 1444 OFFCURVE",
"1185 1459 CURVE SMOOTH",
"1104 1494 OFFCURVE",
"1006 1517 OFFCURVE",
"906 1517 CURVE SMOOTH"
);
}
);
width = 1228;
},
{
layerId = "8538028E-5D6C-4318-9676-30148CDA39CA";
paths = (
{
closed = 1;
nodes = (
"614 1517 OFFCURVE",
"489 1386 OFFCURVE",
"489 1137 CURVE SMOOTH",
"489 -17 LINE SMOOTH",
"489 -132 OFFCURVE",
"442 -183 OFFCURVE",
"360 -183 CURVE SMOOTH",
"292 -183 OFFCURVE",
"212 -159 OFFCURVE",
"131 -121 CURVE SMOOTH",
"75 -95 OFFCURVE",
"40 -138 OFFCURVE",
"19 -194 CURVE SMOOTH",
"0 -245 OFFCURVE",
"-6 -293 OFFCURVE",
"47 -322 CURVE SMOOTH",
"143 -375 OFFCURVE",
"267 -410 OFFCURVE",
"382 -410 CURVE SMOOTH",
"614 -410 OFFCURVE",
"739 -279 OFFCURVE",
"739 -30 CURVE SMOOTH",
"739 1124 LINE SMOOTH",
"739 1239 OFFCURVE",
"786 1290 OFFCURVE",
"868 1290 CURVE SMOOTH",
"936 1290 OFFCURVE",
"1015 1266 OFFCURVE",
"1097 1228 CURVE SMOOTH",
"1153 1202 OFFCURVE",
"1188 1245 OFFCURVE",
"1209 1301 CURVE SMOOTH",
"1228 1352 OFFCURVE",
"1234 1400 OFFCURVE",
"1181 1429 CURVE SMOOTH",
"1084 1482 OFFCURVE",
"961 1517 OFFCURVE",
"846 1517 CURVE SMOOTH"
);
}
);
width = 1228;
}
);
unicode = 222B;
}
{
glyphname = dotlessj;
layers = (
{
layerId = UUID0;
paths = (
{
closed = 1;
nodes = (
"330 924 LINE SMOOTH",
"285 924 OFFCURVE",
"267 906 OFFCURVE",
"267 856 CURVE SMOOTH",
"267 806 OFFCURVE",
"285 788 OFFCURVE",
"330 788 CURVE SMOOTH",
"753 788 LINE",
"753 -44 LINE SMOOTH",
"753 -191 OFFCURVE",
"710 -264 OFFCURVE",
"576 -264 CURVE SMOOTH",
"483 -264 OFFCURVE",
"379 -222 OFFCURVE",
"292 -165 CURVE SMOOTH",
"262 -145 OFFCURVE",
"228 -153 OFFCURVE",
"203 -201 CURVE SMOOTH",
"178 -249 OFFCURVE",
"190 -277 OFFCURVE",
"223 -298 CURVE SMOOTH",
"323 -361 OFFCURVE",
"461 -410 OFFCURVE",
"576 -410 CURVE SMOOTH",
"808 -410 OFFCURVE",
"903 -286 OFFCURVE",
"903 -57 CURVE SMOOTH",
"903 856 LINE SMOOTH",
"903 906 OFFCURVE",
"885 924 OFFCURVE",
"840 924 CURVE SMOOTH"
);
}
);
width = 1228;
},
{
layerId = "8538028E-5D6C-4318-9676-30148CDA39CA";
paths = (
{
closed = 1;
nodes = (
"290 924 LINE SMOOTH",
"245 924 OFFCURVE",
"227 906 OFFCURVE",
"227 821 CURVE SMOOTH",
"227 736 OFFCURVE",
"245 719 OFFCURVE",
"290 719 CURVE SMOOTH",
"673 719 LINE",
"673 -17 LINE SMOOTH",
"673 -132 OFFCURVE",
"626 -183 OFFCURVE",
"544 -183 CURVE SMOOTH",
"476 -183 OFFCURVE",
"381 -144 OFFCURVE",
"293 -105 CURVE SMOOTH",
"240 -83 OFFCURVE",
"208 -105 OFFCURVE",
"177 -178 CURVE SMOOTH",
"147 -249 OFFCURVE",
"155 -290 OFFCURVE",
"204 -315 CURVE SMOOTH",
"325 -376 OFFCURVE",
"451 -410 OFFCURVE",
"566 -410 CURVE SMOOTH",
"798 -410 OFFCURVE",
"923 -279 OFFCURVE",
"923 -30 CURVE SMOOTH",
"923 861 LINE SMOOTH",
"923 906 OFFCURVE",
"905 924 OFFCURVE",
"860 924 CURVE SMOOTH"
);
}
);
width = 1228;
}
);
unicode = 0237;
}
{
glyphname = Theta;
layers = (
{
layerId = UUID0;
paths = (
{
closed = 1;
nodes = (
"299 1209 OFFCURVE",
"88 963 OFFCURVE",
"88 593 CURVE SMOOTH",
"88 223 OFFCURVE",
"299 -22 OFFCURVE",
"614 -22 CURVE SMOOTH",
"929 -22 OFFCURVE",
"1140 223 OFFCURVE",
"1140 593 CURVE SMOOTH",
"1140 963 OFFCURVE",
"929 1209 OFFCURVE",
"614 1209 CURVE SMOOTH"
);
},
{
closed = 1;
nodes = (
"836 1061 OFFCURVE",
"982 881 OFFCURVE",
"982 593 CURVE SMOOTH",
"982 305 OFFCURVE",
"836 126 OFFCURVE",
"614 126 CURVE SMOOTH",
"392 126 OFFCURVE",
"246 305 OFFCURVE",
"246 593 CURVE SMOOTH",
"246 881 OFFCURVE",
"392 1061 OFFCURVE",
"614 1061 CURVE SMOOTH"
);
},
{
closed = 1;
nodes = (
"373 665 LINE SMOOTH",
"328 665 OFFCURVE",
"310 645 OFFCURVE",
"310 593 CURVE SMOOTH",
"310 541 OFFCURVE",
"328 521 OFFCURVE",
"373 521 CURVE SMOOTH",
"855 521 LINE SMOOTH",
"900 521 OFFCURVE",
"918 541 OFFCURVE",
"918 593 CURVE SMOOTH",
"918 645 OFFCURVE",
"900 665 OFFCURVE",
"855 665 CURVE SMOOTH"
);
}
);
width = 1228;
},
{
components = (
{
name = O;
},
{
name = macron.case;
transform = "{1, 0, 0, 1, 1228, 0}";
}
);
layerId = "8538028E-5D6C-4318-9676-30148CDA39CA";
width = 2456;
}
);
unicode = 0398;
}
{
glyphname = quoteright;
layers = (
{
layerId = UUID0;
paths = (
{
closed = 1;
nodes = (
"592 1269 LINE SMOOTH",
"564 1269 OFFCURVE",
"546 1255 OFFCURVE",
"540 1229 CURVE SMOOTH",
"439 783 LINE SMOOTH",
"429 741 OFFCURVE",
"456 714 OFFCURVE",
"501 714 CURVE SMOOTH",
"535 714 OFFCURVE",
"561 729 OFFCURVE",
"575 757 CURVE SMOOTH",
"795 1206 LINE SMOOTH",
"812 1241 OFFCURVE",
"800 1269 OFFCURVE",
"767 1269 CURVE SMOOTH"
);
}
);
width = 1228;
},
{
layerId = "8538028E-5D6C-4318-9676-30148CDA39CA";
paths = (
{
closed = 1;
nodes = (
"556 1269 LINE SMOOTH",
"528 1269 OFFCURVE",
"509 1255 OFFCURVE",
"504 1229 CURVE SMOOTH",
"414 757 LINE SMOOTH",
"402 695 OFFCURVE",
"428 671 OFFCURVE",
"494 671 CURVE SMOOTH",
"560 671 OFFCURVE",
"598 689 OFFCURVE",
"620 739 CURVE SMOOTH",
"827 1206 LINE SMOOTH",
"843 1242 OFFCURVE",
"832 1269 OFFCURVE",
"799 1269 CURVE SMOOTH"
);
}
);
width = 1228;
}
);
unicode = 2019;
}
{
glyphname = bullet;
layers = (
{
layerId = UUID0;
paths = (
{
closed = 1;
nodes = (
"451 853 OFFCURVE",
"382 825 OFFCURVE",
"382 755 CURVE SMOOTH",
"382 453 LINE SMOOTH",
"382 383 OFFCURVE",
"451 355 OFFCURVE",
"614 355 CURVE SMOOTH",
"777 355 OFFCURVE",
"846 383 OFFCURVE",
"846 453 CURVE SMOOTH",
"846 755 LINE SMOOTH",
"846 825 OFFCURVE",
"777 853 OFFCURVE",
"614 853 CURVE SMOOTH"
);
}
);
width = 1228;
},
{
layerId = "8538028E-5D6C-4318-9676-30148CDA39CA";
paths = (
{
closed = 1;
nodes = (
"435 858 OFFCURVE",
"359 827 OFFCURVE",
"359 750 CURVE SMOOTH",
"359 418 LINE SMOOTH",
"359 341 OFFCURVE",
"435 310 OFFCURVE",
"614 310 CURVE SMOOTH",
"793 310 OFFCURVE",
"869 341 OFFCURVE",
"869 418 CURVE SMOOTH",
"869 750 LINE SMOOTH",
"869 827 OFFCURVE",
"793 858 OFFCURVE",
"614 858 CURVE SMOOTH"
);
}
);
width = 1228;
}
);
unicode = 2022;
}
{
glyphname = perthousand;
layers = (
{
layerId = UUID0;
paths = (
{
closed = 1;
nodes = (
"129 229 LINE SMOOTH",
"96 198 OFFCURVE",
"98 167 OFFCURVE",
"130 134 CURVE SMOOTH",
"161 101 OFFCURVE",
"192 98 OFFCURVE",
"225 129 CURVE SMOOTH",
"1099 959 LINE SMOOTH",
"1132 990 OFFCURVE",
"1130 1021 OFFCURVE",
"1098 1054 CURVE SMOOTH",
"1067 1087 OFFCURVE",
"1036 1090 OFFCURVE",
"1003 1059 CURVE SMOOTH"
);
},
{
closed = 1;
nodes = (
"983 396 OFFCURVE",
"1048 331 OFFCURVE",
"1048 252 CURVE SMOOTH",
"1048 173 OFFCURVE",
"983 108 OFFCURVE",
"904 108 CURVE SMOOTH",
"825 108 OFFCURVE",
"760 173 OFFCURVE",
"760 252 CURVE SMOOTH",
"760 331 OFFCURVE",
"825 396 OFFCURVE",
"904 396 CURVE SMOOTH"
);
},
{
closed = 1;
nodes = (
"173 1209 OFFCURVE",
"50 1086 OFFCURVE",
"50 935 CURVE SMOOTH",
"50 784 OFFCURVE",
"173 661 OFFCURVE",
"324 661 CURVE SMOOTH",
"475 661 OFFCURVE",
"598 784 OFFCURVE",
"598 935 CURVE SMOOTH",
"598 1086 OFFCURVE",
"475 1209 OFFCURVE",
"324 1209 CURVE SMOOTH"
);
},
{
closed = 1;
nodes = (
"403 1079 OFFCURVE",
"468 1014 OFFCURVE",
"468 935 CURVE SMOOTH",
"468 856 OFFCURVE",
"403 791 OFFCURVE",
"324 791 CURVE SMOOTH",
"245 791 OFFCURVE",
"180 856 OFFCURVE",
"180 935 CURVE SMOOTH",
"180 1014 OFFCURVE",
"245 1079 OFFCURVE",
"324 1079 CURVE SMOOTH"
);
},
{
closed = 1;
nodes = (
"1235 526 OFFCURVE",
"1160 485 OFFCURVE",
"1113 421 CURVE",
"1065 485 OFFCURVE",
"991 526 OFFCURVE",
"904 526 CURVE SMOOTH",
"753 526 OFFCURVE",
"630 403 OFFCURVE",
"630 252 CURVE SMOOTH",
"630 101 OFFCURVE",
"753 -22 OFFCURVE",
"904 -22 CURVE SMOOTH",
"991 -22 OFFCURVE",
"1065 19 OFFCURVE",
"1113 82 CURVE",
"1160 19 OFFCURVE",
"1235 -22 OFFCURVE",
"1322 -22 CURVE SMOOTH",
"1473 -22 OFFCURVE",
"1596 101 OFFCURVE",
"1596 252 CURVE SMOOTH",
"1596 403 OFFCURVE",
"1473 526 OFFCURVE",
"1322 526 CURVE SMOOTH"
);
},
{
closed = 1;
nodes = (
"1401 396 OFFCURVE",
"1466 331 OFFCURVE",
"1466 252 CURVE SMOOTH",
"1466 173 OFFCURVE",
"1401 108 OFFCURVE",
"1322 108 CURVE SMOOTH",
"1243 108 OFFCURVE",
"1178 173 OFFCURVE",
"1178 252 CURVE SMOOTH",
"1178 331 OFFCURVE",
"1243 396 OFFCURVE",
"1322 396 CURVE SMOOTH"
);
}
);
width = 1228;
},
{
layerId = "8538028E-5D6C-4318-9676-30148CDA39CA";
paths = (
{
closed = 1;
nodes = (
"108 249 LINE SMOOTH",
"75 218 OFFCURVE",
"75 193 OFFCURVE",
"130 134 CURVE SMOOTH",
"185 75 OFFCURVE",
"210 75 OFFCURVE",
"243 106 CURVE SMOOTH",
"1120 940 LINE SMOOTH",
"1152 971 OFFCURVE",
"1154 996 OFFCURVE",
"1098 1054 CURVE SMOOTH",
"1042 1112 OFFCURVE",
"1017 1114 OFFCURVE",
"985 1083 CURVE SMOOTH"
);
},
{
closed = 1;
nodes = (
"952 339 OFFCURVE",
"991 300 OFFCURVE",
"991 252 CURVE SMOOTH",
"991 204 OFFCURVE",
"952 165 OFFCURVE",
"904 165 CURVE SMOOTH",
"856 165 OFFCURVE",
"817 204 OFFCURVE",
"817 252 CURVE SMOOTH",
"817 300 OFFCURVE",
"856 339 OFFCURVE",
"904 339 CURVE SMOOTH"
);
},
{
closed = 1;
nodes = (
"173 1209 OFFCURVE",
"50 1086 OFFCURVE",
"50 935 CURVE SMOOTH",
"50 784 OFFCURVE",
"173 661 OFFCURVE",
"324 661 CURVE SMOOTH",
"475 661 OFFCURVE",
"598 784 OFFCURVE",
"598 935 CURVE SMOOTH",
"598 1086 OFFCURVE",
"475 1209 OFFCURVE",
"324 1209 CURVE SMOOTH"
);
},
{
closed = 1;
nodes = (
"372 1022 OFFCURVE",
"411 983 OFFCURVE",
"411 935 CURVE SMOOTH",
"411 887 OFFCURVE",
"372 848 OFFCURVE",
"324 848 CURVE SMOOTH",
"276 848 OFFCURVE",
"237 887 OFFCURVE",
"237 935 CURVE SMOOTH",
"237 983 OFFCURVE",
"276 1022 OFFCURVE",
"324 1022 CURVE SMOOTH"
);
},
{
closed = 1;
nodes = (
"1191 526 OFFCURVE",
"1129 496 OFFCURVE",
"1084 449 CURVE",
"1040 496 OFFCURVE",
"977 526 OFFCURVE",
"904 526 CURVE SMOOTH",
"753 526 OFFCURVE",
"630 403 OFFCURVE",
"630 252 CURVE SMOOTH",
"630 101 OFFCURVE",
"753 -22 OFFCURVE",
"904 -22 CURVE SMOOTH",
"977 -22 OFFCURVE",
"1040 7 OFFCURVE",
"1084 55 CURVE",
"1129 7 OFFCURVE",
"1191 -22 OFFCURVE",
"1265 -22 CURVE SMOOTH",
"1416 -22 OFFCURVE",
"1539 101 OFFCURVE",
"1539 252 CURVE SMOOTH",
"1539 403 OFFCURVE",
"1416 526 OFFCURVE",
"1265 526 CURVE SMOOTH"
);
},
{
closed = 1;
nodes = (
"1313 339 OFFCURVE",
"1352 300 OFFCURVE",
"1352 252 CURVE SMOOTH",
"1352 204 OFFCURVE",
"1313 165 OFFCURVE",
"1265 165 CURVE SMOOTH",
"1217 165 OFFCURVE",
"1178 204 OFFCURVE",
"1178 252 CURVE SMOOTH",
"1178 300 OFFCURVE",
"1217 339 OFFCURVE",
"1265 339 CURVE SMOOTH"
);
}
);
width = 1228;
}
);
unicode = 2030;
}
{
color = 1;
glyphname = minute;
layers = (
{
layerId = UUID0;
paths = (
{
closed = 1;
nodes = (
"706 1212 OFFCURVE",
"687 1198 OFFCURVE",
"666 1164 CURVE SMOOTH",
"420 757 LINE SMOOTH",
"407 735 OFFCURVE",
"416 709 OFFCURVE",
"435 694 CURVE SMOOTH",
"454 679 OFFCURVE",
"481 674 OFFCURVE",
"498 694 CURVE SMOOTH",
"834 1075 LINE SMOOTH",
"852 1097 OFFCURVE",
"849 1126 OFFCURVE",
"780 1168 CURVE SMOOTH"
);
}
);
width = 1228;
},
{
layerId = "8538028E-5D6C-4318-9676-30148CDA39CA";
paths = (
{
closed = 1;
nodes = (
"664 1219 OFFCURVE",
"615 1206 OFFCURVE",
"594 1164 CURVE SMOOTH",
"393 758 LINE SMOOTH",
"376 723 OFFCURVE",
"391 697 OFFCURVE",
"433 680 CURVE SMOOTH",
"476 663 OFFCURVE",
"512 669 OFFCURVE",
"535 694 CURVE SMOOTH",
"876 1075 LINE SMOOTH",
"900 1102 OFFCURVE",
"887 1152 OFFCURVE",
"777 1185 CURVE SMOOTH"
);
}
);
width = 1228;
}
);
unicode = 2032;
}
{
glyphname = foursuperior;
layers = (
{
layerId = UUID0;
paths = (
{
closed = 1;
nodes = (
"683 1334 OFFCURVE",
"661 1318 OFFCURVE",
"638 1290 CURVE SMOOTH",
"259 838 LINE SMOOTH",
"247 822 OFFCURVE",
"242 808 OFFCURVE",
"242 785 CURVE SMOOTH",
"242 730 OFFCURVE",
"265 707 OFFCURVE",
"296 707 CURVE SMOOTH",
"672 707 LINE",
"672 523 LINE SMOOTH",
"672 492 OFFCURVE",
"691 475 OFFCURVE",
"740 475 CURVE SMOOTH",
"790 475 OFFCURVE",
"807 492 OFFCURVE",
"807 523 CURVE SMOOTH",
"807 707 LINE",
"916 707 LINE SMOOTH",
"947 707 OFFCURVE",
"964 725 OFFCURVE",
"964 770 CURVE SMOOTH",
"964 815 OFFCURVE",
"947 832 OFFCURVE",
"916 832 CURVE SMOOTH",
"807 832 LINE",
"807 1278 LINE SMOOTH",
"807 1311 OFFCURVE",
"763 1334 OFFCURVE",
"719 1334 CURVE SMOOTH"
);
},
{
closed = 1;
nodes = (
"672 832 LINE",
"413 832 LINE",
"678 1151 LINE"
);
}
);
width = 1228;
},
{
layerId = "8538028E-5D6C-4318-9676-30148CDA39CA";
paths = (
{
closed = 1;
nodes = (
"671 1334 OFFCURVE",
"640 1319 OFFCURVE",
"618 1291 CURVE SMOOTH",
"247 838 LINE SMOOTH",
"235 822 OFFCURVE",
"230 808 OFFCURVE",
"230 785 CURVE SMOOTH",
"230 729 OFFCURVE",
"263 665 OFFCURVE",
"294 665 CURVE SMOOTH",
"641 665 LINE",
"641 523 LINE SMOOTH",
"641 492 OFFCURVE",
"671 475 OFFCURVE",
"749 475 CURVE SMOOTH",
"819 475 OFFCURVE",
"836 492 OFFCURVE",
"836 523 CURVE SMOOTH",
"836 665 LINE",
"926 665 LINE SMOOTH",
"962 665 OFFCURVE",
"977 690 OFFCURVE",
"977 749 CURVE SMOOTH",
"977 807 OFFCURVE",
"962 833 OFFCURVE",
"926 833 CURVE SMOOTH",
"836 833 LINE",
"836 1278 LINE SMOOTH",
"836 1312 OFFCURVE",
"801 1334 OFFCURVE",
"728 1334 CURVE SMOOTH"
);
},
{
closed = 1;
nodes = (
"641 833 LINE",
"461 833 LINE",
"647 1072 LINE"
);
}
);
width = 1228;
}
);
unicode = 2074;
}
{
glyphname = partialdiff;
layers = (
{
background = {
paths = (
{
closed = 1;
nodes = (
"817 242 OFFCURVE",
"708 127 OFFCURVE",
"525 126 CURVE SMOOTH",
"402 126 OFFCURVE",
"321 208 OFFCURVE",
"321 333 CURVE SMOOTH",
"321 484 OFFCURVE",
"418 583 OFFCURVE",
"575 583 CURVE SMOOTH",
"724 584 OFFCURVE",
"819 472 OFFCURVE",
"837 335 CURVE",
"894 504 LINE",
"842 649 OFFCURVE",
"720 731 OFFCURVE",
"562 731 CURVE SMOOTH",
"337 731 OFFCURVE",
"167 573 OFFCURVE",
"167 334 CURVE SMOOTH",
"167 129 OFFCURVE",
"308 -23 OFFCURVE",
"526 -23 CURVE SMOOTH",
"775 -23 OFFCURVE",
"925 133 OFFCURVE",
"1009 458 CURVE SMOOTH",
"1179 1118 OFFCURVE",
"772 1299 OFFCURVE",
"447 1170 CURVE SMOOTH",
"421 1158 OFFCURVE",
"406 1133 OFFCURVE",
"425 1084 CURVE SMOOTH",
"447 1029 OFFCURVE",
"470 1025 OFFCURVE",
"494 1031 CURVE SMOOTH",
"843 1131 OFFCURVE",
"975 893 OFFCURVE",
"877 489 CURVE SMOOTH"
);
}
);
};
layerId = UUID0;
paths = (
{
closed = 1;
nodes = (
"578 1209 OFFCURVE",
"510 1197 OFFCURVE",
"447 1170 CURVE SMOOTH",
"421 1159 OFFCURVE",
"406 1133 OFFCURVE",
"425 1084 CURVE SMOOTH",
"447 1029 OFFCURVE",
"470 1024 OFFCURVE",
"494 1031 CURVE SMOOTH",
"548 1046 OFFCURVE",
"597 1054 OFFCURVE",
"641 1054 CURVE SMOOTH",
"818 1054 OFFCURVE",
"908 929 OFFCURVE",
"908 724 CURVE SMOOTH",
"908 664 OFFCURVE",
"900 598 OFFCURVE",
"885 526 CURVE",
"829 657 OFFCURVE",
"712 731 OFFCURVE",
"562 731 CURVE SMOOTH",
"337 731 OFFCURVE",
"167 573 OFFCURVE",
"167 334 CURVE SMOOTH",
"167 129 OFFCURVE",
"308 -23 OFFCURVE",
"526 -23 CURVE SMOOTH",
"714 -23 OFFCURVE",
"846 66 OFFCURVE",
"935 249 CURVE SMOOTH",
"1009 402 OFFCURVE",
"1049 598 OFFCURVE",
"1049 742 CURVE SMOOTH",
"1049 1068 OFFCURVE",
"856 1209 OFFCURVE",
"644 1209 CURVE SMOOTH"
);
},
{
closed = 1;
nodes = (
"717 583 OFFCURVE",
"810 482 OFFCURVE",
"834 353 CURVE",
"769 199 OFFCURVE",
"670 127 OFFCURVE",
"525 126 CURVE SMOOTH",
"402 126 OFFCURVE",
"321 208 OFFCURVE",
"321 333 CURVE SMOOTH",
"321 484 OFFCURVE",
"418 583 OFFCURVE",
"575 583 CURVE SMOOTH"
);
}
);
width = 1228;
},
{
layerId = "8538028E-5D6C-4318-9676-30148CDA39CA";
paths = (
{
closed = 1;
nodes = (
"560 1209 OFFCURVE",
"484 1196 OFFCURVE",
"407 1170 CURVE SMOOTH",
"357 1153 OFFCURVE",
"340 1124 OFFCURVE",
"364 1045 CURVE SMOOTH",
"389 964 OFFCURVE",
"417 953 OFFCURVE",
"444 961 CURVE SMOOTH",
"496 975 OFFCURVE",
"543 983 OFFCURVE",
"585 983 CURVE SMOOTH",
"732 983 OFFCURVE",
"816 893 OFFCURVE",
"816 708 CURVE SMOOTH",
"816 678 OFFCURVE",
"814 645 OFFCURVE",
"809 609 CURVE",
"747 694 OFFCURVE",
"650 741 OFFCURVE",
"532 741 CURVE SMOOTH",
"313 741 OFFCURVE",
"147 585 OFFCURVE",
"147 349 CURVE SMOOTH",
"147 115 OFFCURVE",
"296 -23 OFFCURVE",
"526 -23 CURVE SMOOTH",
"751 -23 OFFCURVE",
"905 101 OFFCURVE",
"993 360 CURVE SMOOTH",
"1034 482 OFFCURVE",
"1058 612 OFFCURVE",
"1058 731 CURVE SMOOTH",
"1058 1056 OFFCURVE",
"872 1209 OFFCURVE",
"631 1209 CURVE SMOOTH"
);
},
{
closed = 1;
nodes = (
"656 513 OFFCURVE",
"724 460 OFFCURVE",
"757 387 CURVE",
"712 265 OFFCURVE",
"645 207 OFFCURVE",
"535 206 CURVE SMOOTH",
"448 205 OFFCURVE",
"391 262 OFFCURVE",
"391 348 CURVE SMOOTH",
"391 448 OFFCURVE",
"456 513 OFFCURVE",
"565 513 CURVE SMOOTH"
);
}
);
width = 1228;
}
);
unicode = 2202;
}
{
color = 8;
glyphname = divisionslash;
layers = (
{
background = {
paths = (
{
closed = 1;
nodes = (
"938 1394 OFFCURVE",
"914 1379 OFFCURVE",
"905 1358 CURVE SMOOTH",
"233 -285 LINE SMOOTH",
"217 -325 OFFCURVE",
"259 -355 OFFCURVE",
"322 -355 CURVE SMOOTH",
"354 -355 OFFCURVE",
"378 -340 OFFCURVE",
"387 -319 CURVE SMOOTH",
"1059 1324 LINE SMOOTH",
"1075 1364 OFFCURVE",
"1033 1394 OFFCURVE",
"970 1394 CURVE SMOOTH"
);
},
{
closed = 1;
nodes = (
"909 1582 OFFCURVE",
"884 1568 OFFCURVE",
"876 1546 CURVE SMOOTH",
"198 -281 LINE SMOOTH",
"183 -321 OFFCURVE",
"224 -351 OFFCURVE",
"287 -351 CURVE SMOOTH",
"319 -351 OFFCURVE",
"344 -336 OFFCURVE",
"352 -315 CURVE SMOOTH",
"1030 1512 LINE SMOOTH",
"1045 1553 OFFCURVE",
"1004 1582 OFFCURVE",
"941 1582 CURVE SMOOTH"
);
}
);
};
guideLines = (
{
position = "{987, 1579}";
},
{
position = "{971, -302}";
}
);
layerId = UUID0;
paths = (
{
closed = 1;
nodes = (
"909 1582 OFFCURVE",
"884 1568 OFFCURVE",
"876 1546 CURVE SMOOTH",
"198 -281 LINE SMOOTH",
"183 -321 OFFCURVE",
"224 -351 OFFCURVE",
"287 -351 CURVE SMOOTH",
"319 -351 OFFCURVE",
"344 -336 OFFCURVE",
"352 -315 CURVE SMOOTH",
"1030 1512 LINE SMOOTH",
"1045 1553 OFFCURVE",
"1004 1582 OFFCURVE",
"941 1582 CURVE SMOOTH"
);
}
);
width = 1228;
},
{
background = {
paths = (
{
closed = 1;
nodes = (
"899 1582 OFFCURVE",
"874 1568 OFFCURVE",
"866 1546 CURVE SMOOTH",
"188 -281 LINE SMOOTH",
"173 -321 OFFCURVE",
"214 -351 OFFCURVE",
"277 -351 CURVE SMOOTH",
"309 -351 OFFCURVE",
"334 -336 OFFCURVE",
"342 -315 CURVE SMOOTH",
"1020 1512 LINE SMOOTH",
"1035 1553 OFFCURVE",
"994 1582 OFFCURVE",
"931 1582 CURVE SMOOTH"
);
}
);
};
guideLines = (
{
position = "{855, -303}";
},
{
position = "{1154, 1573}";
}
);
layerId = "8538028E-5D6C-4318-9676-30148CDA39CA";
paths = (
{
closed = 1;
nodes = (
"867 1613 OFFCURVE",
"838 1599 OFFCURVE",
"827 1570 CURVE SMOOTH",
"148 -273 LINE SMOOTH",
"127 -329 OFFCURVE",
"201 -371 OFFCURVE",
"302 -371 CURVE SMOOTH",
"344 -371 OFFCURVE",
"373 -357 OFFCURVE",
"384 -328 CURVE SMOOTH",
"1063 1515 LINE SMOOTH",
"1084 1572 OFFCURVE",
"1010 1613 OFFCURVE",
"909 1613 CURVE SMOOTH"
);
}
);
width = 1228;
}
);
unicode = 2215;
}
{
glyphname = .notdef;
layers = (
{
layerId = UUID0;
paths = (
{
closed = 1;
nodes = (
"392 965 OFFCURVE",
"357 947 OFFCURVE",
"369 923 CURVE SMOOTH",
"595 493 LINE",
"794 84 LINE SMOOTH",
"800 71 OFFCURVE",
"817 65 OFFCURVE",
"841 65 CURVE SMOOTH",
"871 65 OFFCURVE",
"908 80 OFFCURVE",
"895 105 CURVE SMOOTH",
"656 562 LINE",
"470 944 LINE SMOOTH",
"464 957 OFFCURVE",
"446 965 OFFCURVE",
"422 965 CURVE SMOOTH"
);
},
{
closed = 1;
nodes = (
"149 -265 OFFCURVE",
"167 -283 OFFCURVE",
"212 -283 CURVE SMOOTH",
"1033 -283 LINE SMOOTH",
"1078 -283 OFFCURVE",
"1096 -265 OFFCURVE",
"1096 -215 CURVE SMOOTH",
"1099 1254 LINE SMOOTH",
"1099 1304 OFFCURVE",
"1081 1322 OFFCURVE",
"1036 1322 CURVE SMOOTH",
"215 1322 LINE SMOOTH",
"170 1322 OFFCURVE",
"152 1304 OFFCURVE",
"152 1254 CURVE SMOOTH",
"149 -215 LINE SMOOTH"
);
},
{
closed = 1;
nodes = (
"257 1220 LINE",
"993 1220 LINE",
"991 -181 LINE",
"255 -181 LINE"
);
},
{
closed = 1;
nodes = (
"818 965 OFFCURVE",
"800 957 OFFCURVE",
"794 944 CURVE SMOOTH",
"608 562 LINE",
"369 105 LINE SMOOTH",
"356 80 OFFCURVE",
"393 65 OFFCURVE",
"423 65 CURVE SMOOTH",
"447 65 OFFCURVE",
"464 71 OFFCURVE",
"470 84 CURVE SMOOTH",
"669 493 LINE",
"895 923 LINE SMOOTH",
"907 947 OFFCURVE",
"872 965 OFFCURVE",
"842 965 CURVE SMOOTH"
);
}
);
width = 1228;
},
{
background = {
paths = (
{
closed = 1;
nodes = (
"-1231 1042 OFFCURVE",
"-1249 1035 OFFCURVE",
"-1258 1020 CURVE SMOOTH",
"-1527 576 LINE",
"-1842 52 LINE SMOOTH",
"-1858 26 OFFCURVE",
"-1832 -2 OFFCURVE",
"-1791 -2 CURVE SMOOTH",
"-1766 -2 OFFCURVE",
"-1748 3 OFFCURVE",
"-1739 19 CURVE SMOOTH",
"-1479 484 LINE",
"-1155 988 LINE SMOOTH",
"-1140 1012 OFFCURVE",
"-1165 1042 OFFCURVE",
"-1206 1042 CURVE SMOOTH"
);
},
{
closed = 1;
nodes = (
"-1627 1042 OFFCURVE",
"-1663 1024 OFFCURVE",
"-1657 998 CURVE SMOOTH",
"-1540 492 LINE",
"-1445 8 LINE SMOOTH",
"-1442 -6 OFFCURVE",
"-1426 -13 OFFCURVE",
"-1402 -13 CURVE SMOOTH",
"-1372 -13 OFFCURVE",
"-1335 3 OFFCURVE",
"-1341 30 CURVE SMOOTH",
"-1466 565 LINE",
"-1553 1020 LINE SMOOTH",
"-1556 1034 OFFCURVE",
"-1573 1042 OFFCURVE",
"-1597 1042 CURVE SMOOTH"
);
},
{
closed = 1;
nodes = (
"-2114 -315 OFFCURVE",
"-2099 -333 OFFCURVE",
"-2054 -333 CURVE SMOOTH",
"-1233 -333 LINE SMOOTH",
"-1188 -333 OFFCURVE",
"-1167 -315 OFFCURVE",
"-1158 -265 CURVE SMOOTH",
"-881 1304 LINE SMOOTH",
"-872 1354 OFFCURVE",
"-887 1372 OFFCURVE",
"-932 1372 CURVE SMOOTH",
"-1753 1372 LINE SMOOTH",
"-1798 1372 OFFCURVE",
"-1819 1354 OFFCURVE",
"-1828 1304 CURVE SMOOTH",
"-2105 -265 LINE SMOOTH"
);
},
{
closed = 1;
nodes = (
"-1719 1270 LINE",
"-1003 1270 LINE",
"-1267 -231 LINE",
"-1983 -231 LINE"
);
},
{
closed = 1;
nodes = (
"412 1015 OFFCURVE",
"379 997 OFFCURVE",
"389 973 CURVE SMOOTH",
"595 493 LINE",
"774 34 LINE SMOOTH",
"779 21 OFFCURVE",
"797 15 OFFCURVE",
"821 15 CURVE SMOOTH",
"851 15 OFFCURVE",
"886 30 OFFCURVE",
"875 55 CURVE SMOOTH",
"656 562 LINE",
"490 994 LINE SMOOTH",
"485 1007 OFFCURVE",
"466 1015 OFFCURVE",
"442 1015 CURVE SMOOTH"
);
},
{
closed = 1;
nodes = (
"149 -265 OFFCURVE",
"167 -283 OFFCURVE",
"212 -283 CURVE SMOOTH",
"1033 -283 LINE SMOOTH",
"1078 -283 OFFCURVE",
"1096 -265 OFFCURVE",
"1096 -215 CURVE SMOOTH",
"1099 1254 LINE SMOOTH",
"1099 1304 OFFCURVE",
"1081 1322 OFFCURVE",
"1036 1322 CURVE SMOOTH",
"215 1322 LINE SMOOTH",
"170 1322 OFFCURVE",
"152 1304 OFFCURVE",
"152 1254 CURVE SMOOTH",
"149 -215 LINE SMOOTH"
);
},
{
closed = 1;
nodes = (
"257 1220 LINE",
"993 1220 LINE",
"991 -181 LINE",
"255 -181 LINE"
);
},
{
closed = 1;
nodes = (
"798 1015 OFFCURVE",
"779 1007 OFFCURVE",
"774 994 CURVE SMOOTH",
"608 562 LINE",
"389 55 LINE SMOOTH",
"378 30 OFFCURVE",
"413 15 OFFCURVE",
"443 15 CURVE SMOOTH",
"467 15 OFFCURVE",
"485 21 OFFCURVE",
"490 34 CURVE SMOOTH",
"669 493 LINE",
"875 973 LINE SMOOTH",
"885 997 OFFCURVE",
"852 1015 OFFCURVE",
"822 1015 CURVE SMOOTH"
);
}
);
};
guideLines = (
{
angle = 90;
position = "{265, 47}";
},
{
angle = 90;
position = "{149, 66}";
}
);
layerId = "8538028E-5D6C-4318-9676-30148CDA39CA";
paths = (
{
closed = 1;
nodes = (
"392 965 OFFCURVE",
"357 947 OFFCURVE",
"369 923 CURVE SMOOTH",
"595 493 LINE",
"794 84 LINE SMOOTH",
"800 71 OFFCURVE",
"817 65 OFFCURVE",
"841 65 CURVE SMOOTH",
"871 65 OFFCURVE",
"908 80 OFFCURVE",
"895 105 CURVE SMOOTH",
"656 562 LINE",
"470 944 LINE SMOOTH",
"464 957 OFFCURVE",
"446 965 OFFCURVE",
"422 965 CURVE SMOOTH"
);
},
{
closed = 1;
nodes = (
"149 -265 OFFCURVE",
"167 -283 OFFCURVE",
"212 -283 CURVE SMOOTH",
"1033 -283 LINE SMOOTH",
"1078 -283 OFFCURVE",
"1096 -265 OFFCURVE",
"1096 -215 CURVE SMOOTH",
"1099 1254 LINE SMOOTH",
"1099 1304 OFFCURVE",
"1081 1322 OFFCURVE",
"1036 1322 CURVE SMOOTH",
"215 1322 LINE SMOOTH",
"170 1322 OFFCURVE",
"152 1304 OFFCURVE",
"152 1254 CURVE SMOOTH",
"149 -215 LINE SMOOTH"
);
},
{
closed = 1;
nodes = (
"257 1220 LINE",
"993 1220 LINE",
"991 -181 LINE",
"255 -181 LINE"
);
},
{
closed = 1;
nodes = (
"818 965 OFFCURVE",
"800 957 OFFCURVE",
"794 944 CURVE SMOOTH",
"608 562 LINE",
"369 105 LINE SMOOTH",
"356 80 OFFCURVE",
"393 65 OFFCURVE",
"423 65 CURVE SMOOTH",
"447 65 OFFCURVE",
"464 71 OFFCURVE",
"470 84 CURVE SMOOTH",
"669 493 LINE",
"895 923 LINE SMOOTH",
"907 947 OFFCURVE",
"872 965 OFFCURVE",
"842 965 CURVE SMOOTH"
);
}
);
width = 1228;
}
);
}
{
glyphname = ellipsis.alt1;
layers = (
{
layerId = UUID0;
paths = (
{
closed = 1;
nodes = (
"1421 316 OFFCURVE",
"1345 240 OFFCURVE",
"1345 147 CURVE SMOOTH",
"1345 54 OFFCURVE",
"1421 -22 OFFCURVE",
"1514 -22 CURVE SMOOTH",
"1607 -22 OFFCURVE",
"1683 54 OFFCURVE",
"1683 147 CURVE SMOOTH",
"1683 240 OFFCURVE",
"1607 316 OFFCURVE",
"1514 316 CURVE SMOOTH"
);
},
{
closed = 1;
nodes = (
"-379 316 OFFCURVE",
"-455 240 OFFCURVE",
"-455 147 CURVE SMOOTH",
"-455 54 OFFCURVE",
"-379 -22 OFFCURVE",
"-286 -22 CURVE SMOOTH",
"-193 -22 OFFCURVE",
"-117 54 OFFCURVE",
"-117 147 CURVE SMOOTH",
"-117 240 OFFCURVE",
"-193 316 OFFCURVE",
"-286 316 CURVE SMOOTH"
);
},
{
closed = 1;
nodes = (
"521 316 OFFCURVE",
"445 240 OFFCURVE",
"445 147 CURVE SMOOTH",
"445 54 OFFCURVE",
"521 -22 OFFCURVE",
"614 -22 CURVE SMOOTH",
"707 -22 OFFCURVE",
"783 54 OFFCURVE",
"783 147 CURVE SMOOTH",
"783 240 OFFCURVE",
"707 316 OFFCURVE",
"614 316 CURVE SMOOTH"
);
}
);
width = 1228;
},
{
layerId = "8538028E-5D6C-4318-9676-30148CDA39CA";
paths = (
{
closed = 1;
nodes = (
"1399 394 OFFCURVE",
"1306 301 OFFCURVE",
"1306 186 CURVE SMOOTH",
"1306 71 OFFCURVE",
"1399 -22 OFFCURVE",
"1514 -22 CURVE SMOOTH",
"1629 -22 OFFCURVE",
"1722 71 OFFCURVE",
"1722 186 CURVE SMOOTH",
"1722 301 OFFCURVE",
"1629 394 OFFCURVE",
"1514 394 CURVE SMOOTH"
);
},
{
closed = 1;
nodes = (
"-401 394 OFFCURVE",
"-494 301 OFFCURVE",
"-494 186 CURVE SMOOTH",
"-494 71 OFFCURVE",
"-401 -22 OFFCURVE",
"-286 -22 CURVE SMOOTH",
"-171 -22 OFFCURVE",
"-78 71 OFFCURVE",
"-78 186 CURVE SMOOTH",
"-78 301 OFFCURVE",
"-171 394 OFFCURVE",
"-286 394 CURVE SMOOTH"
);
},
{
closed = 1;
nodes = (
"499 394 OFFCURVE",
"406 301 OFFCURVE",
"406 186 CURVE SMOOTH",
"406 71 OFFCURVE",
"499 -22 OFFCURVE",
"614 -22 CURVE SMOOTH",
"729 -22 OFFCURVE",
"822 71 OFFCURVE",
"822 186 CURVE SMOOTH",
"822 301 OFFCURVE",
"729 394 OFFCURVE",
"614 394 CURVE SMOOTH"
);
}
);
width = 1228;
}
);
}
{
glyphname = ellipsis.alt4;
layers = (
{
layerId = UUID0;
paths = (
{
closed = 1;
nodes = (
"942 244 OFFCURVE",
"882 184 OFFCURVE",
"882 111 CURVE SMOOTH",
"882 38 OFFCURVE",
"942 -22 OFFCURVE",
"1015 -22 CURVE SMOOTH",
"1088 -22 OFFCURVE",
"1148 38 OFFCURVE",
"1148 111 CURVE SMOOTH",
"1148 184 OFFCURVE",
"1088 244 OFFCURVE",
"1015 244 CURVE SMOOTH"
);
},
{
closed = 1;
nodes = (
"-420 244 OFFCURVE",
"-480 184 OFFCURVE",
"-480 111 CURVE SMOOTH",
"-480 38 OFFCURVE",
"-420 -22 OFFCURVE",
"-347 -22 CURVE SMOOTH",
"-274 -22 OFFCURVE",
"-214 38 OFFCURVE",
"-214 111 CURVE SMOOTH",
"-214 184 OFFCURVE",
"-274 244 OFFCURVE",
"-347 244 CURVE SMOOTH"
);
},
{
closed = 1;
nodes = (
"261 244 OFFCURVE",
"201 184 OFFCURVE",
"201 111 CURVE SMOOTH",
"201 38 OFFCURVE",
"261 -22 OFFCURVE",
"334 -22 CURVE SMOOTH",
"407 -22 OFFCURVE",
"467 38 OFFCURVE",
"467 111 CURVE SMOOTH",
"467 184 OFFCURVE",
"407 244 OFFCURVE",
"334 244 CURVE SMOOTH"
);
}
);
width = 1228;
},
{
layerId = "8538028E-5D6C-4318-9676-30148CDA39CA";
paths = (
{
closed = 1;
nodes = (
"922 316 OFFCURVE",
"846 240 OFFCURVE",
"846 147 CURVE SMOOTH",
"846 54 OFFCURVE",
"922 -22 OFFCURVE",
"1015 -22 CURVE SMOOTH",
"1108 -22 OFFCURVE",
"1184 54 OFFCURVE",
"1184 147 CURVE SMOOTH",
"1184 240 OFFCURVE",
"1108 316 OFFCURVE",
"1015 316 CURVE SMOOTH"
);
},
{
closed = 1;
nodes = (
"-440 316 OFFCURVE",
"-516 240 OFFCURVE",
"-516 147 CURVE SMOOTH",
"-516 54 OFFCURVE",
"-440 -22 OFFCURVE",
"-347 -22 CURVE SMOOTH",
"-254 -22 OFFCURVE",
"-178 54 OFFCURVE",
"-178 147 CURVE SMOOTH",
"-178 240 OFFCURVE",
"-254 316 OFFCURVE",
"-347 316 CURVE SMOOTH"
);
},
{
closed = 1;
nodes = (
"241 316 OFFCURVE",
"165 240 OFFCURVE",
"165 147 CURVE SMOOTH",
"165 54 OFFCURVE",
"241 -22 OFFCURVE",
"334 -22 CURVE SMOOTH",
"427 -22 OFFCURVE",
"503 54 OFFCURVE",
"503 147 CURVE SMOOTH",
"503 240 OFFCURVE",
"427 316 OFFCURVE",
"334 316 CURVE SMOOTH"
);
}
);
width = 1228;
}
);
}
{
glyphname = emdash.alt1;
layers = (
{
layerId = UUID0;
paths = (
{
closed = 1;
nodes = (
"-367 650 LINE SMOOTH",
"-412 650 OFFCURVE",
"-430 632 OFFCURVE",
"-430 582 CURVE SMOOTH",
"-430 532 OFFCURVE",
"-412 514 OFFCURVE",
"-367 514 CURVE SMOOTH",
"1595 514 LINE SMOOTH",
"1640 514 OFFCURVE",
"1658 532 OFFCURVE",
"1658 582 CURVE SMOOTH",
"1658 632 OFFCURVE",
"1640 650 OFFCURVE",
"1595 650 CURVE SMOOTH"
);
}
);
width = 1228;
},
{
layerId = "8538028E-5D6C-4318-9676-30148CDA39CA";
paths = (
{
closed = 1;
nodes = (
"-367 695 LINE SMOOTH",
"-412 695 OFFCURVE",
"-430 677 OFFCURVE",
"-430 582 CURVE SMOOTH",
"-430 487 OFFCURVE",
"-412 470 OFFCURVE",
"-367 470 CURVE SMOOTH",
"1595 470 LINE SMOOTH",
"1640 470 OFFCURVE",
"1658 487 OFFCURVE",
"1658 582 CURVE SMOOTH",
"1658 677 OFFCURVE",
"1640 695 OFFCURVE",
"1595 695 CURVE SMOOTH"
);
}
);
width = 1228;
}
);
}
{
glyphname = emdash.alt2;
layers = (
{
layerId = UUID0;
paths = (
{
closed = 1;
nodes = (
"47 650 LINE SMOOTH",
"2 650 OFFCURVE",
"-16 632 OFFCURVE",
"-16 582 CURVE SMOOTH",
"-16 532 OFFCURVE",
"2 514 OFFCURVE",
"47 514 CURVE SMOOTH",
"2409 514 LINE SMOOTH",
"2454 514 OFFCURVE",
"2472 532 OFFCURVE",
"2472 582 CURVE SMOOTH",
"2472 632 OFFCURVE",
"2454 650 OFFCURVE",
"2409 650 CURVE SMOOTH"
);
}
);
width = 1228;
},
{
layerId = "8538028E-5D6C-4318-9676-30148CDA39CA";
paths = (
{
closed = 1;
nodes = (
"47 695 LINE SMOOTH",
"2 695 OFFCURVE",
"-16 677 OFFCURVE",
"-16 582 CURVE SMOOTH",
"-16 487 OFFCURVE",
"2 470 OFFCURVE",
"47 470 CURVE SMOOTH",
"2409 470 LINE SMOOTH",
"2454 470 OFFCURVE",
"2472 487 OFFCURVE",
"2472 582 CURVE SMOOTH",
"2472 677 OFFCURVE",
"2454 695 OFFCURVE",
"2409 695 CURVE SMOOTH"
);
}
);
width = 1228;
}
);
}
